  0
SECTION
  2
HEADER
  9
$ACADVER
  1
AC1006
  9
$EXTMIN
 10
0.000000
 20
0.000000
 30
0.000000
  9
$EXTMAX
 10
1000.000000
 20
1000.000000
 30
0.000000
  0
ENDSEC
  0
SECTION
  2
ENTITIES
  0
POLYLINE
  8
0
 66
1
 70
1
  0
VERTEX
  8
0
 10
484.111967
 20
873.014917
 42
0.033690
  0
VERTEX
  8
0
 10
474.013145
 20
869.543895
 42
0.038416
  0
VERTEX
  8
0
 10
464.926151
 20
864.868361
 42
0.039449
  0
VERTEX
  8
0
 10
456.869500
 20
858.983592
 42
0.039503
  0
VERTEX
  8
0
 10
449.841096
 20
851.908967
 42
0.038720
  0
VERTEX
  8
0
 10
446.948342
 20
847.905896
 42
0.001578
  0
VERTEX
  8
0
 10
437.705678
 20
832.667009
 42
0.002748
  0
VERTEX
  8
0
 10
426.904760
 20
814.506384
 42
0.001944
  0
VERTEX
  8
0
 10
414.967784
 20
794.000000
 42
-0.000002
  0
VERTEX
  8
0
 10
402.967738
 20
773.199852
 42
-0.000002
  0
VERTEX
  8
0
 10
391.966473
 20
754.131250
 42
-0.000002
  0
VERTEX
  8
0
 10
382.744197
 20
738.146451
 42
-0.000018
  0
VERTEX
  8
0
 10
379.197735
 20
732.000000
 42
0.000087
  0
VERTEX
  8
0
 10
376.444895
 20
727.227478
 42
0.000031
  0
VERTEX
  8
0
 10
372.534116
 20
720.443750
 42
0.000031
  0
VERTEX
  8
0
 10
368.251889
 20
713.013544
 42
0.000037
  0
VERTEX
  8
0
 10
364.211072
 20
706.000000
 42
-0.000279
  0
VERTEX
  8
0
 10
359.452539
 20
697.749951
 42
-0.000103
  0
VERTEX
  8
0
 10
352.732949
 20
686.120461
 42
-0.000102
  0
VERTEX
  8
0
 10
345.391319
 20
673.426416
 42
-0.000123
  0
VERTEX
  8
0
 10
338.483714
 20
661.495186
 42
0.000243
  0
VERTEX
  8
0
 10
331.433496
 20
649.310887
 42
0.000180
  0
VERTEX
  8
0
 10
323.655857
 20
635.843200
 42
0.000182
  0
VERTEX
  8
0
 10
316.325035
 20
623.127971
 42
0.000411
  0
VERTEX
  8
0
 10
310.786580
 20
613.495186
 42
-0.000212
  0
VERTEX
  8
0
 10
305.538024
 20
604.358197
 42
-0.000122
  0
VERTEX
  8
0
 10
299.205772
 20
593.351711
 42
-0.000122
  0
VERTEX
  8
0
 10
292.838851
 20
582.297456
 42
-0.000204
  0
VERTEX
  8
0
 10
287.475721
 20
573.000000
 42
0.000061
  0
VERTEX
  8
0
 10
281.801062
 20
563.168983
 42
0.000028
  0
VERTEX
  8
0
 10
274.374053
 20
550.296875
 42
0.000027
  0
VERTEX
  8
0
 10
266.541611
 20
536.718654
 42
0.000037
  0
VERTEX
  8
0
 10
259.495524
 20
524.500000
 42
-0.000083
  0
VERTEX
  8
0
 10
252.762440
 20
512.826604
 42
-0.000078
  0
VERTEX
  8
0
 10
245.881779
 20
500.906250
 42
-0.000078
  0
VERTEX
  8
0
 10
239.775378
 20
490.334878
 42
-0.000270
  0
VERTEX
  8
0
 10
235.820970
 20
483.500000
 42
0.000322
  0
VERTEX
  8
0
 10
221.614577
 20
458.939419
 42
0.000127
  0
VERTEX
  8
0
 10
202.057037
 20
425.057391
 42
0.000104
  0
VERTEX
  8
0
 10
183.049057
 20
392.092387
 42
0.000727
  0
VERTEX
  8
0
 10
173.805593
 20
376.000000
 42
0.023338
  0
VERTEX
  8
0
 10
165.041575
 20
358.885313
 42
0.077458
  0
VERTEX
  8
0
 10
161.653926
 20
346.738701
 42
0.027512
  0
VERTEX
  8
0
 10
160.563009
 20
329.269373
 42
0.000937
  0
VERTEX
  8
0
 10
160.185945
 20
260.500000
 42
0.000712
  0
VERTEX
  8
0
 10
160.095130
 20
218.963934
 42
0.002467
  0
VERTEX
  8
0
 10
160.207215
 20
192.088022
 42
0.001879
  0
VERTEX
  8
0
 10
160.450997
 20
173.135135
 42
0.047681
  0
VERTEX
  8
0
 10
161.028079
 20
168.000000
 42
0.024596
  0
VERTEX
  8
0
 10
161.718619
 20
165.365857
 42
0.010481
  0
VERTEX
  8
0
 10
162.888079
 20
161.912500
 42
0.010341
  0
VERTEX
  8
0
 10
164.291598
 20
158.274108
 42
0.013370
  0
VERTEX
  8
0
 10
165.736412
 20
155.000000
 42
0.064833
  0
VERTEX
  8
0
 10
172.103319
 20
145.106132
 42
0.051714
  0
VERTEX
  8
0
 10
181.253924
 20
136.300878
 42
0.052025
  0
VERTEX
  8
0
 10
191.947567
 20
129.613272
 42
0.067998
  0
VERTEX
  8
0
 10
202.886490
 20
125.998790
 42
0.044918
  0
VERTEX
  8
0
 10
208.001939
 20
125.518755
 42
0.000110
  0
VERTEX
  8
0
 10
281.745561
 20
125.255455
 42
0.000606
  0
VERTEX
  8
0
 10
373.441091
 20
125.059217
 42
0.000232
  0
VERTEX
  8
0
 10
500.926391
 20
125.000000
 42
0.000138
  0
VERTEX
  8
0
 10
720.862810
 20
125.060736
 42
0.004843
  0
VERTEX
  8
0
 10
772.306156
 20
125.587421
 42
0.019917
  0
VERTEX
  8
0
 10
797.695905
 20
127.106333
 42
0.091496
  0
VERTEX
  8
0
 10
811.803146
 20
131.194499
 42
0.064419
  0
VERTEX
  8
0
 10
821.081928
 20
137.450375
 42
0.050008
  0
VERTEX
  8
0
 10
829.382146
 20
146.377999
 42
0.049617
  0
VERTEX
  8
0
 10
835.809417
 20
156.863244
 42
0.060558
  0
VERTEX
  8
0
 10
839.533344
 20
167.742730
 42
0.051304
  0
VERTEX
  8
0
 10
840.977010
 20
181.272364
 42
0.000861
  0
VERTEX
  8
0
 10
841.132276
 20
256.573137
 42
0.000937
  0
VERTEX
  8
0
 10
841.017414
 20
331.436020
 42
0.046506
  0
VERTEX
  8
0
 10
839.594089
 20
346.162032
 42
0.030624
  0
VERTEX
  8
0
 10
837.559895
 20
354.111065
 42
0.034524
  0
VERTEX
  8
0
 10
834.630437
 20
361.428971
 42
0.016428
  0
VERTEX
  8
0
 10
829.254738
 20
371.688267
 42
0.001949
  0
VERTEX
  8
0
 10
816.497671
 20
394.000000
 42
-0.000022
  0
VERTEX
  8
0
 10
808.529003
 20
407.813132
 42
-0.000015
  0
VERTEX
  8
0
 10
799.598109
 20
423.296875
 42
-0.000016
  0
VERTEX
  8
0
 10
791.076529
 20
438.073098
 42
-0.000033
  0
VERTEX
  8
0
 10
784.488017
 20
449.500000
 42
0.000037
  0
VERTEX
  8
0
 10
763.095638
 20
486.601561
 42
0.000103
  0
VERTEX
  8
0
 10
748.026174
 20
512.720156
 42
0.000134
  0
VERTEX
  8
0
 10
737.200162
 20
531.463432
 42
0.000528
  0
VERTEX
  8
0
 10
730.516331
 20
543.000000
 42
-0.000434
  0
VERTEX
  8
0
 10
721.176030
 20
559.114768
 42
-0.000449
  0
VERTEX
  8
0
 10
711.968559
 20
575.065185
 42
-0.000401
  0
VERTEX
  8
0
 10
704.042022
 20
588.850639
 42
-0.002444
  0
VERTEX
  8
0
 10
699.985150
 20
596.000000
 42
0.002468
  0
VERTEX
  8
0
 10
697.935290
 20
599.612035
 42
0.000525
  0
VERTEX
  8
0
 10
694.329475
 20
605.878125
 42
0.000549
  0
VERTEX
  8
0
 10
690.134472
 20
613.132019
 42
0.000522
  0
VERTEX
  8
0
 10
685.852410
 20
620.500000
 42
-0.000321
  0
VERTEX
  8
0
 10
681.651520
 20
627.721626
 42
-0.000383
  0
VERTEX
  8
0
 10
677.701301
 20
634.534375
 42
-0.000330
  0
VERTEX
  8
0
 10
674.378705
 20
640.283559
 42
-0.002508
  0
VERTEX
  8
0
 10
672.829308
 20
643.000000
 42
0.002034
  0
VERTEX
  8
0
 10
671.264581
 20
645.749378
 42
0.000248
  0
VERTEX
  8
0
 10
667.807755
 20
651.759375
 42
0.000294
  0
VERTEX
  8
0
 10
663.692965
 20
658.895375
 42
0.000243
  0
VERTEX
  8
0
 10
659.297064
 20
666.500000
 42
-0.000135
  0
VERTEX
  8
0
 10
654.235410
 20
675.251983
 42
-0.000075
  0
VERTEX
  8
0
 10
648.059688
 20
685.940625
 42
-0.000075
  0
VERTEX
  8
0
 10
641.805941
 20
696.771773
 42
-0.000120
  0
VERTEX
  8
0
 10
636.482489
 20
706.000000
 42
0.000342
  0
VERTEX
  8
0
 10
631.639842
 20
714.386160
 42
0.000359
  0
VERTEX
  8
0
 10
626.862761
 20
722.632085
 42
0.000343
  0
VERTEX
  8
0
 10
622.729128
 20
729.744296
 42
0.001603
  0
VERTEX
  8
0
 10
620.331647
 20
733.832628
 42
-0.002440
  0
VERTEX
  8
0
 10
618.671340
 20
736.674789
 42
-0.003810
  0
VERTEX
  8
0
 10
617.272421
 20
739.139737
 42
-0.001135
  0
VERTEX
  8
0
 10
616.080822
 20
741.288619
 42
-0.126680
  0
VERTEX
  8
0
 10
616.000000
 20
741.602500
 42
0.125001
  0
VERTEX
  8
0
 10
615.925530
 20
741.895723
 42
0.003765
  0
VERTEX
  8
0
 10
615.311249
 20
743.007029
 42
0.007250
  0
VERTEX
  8
0
 10
614.553745
 20
744.308858
 42
0.004921
  0
VERTEX
  8
0
 10
613.655317
 20
745.769872
 42
-0.007581
  0
VERTEX
  8
0
 10
612.191278
 20
748.179317
 42
-0.000681
  0
VERTEX
  8
0
 10
608.621443
 20
754.279275
 42
-0.000886
  0
VERTEX
  8
0
 10
604.386411
 20
761.568192
 42
-0.000692
  0
VERTEX
  8
0
 10
599.811257
 20
769.500000
 42
0.000362
  0
VERTEX
  8
0
 10
580.563849
 20
802.919538
 42
0.001102
  0
VERTEX
  8
0
 10
567.418448
 20
825.590348
 42
0.000914
  0
VERTEX
  8
0
 10
557.939502
 20
841.787107
 42
0.016713
  0
VERTEX
  8
0
 10
554.743781
 20
846.831039
 42
0.044309
  0
VERTEX
  8
0
 10
548.317836
 20
854.669036
 42
0.039036
  0
VERTEX
  8
0
 10
540.349568
 20
861.622289
 42
0.038369
  0
VERTEX
  8
0
 10
531.246610
 20
867.364258
 42
0.039277
  0
VERTEX
  8
0
 10
521.442533
 20
871.596650
 42
0.041877
  0
VERTEX
  8
0
 10
512.674970
 20
873.791632
 42
0.030918
  0
VERTEX
  8
0
 10
502.716879
 20
874.788660
 42
0.031075
  0
VERTEX
  8
0
 10
492.787349
 20
874.548750
 42
0.044383
  0
SEQEND
  0
POLYLINE
  8
0
 66
1
 70
1
  0
VERTEX
  8
0
 10
515.138674
 20
839.718244
 42
-0.091838
  0
VERTEX
  8
0
 10
523.200215
 20
833.734495
 42
-0.045401
  0
VERTEX
  8
0
 10
531.028559
 20
823.613679
 42
-0.010843
  0
VERTEX
  8
0
 10
543.816990
 20
802.563942
 42
-0.000381
  0
VERTEX
  8
0
 10
591.473855
 20
720.000000
 42
0.000020
  0
VERTEX
  8
0
 10
596.690220
 20
710.947734
 42
0.000014
  0
VERTEX
  8
0
 10
602.610790
 20
700.675000
 42
0.000014
  0
VERTEX
  8
0
 10
608.314038
 20
690.780582
 42
0.000028
  0
VERTEX
  8
0
 10
612.799706
 20
683.000000
 42
-0.000487
  0
VERTEX
  8
0
 10
616.623812
 20
676.352822
 42
-0.000566
  0
VERTEX
  8
0
 10
620.246471
 20
670.025000
 42
-0.000502
  0
VERTEX
  8
0
 10
623.300672
 20
664.663580
 42
-0.003404
  0
VERTEX
  8
0
 10
624.790576
 20
662.000000
 42
0.003118
  0
VERTEX
  8
0
 10
625.793987
 20
660.203738
 42
0.003751
  0
VERTEX
  8
0
 10
626.760438
 20
658.528125
 42
0.003213
  0
VERTEX
  8
0
 10
627.593718
 20
657.128800
 42
0.025069
  0
VERTEX
  8
0
 10
628.018065
 20
656.500000
 42
-0.029665
  0
VERTEX
  8
0
 10
628.557773
 20
655.684193
 42
-0.000137
  0
VERTEX
  8
0
 10
633.682286
 20
646.834375
 42
-0.000648
  0
VERTEX
  8
0
 10
639.492685
 20
636.763654
 42
-0.000409
  0
VERTEX
  8
0
 10
646.246727
 20
625.000000
 42
0.000335
  0
VERTEX
  8
0
 10
653.559128
 20
612.259452
 42
0.000310
  0
VERTEX
  8
0
 10
661.076984
 20
599.200000
 42
0.000309
  0
VERTEX
  8
0
 10
667.782195
 20
587.585528
 42
0.001042
  0
VERTEX
  8
0
 10
672.188806
 20
580.000000
 42
-0.000705
  0
VERTEX
  8
0
 10
676.505366
 20
572.581009
 42
-0.000233
  0
VERTEX
  8
0
 10
682.819792
 20
561.681250
 42
-0.000232
  0
VERTEX
  8
0
 10
689.808374
 20
549.591850
 42
-0.000264
  0
VERTEX
  8
0
 10
696.493999
 20
538.000000
 42
0.000098
  0
VERTEX
  8
0
 10
703.047724
 20
526.628126
 42
0.000096
  0
VERTEX
  8
0
 10
709.639788
 20
515.200000
 42
0.000095
  0
VERTEX
  8
0
 10
715.420332
 20
505.187586
 42
0.000369
  0
VERTEX
  8
0
 10
719.000323
 20
499.000000
 42
-0.000354
  0
VERTEX
  8
0
 10
722.256806
 20
493.371956
 42
-0.000146
  0
VERTEX
  8
0
 10
726.664052
 20
485.737500
 42
-0.000144
  0
VERTEX
  8
0
 10
731.388811
 20
477.542066
 42
-0.000185
  0
VERTEX
  8
0
 10
735.730286
 20
470.000000
 42
0.000226
  0
VERTEX
  8
0
 10
740.743973
 20
461.291797
 42
0.000085
  0
VERTEX
  8
0
 10
747.760800
 20
449.121875
 42
0.000084
  0
VERTEX
  8
0
 10
755.398598
 20
435.885329
 42
0.000103
  0
VERTEX
  8
0
 10
762.551414
 20
423.500000
 42
-0.000111
  0
VERTEX
  8
0
 10
769.134963
 20
412.099966
 42
-0.000152
  0
VERTEX
  8
0
 10
775.050767
 20
401.843750
 42
-0.000097
  0
VERTEX
  8
0
 10
780.020235
 20
393.218274
 42
-0.001818
  0
VERTEX
  8
0
 10
781.572502
 20
390.500000
 42
0.001959
  0
VERTEX
  8
0
 10
783.018636
 20
387.969233
 42
0.000188
  0
VERTEX
  8
0
 10
786.562612
 20
381.828555
 42
0.000240
  0
VERTEX
  8
0
 10
790.793937
 20
374.511374
 42
0.000189
  0
VERTEX
  8
0
 10
795.379546
 20
366.597208
 42
-0.007717
  0
VERTEX
  8
0
 10
803.315497
 20
352.412701
 42
-0.036826
  0
VERTEX
  8
0
 10
807.107426
 20
343.945177
 42
-0.061360
  0
VERTEX
  8
0
 10
808.637665
 20
337.254781
 42
-0.054875
  0
VERTEX
  8
0
 10
808.585261
 20
330.128307
 42
-0.064392
  0
VERTEX
  8
0
 10
806.409596
 20
321.448574
 42
-0.065025
  0
VERTEX
  8
0
 10
802.101890
 20
313.639152
 42
-0.063967
  0
VERTEX
  8
0
 10
795.859206
 20
307.093362
 42
-0.058982
  0
VERTEX
  8
0
 10
788.000000
 20
302.127554
 42
0.000000
  0
VERTEX
  8
0
 10
782.500000
 20
299.500000
 42
0.000000
  0
VERTEX
  8
0
 10
500.500000
 20
299.500000
 42
0.000000
  0
VERTEX
  8
0
 10
218.500000
 20
299.500000
 42
0.000000
  0
VERTEX
  8
0
 10
212.954369
 20
302.101113
 42
-0.063557
  0
VERTEX
  8
0
 10
204.074683
 20
307.736689
 42
-0.075253
  0
VERTEX
  8
0
 10
197.465565
 20
315.149905
 42
-0.076327
  0
VERTEX
  8
0
 10
193.411589
 20
324.094570
 42
-0.067925
  0
VERTEX
  8
0
 10
192.010824
 20
334.215053
 42
-0.063445
  0
VERTEX
  8
0
 10
192.932180
 20
341.557742
 42
-0.052417
  0
VERTEX
  8
0
 10
195.685201
 20
348.954968
 42
-0.014688
  0
VERTEX
  8
0
 10
202.230932
 20
361.215186
 42
-0.000668
  0
VERTEX
  8
0
 10
225.929776
 20
402.500000
 42
-0.000215
  0
VERTEX
  8
0
 10
231.533526
 20
412.222255
 42
-0.000187
  0
VERTEX
  8
0
 10
237.419738
 20
422.415625
 42
-0.000188
  0
VERTEX
  8
0
 10
242.758424
 20
431.644866
 42
-0.000550
  0
VERTEX
  8
0
 10
246.447095
 20
438.000000
 42
0.000331
  0
VERTEX
  8
0
 10
255.685688
 20
453.900928
 42
0.000363
  0
VERTEX
  8
0
 10
264.620746
 20
469.328659
 42
0.000290
  0
VERTEX
  8
0
 10
275.051771
 20
487.393786
 42
0.000118
  0
VERTEX
  8
0
 10
289.232918
 20
512.000000
 42
-0.000097
  0
VERTEX
  8
0
 10
297.487791
 20
526.324713
 42
-0.000111
  0
VERTEX
  8
0
 10
305.381418
 20
540.009375
 42
-0.000100
  0
VERTEX
  8
0
 10
312.082221
 20
551.614782
 42
-0.000638
  0
VERTEX
  8
0
 10
315.491855
 20
557.500000
 42
0.000620
  0
VERTEX
  8
0
 10
318.582652
 20
562.834453
 42
0.000166
  0
VERTEX
  8
0
 10
323.480674
 20
571.318750
 42
0.000169
  0
VERTEX
  8
0
 10
329.038548
 20
580.960942
 42
0.000174
  0
VERTEX
  8
0
 10
334.528265
 20
590.500000
 42
-0.000165
  0
VERTEX
  8
0
 10
347.252396
 20
612.610649
 42
-0.000111
  0
VERTEX
  8
0
 10
361.825421
 20
637.901815
 42
-0.000106
  0
VERTEX
  8
0
 10
377.222398
 20
664.596165
 42
-0.000110
  0
VERTEX
  8
0
 10
392.467004
 20
691.000000
 42
0.000048
  0
VERTEX
  8
0
 10
417.565661
 20
734.458718
 42
0.000111
  0
VERTEX
  8
0
 10
436.361679
 20
767.028156
 42
0.000137
  0
VERTEX
  8
0
 10
450.343828
 20
791.283956
 42
0.000516
  0
VERTEX
  8
0
 10
459.088612
 20
806.500000
 42
-0.006501
  0
VERTEX
  8
0
 10
469.561686
 20
824.228629
 42
-0.043160
  0
VERTEX
  8
0
 10
475.632240
 20
832.504827
 42
-0.077247
  0
VERTEX
  8
0
 10
481.464513
 20
837.392280
 42
-0.048628
  0
VERTEX
  8
0
 10
489.500000
 20
841.235466
 42
-0.060662
  0
VERTEX
  8
0
 10
495.437023
 20
842.611572
 42
-0.041447
  0
VERTEX
  8
0
 10
502.366807
 20
842.776106
 42
-0.041270
  0
VERTEX
  8
0
 10
509.271893
 20
841.791755
 42
-0.057883
  0
SEQEND
  0
POLYLINE
  8
0
 66
1
 70
1
  0
VERTEX
  8
0
 10
557.993979
 20
258.931317
 42
-0.042949
  0
VERTEX
  8
0
 10
566.821171
 20
256.708535
 42
-0.062816
  0
VERTEX
  8
0
 10
574.000730
 20
253.169359
 42
-0.068138
  0
VERTEX
  8
0
 10
579.652430
 20
248.217182
 42
-0.063032
  0
VERTEX
  8
0
 10
583.940321
 20
241.803515
 42
-0.007265
  0
VERTEX
  8
0
 10
585.112200
 20
239.370606
 42
-0.009683
  0
VERTEX
  8
0
 10
586.101219
 20
237.125770
 42
-0.007280
  0
VERTEX
  8
0
 10
586.860344
 20
235.231024
 42
-0.091883
  0
VERTEX
  8
0
 10
587.000000
 20
234.477476
 42
-0.299429
  0
VERTEX
  8
0
 10
586.627502
 20
233.911230
 42
-0.024833
  0
VERTEX
  8
0
 10
584.895279
 20
233.264333
 42
-0.024754
  0
VERTEX
  8
0
 10
582.461116
 20
232.621336
 42
-0.012205
  0
VERTEX
  8
0
 10
579.314330
 20
232.034566
 42
0.002417
  0
VERTEX
  8
0
 10
576.292813
 20
231.532145
 42
0.003293
  0
VERTEX
  8
0
 10
573.573679
 20
231.048030
 42
0.002178
  0
VERTEX
  8
0
 10
571.296761
 20
230.616888
 42
0.037364
  0
VERTEX
  8
0
 10
570.564330
 20
230.417185
 42
-0.273684
  0
VERTEX
  8
0
 10
570.037178
 20
230.520427
 42
-0.041904
  0
VERTEX
  8
0
 10
569.270254
 20
231.328380
 42
-0.037023
  0
VERTEX
  8
0
 10
568.438285
 20
232.540352
 42
-0.024009
  0
VERTEX
  8
0
 10
567.653556
 20
234.049302
 42
0.143405
  0
VERTEX
  8
0
 10
561.936595
 20
240.614871
 42
0.100121
  0
VERTEX
  8
0
 10
552.726010
 20
244.186618
 42
0.093634
  0
VERTEX
  8
0
 10
542.285124
 20
244.015710
 42
0.106354
  0
VERTEX
  8
0
 10
533.139985
 20
239.986445
 42
0.087212
  0
VERTEX
  8
0
 10
527.965590
 20
234.649131
 42
0.066225
  0
VERTEX
  8
0
 10
524.313959
 20
227.346097
 42
0.058894
  0
VERTEX
  8
0
 10
522.391972
 20
218.491794
 42
0.045138
  0
VERTEX
  8
0
 10
522.333646
 20
208.581205
 42
0.097710
  0
VERTEX
  8
0
 10
526.653154
 20
193.510433
 42
0.144535
  0
VERTEX
  8
0
 10
536.073689
 20
183.618928
 42
0.146912
  0
VERTEX
  8
0
 10
549.230326
 20
180.525054
 42
0.102105
  0
VERTEX
  8
0
 10
564.062814
 20
184.538912
 42
0.025536
  0
VERTEX
  8
0
 10
568.028587
 20
186.803506
 42
0.109344
  0
VERTEX
  8
0
 10
569.937874
 20
188.721732
 42
0.121393
  0
VERTEX
  8
0
 10
570.755202
 20
191.158394
 42
0.034813
  0
VERTEX
  8
0
 10
570.805075
 20
195.168824
 42
0.000000
  0
VERTEX
  8
0
 10
570.500000
 20
200.500000
 42
0.000000
  0
VERTEX
  8
0
 10
559.750000
 20
200.783832
 42
0.000000
  0
VERTEX
  8
0
 10
549.000000
 20
201.067663
 42
0.000000
  0
VERTEX
  8
0
 10
549.000000
 20
208.533832
 42
0.000000
  0
VERTEX
  8
0
 10
549.000000
 20
216.000000
 42
0.000000
  0
VERTEX
  8
0
 10
568.500000
 20
216.000000
 42
0.000000
  0
VERTEX
  8
0
 10
588.000000
 20
216.000000
 42
0.000000
  0
VERTEX
  8
0
 10
588.000000
 20
197.360243
 42
-0.004210
  0
VERTEX
  8
0
 10
587.880386
 20
183.153360
 42
-0.092566
  0
VERTEX
  8
0
 10
587.053939
 20
179.106388
 42
-0.159474
  0
VERTEX
  8
0
 10
584.790739
 20
176.432116
 42
-0.018791
  0
VERTEX
  8
0
 10
577.913417
 20
172.543591
 42
-0.027920
  0
VERTEX
  8
0
 10
571.037617
 20
169.463191
 42
-0.033374
  0
VERTEX
  8
0
 10
564.254321
 20
167.374934
 42
-0.033050
  0
VERTEX
  8
0
 10
557.197440
 20
166.193726
 42
-0.026485
  0
VERTEX
  8
0
 10
549.500000
 20
165.833127
 42
-0.051477
  0
VERTEX
  8
0
 10
536.173501
 20
167.291603
 42
-0.073745
  0
VERTEX
  8
0
 10
525.063552
 20
171.461927
 42
-0.079054
  0
VERTEX
  8
0
 10
516.198350
 20
178.400624
 42
-0.070089
  0
VERTEX
  8
0
 10
509.489807
 20
188.020114
 42
-0.049386
  0
VERTEX
  8
0
 10
506.256351
 20
196.348490
 42
-0.038582
  0
VERTEX
  8
0
 10
504.380036
 20
205.872664
 42
-0.037920
  0
VERTEX
  8
0
 10
503.968377
 20
215.766124
 42
-0.042869
  0
VERTEX
  8
0
 10
505.105084
 20
225.200779
 42
-0.094597
  0
VERTEX
  8
0
 10
511.730697
 20
241.127708
 42
-0.105442
  0
VERTEX
  8
0
 10
523.568764
 20
252.787978
 42
-0.101356
  0
VERTEX
  8
0
 10
539.543418
 20
258.905097
 42
-0.081308
  0
SEQEND
  0
POLYLINE
  8
0
 66
1
 70
1
  0
VERTEX
  8
0
 10
263.147448
 20
256.639500
 42
-0.078702
  0
VERTEX
  8
0
 10
273.611076
 20
252.359807
 42
-0.091961
  0
VERTEX
  8
0
 10
281.607673
 20
245.221731
 42
-0.082575
  0
VERTEX
  8
0
 10
287.098478
 20
235.023057
 42
-0.050911
  0
VERTEX
  8
0
 10
290.177663
 20
221.714716
 42
-0.050618
  0
VERTEX
  8
0
 10
290.582217
 20
205.196885
 42
-0.068750
  0
VERTEX
  8
0
 10
287.419428
 20
190.640046
 42
-0.079847
  0
VERTEX
  8
0
 10
281.006158
 20
179.190406
 42
-0.108830
  0
VERTEX
  8
0
 10
271.864522
 20
171.736541
 42
-0.043616
  0
VERTEX
  8
0
 10
265.746568
 20
169.292521
 42
-0.040983
  0
VERTEX
  8
0
 10
259.168591
 20
167.883849
 42
-0.025906
  0
VERTEX
  8
0
 10
250.185095
 20
167.188555
 42
-0.006361
  0
VERTEX
  8
0
 10
235.363510
 20
167.000000
 42
0.000000
  0
VERTEX
  8
0
 10
215.000000
 20
167.000000
 42
0.000000
  0
VERTEX
  8
0
 10
215.000000
 20
212.500000
 42
0.000000
  0
VERTEX
  8
0
 10
215.000000
 20
258.000000
 42
0.000000
  0
VERTEX
  8
0
 10
236.250000
 20
257.984379
 42
-0.004135
  0
VERTEX
  8
0
 10
245.917242
 20
257.897325
 42
-0.008171
  0
VERTEX
  8
0
 10
253.587751
 20
257.639371
 42
-0.009621
  0
VERTEX
  8
0
 10
259.476069
 20
257.231246
 42
-0.035696
  0
SEQEND
  0
POLYLINE
  8
0
 66
1
 70
1
  0
VERTEX
  8
0
 10
373.468907
 20
218.250000
 42
-0.000017
  0
VERTEX
  8
0
 10
379.695588
 20
202.605008
 42
-0.000023
  0
VERTEX
  8
0
 10
385.313017
 20
188.487500
 42
-0.000015
  0
VERTEX
  8
0
 10
390.030291
 20
176.629575
 42
-0.000263
  0
VERTEX
  8
0
 10
391.571147
 20
172.750000
 42
0.000000
  0
VERTEX
  8
0
 10
393.851382
 20
167.000000
 42
0.000000
  0
VERTEX
  8
0
 10
384.175691
 20
167.004663
 42
0.000000
  0
VERTEX
  8
0
 10
374.500000
 20
167.009327
 42
0.000000
  0
VERTEX
  8
0
 10
370.594340
 20
177.526156
 42
0.000000
  0
VERTEX
  8
0
 10
366.688680
 20
188.042986
 42
0.000000
  0
VERTEX
  8
0
 10
348.247213
 20
187.771493
 42
0.000000
  0
VERTEX
  8
0
 10
329.805747
 20
187.500000
 42
0.000000
  0
VERTEX
  8
0
 10
326.147826
 20
177.500000
 42
0.000000
  0
VERTEX
  8
0
 10
322.489905
 20
167.500000
 42
0.000000
  0
VERTEX
  8
0
 10
312.833130
 20
167.214852
 42
0.000000
  0
VERTEX
  8
0
 10
303.176354
 20
166.929703
 42
0.000000
  0
VERTEX
  8
0
 10
312.964059
 20
192.714852
 42
-0.000277
  0
VERTEX
  8
0
 10
320.466836
 20
212.447558
 42
-0.000282
  0
VERTEX
  8
0
 10
327.942085
 20
232.041877
 42
-0.000184
  0
VERTEX
  8
0
 10
334.542126
 20
249.293750
 42
-0.002806
  0
VERTEX
  8
0
 10
336.861728
 20
255.250000
 42
-0.078558
  0
VERTEX
  8
0
 10
337.819787
 20
256.871084
 42
-0.159813
  0
VERTEX
  8
0
 10
339.057208
 20
257.652551
 42
-0.057745
  0
VERTEX
  8
0
 10
341.310385
 20
257.949355
 42
-0.003903
  0
VERTEX
  8
0
 10
347.798700
 20
258.000000
 42
0.000000
  0
VERTEX
  8
0
 10
357.646902
 20
258.000000
 42
0.000000
  0
SEQEND
  0
POLYLINE
  8
0
 66
1
 70
1
  0
VERTEX
  8
0
 10
430.725745
 20
251.985889
 42
-0.001879
  0
VERTEX
  8
0
 10
432.998169
 20
248.334482
 42
-0.000246
  0
VERTEX
  8
0
 10
437.797563
 20
240.549097
 42
-0.000286
  0
VERTEX
  8
0
 10
443.480198
 20
231.308956
 42
-0.000239
  0
VERTEX
  8
0
 10
449.500000
 20
221.497476
 42
0.000000
  0
VERTEX
  8
0
 10
464.500000
 20
197.023173
 42
0.000000
  0
VERTEX
  8
0
 10
464.764452
 20
227.511586
 42
0.000000
  0
VERTEX
  8
0
 10
465.028904
 20
258.000000
 42
0.000000
  0
VERTEX
  8
0
 10
473.514452
 20
258.000000
 42
0.000000
  0
VERTEX
  8
0
 10
482.000000
 20
258.000000
 42
0.000000
  0
VERTEX
  8
0
 10
482.000000
 20
212.462474
 42
0.000000
  0
VERTEX
  8
0
 10
482.000000
 20
166.924948
 42
0.000000
  0
VERTEX
  8
0
 10
472.750000
 20
167.212474
 42
0.000000
  0
VERTEX
  8
0
 10
463.500000
 20
167.500000
 42
0.000000
  0
VERTEX
  8
0
 10
456.000000
 20
179.597107
 42
-0.000502
  0
VERTEX
  8
0
 10
452.387468
 20
185.437017
 42
-0.000221
  0
VERTEX
  8
0
 10
447.618750
 20
193.170962
 42
-0.000219
  0
VERTEX
  8
0
 10
442.568591
 20
201.377494
 42
-0.000294
  0
VERTEX
  8
0
 10
438.000000
 20
208.818547
 42
0.002910
  0
VERTEX
  8
0
 10
433.920544
 20
215.385615
 42
0.004702
  0
VERTEX
  8
0
 10
430.364063
 20
220.920997
 42
0.001065
  0
VERTEX
  8
0
 10
427.204607
 20
225.715924
 42
0.241536
  0
VERTEX
  8
0
 10
426.750000
 20
225.971440
 42
0.417166
  0
VERTEX
  8
0
 10
426.443692
 20
225.684725
 42
0.000637
  0
VERTEX
  8
0
 10
426.220312
 20
217.325986
 42
0.003978
  0
VERTEX
  8
0
 10
426.053891
 20
207.809788
 42
0.002382
  0
VERTEX
  8
0
 10
426.000000
 20
196.500000
 42
0.000000
  0
VERTEX
  8
0
 10
426.000000
 20
167.000000
 42
0.000000
  0
VERTEX
  8
0
 10
418.000000
 20
167.000000
 42
0.000000
  0
VERTEX
  8
0
 10
410.000000
 20
167.000000
 42
0.000000
  0
VERTEX
  8
0
 10
410.000000
 20
212.500000
 42
0.000000
  0
VERTEX
  8
0
 10
410.000000
 20
258.000000
 42
0.000000
  0
VERTEX
  8
0
 10
418.475745
 20
258.000000
 42
0.000000
  0
VERTEX
  8
0
 10
426.951490
 20
258.000000
 42
0.000000
  0
SEQEND
  0
POLYLINE
  8
0
 66
1
 70
1
  0
VERTEX
  8
0
 10
678.000000
 20
250.500000
 42
0.000000
  0
VERTEX
  8
0
 10
678.000000
 20
243.000000
 42
0.000000
  0
VERTEX
  8
0
 10
653.500000
 20
243.000000
 42
0.000000
  0
VERTEX
  8
0
 10
629.000000
 20
243.000000
 42
0.000000
  0
VERTEX
  8
0
 10
629.000000
 20
232.500000
 42
0.000000
  0
VERTEX
  8
0
 10
629.000000
 20
222.000000
 42
0.000000
  0
VERTEX
  8
0
 10
652.000000
 20
222.000000
 42
0.000000
  0
VERTEX
  8
0
 10
675.000000
 20
222.000000
 42
0.000000
  0
VERTEX
  8
0
 10
675.000000
 20
215.018774
 42
0.000000
  0
VERTEX
  8
0
 10
675.000000
 20
208.037549
 42
0.000000
  0
VERTEX
  8
0
 10
652.250000
 20
207.768774
 42
0.000000
  0
VERTEX
  8
0
 10
629.500000
 20
207.500000
 42
0.000000
  0
VERTEX
  8
0
 10
629.220123
 20
194.750000
 42
0.000000
  0
VERTEX
  8
0
 10
628.940246
 20
182.000000
 42
0.000000
  0
VERTEX
  8
0
 10
654.470123
 20
182.000000
 42
0.000000
  0
VERTEX
  8
0
 10
680.000000
 20
182.000000
 42
0.000000
  0
VERTEX
  8
0
 10
680.000000
 20
174.500000
 42
0.000000
  0
VERTEX
  8
0
 10
680.000000
 20
167.000000
 42
0.000000
  0
VERTEX
  8
0
 10
645.500000
 20
167.000000
 42
0.000000
  0
VERTEX
  8
0
 10
611.000000
 20
167.000000
 42
0.000000
  0
VERTEX
  8
0
 10
611.000000
 20
212.500000
 42
0.000000
  0
VERTEX
  8
0
 10
611.000000
 20
258.000000
 42
0.000000
  0
VERTEX
  8
0
 10
644.500000
 20
258.000000
 42
0.000000
  0
VERTEX
  8
0
 10
678.000000
 20
258.000000
 42
0.000000
  0
SEQEND
  0
POLYLINE
  8
0
 66
1
 70
1
  0
VERTEX
  8
0
 10
762.540566
 20
254.484681
 42
-0.056294
  0
VERTEX
  8
0
 10
767.773181
 20
251.015701
 42
-0.077185
  0
VERTEX
  8
0
 10
771.487247
 20
246.771106
 42
-0.075626
  0
VERTEX
  8
0
 10
773.788889
 20
241.530164
 42
-0.051646
  0
VERTEX
  8
0
 10
774.824653
 20
235.097430
 42
-0.017691
  0
VERTEX
  8
0
 10
774.884775
 20
232.244006
 42
-0.014009
  0
VERTEX
  8
0
 10
774.754210
 20
229.161175
 42
-0.014237
  0
VERTEX
  8
0
 10
774.471079
 20
226.305233
 42
-0.033950
  0
VERTEX
  8
0
 10
774.057880
 20
224.214948
 42
-0.082580
  0
VERTEX
  8
0
 10
771.604251
 20
218.833994
 42
-0.067411
  0
VERTEX
  8
0
 10
767.391648
 20
214.100363
 42
-0.064948
  0
VERTEX
  8
0
 10
761.900049
 20
210.508400
 42
-0.066116
  0
VERTEX
  8
0
 10
755.703487
 20
208.472197
 42
0.027291
  0
VERTEX
  8
0
 10
753.161370
 20
207.850062
 42
0.187010
  0
VERTEX
  8
0
 10
752.165464
 20
207.070201
 42
0.403784
  0
VERTEX
  8
0
 10
752.354421
 20
206.266127
 42
0.066379
  0
VERTEX
  8
0
 10
753.945411
 20
205.517326
 42
-0.126600
  0
VERTEX
  8
0
 10
757.131378
 20
203.523476
 42
-0.019480
  0
VERTEX
  8
0
 10
762.100086
 20
197.867386
 42
-0.019534
  0
VERTEX
  8
0
 10
767.804500
 20
190.249977
 42
-0.012459
  0
VERTEX
  8
0
 10
773.859607
 20
180.983570
 42
-0.001306
  0
VERTEX
  8
0
 10
776.980385
 20
175.907894
 42
-0.002105
  0
VERTEX
  8
0
 10
779.608760
 20
171.566971
 42
-0.000339
  0
VERTEX
  8
0
 10
781.916355
 20
167.713439
 42
-0.135540
  0
VERTEX
  8
0
 10
782.000000
 20
167.410545
 42
-0.400734
  0
VERTEX
  8
0
 10
781.840764
 20
167.243771
 42
-0.001564
  0
VERTEX
  8
0
 10
778.985605
 20
167.120598
 42
-0.006247
  0
VERTEX
  8
0
 10
775.673055
 20
167.029507
 42
-0.003749
  0
VERTEX
  8
0
 10
771.738229
 20
167.000000
 42
0.000000
  0
VERTEX
  8
0
 10
761.476458
 20
167.000000
 42
0.000000
  0
VERTEX
  8
0
 10
754.182036
 20
178.131833
 42
0.006789
  0
VERTEX
  8
0
 10
743.354248
 20
194.176353
 42
0.054488
  0
VERTEX
  8
0
 10
737.514012
 20
200.887821
 42
0.113276
  0
VERTEX
  8
0
 10
732.166833
 20
203.951116
 42
0.073796
  0
VERTEX
  8
0
 10
725.098871
 20
205.000000
 42
0.000000
  0
VERTEX
  8
0
 10
719.000000
 20
205.000000
 42
0.000000
  0
VERTEX
  8
0
 10
719.000000
 20
186.000000
 42
0.000000
  0
VERTEX
  8
0
 10
719.000000
 20
167.000000
 42
0.000000
  0
VERTEX
  8
0
 10
710.000000
 20
167.000000
 42
0.000000
  0
VERTEX
  8
0
 10
701.000000
 20
167.000000
 42
0.000000
  0
VERTEX
  8
0
 10
701.000000
 20
212.582406
 42
0.000000
  0
VERTEX
  8
0
 10
701.000000
 20
258.164811
 42
0.000000
  0
VERTEX
  8
0
 10
728.823874
 20
257.832406
 42
0.000000
  0
VERTEX
  8
0
 10
756.647748
 20
257.500000
 42
0.000000
  0
SEQEND
  0
POLYLINE
  8
0
 66
1
 70
1
  0
VERTEX
  8
0
 10
463.602927
 20
746.250000
 42
0.019839
  0
VERTEX
  8
0
 10
462.868840
 20
743.438166
 42
0.000005
  0
VERTEX
  8
0
 10
436.235560
 20
621.878265
 42
0.000034
  0
VERTEX
  8
0
 10
410.994991
 20
506.632047
 42
0.003084
  0
VERTEX
  8
0
 10
407.407732
 20
489.750000
 42
0.015883
  0
VERTEX
  8
0
 10
407.225142
 20
488.695438
 42
0.027360
  0
VERTEX
  8
0
 10
407.149536
 20
487.807813
 42
0.027376
  0
VERTEX
  8
0
 10
407.165720
 20
487.146656
 42
0.391199
  0
VERTEX
  8
0
 10
407.324478
 20
487.000000
 42
0.129614
  0
VERTEX
  8
0
 10
408.172495
 20
487.223586
 42
0.000771
  0
VERTEX
  8
0
 10
415.254278
 20
491.251335
 42
0.001757
  0
VERTEX
  8
0
 10
426.074061
 20
497.477666
 42
0.000243
  0
VERTEX
  8
0
 10
448.500000
 20
510.502553
 42
-0.000098
  0
VERTEX
  8
0
 10
481.305624
 20
529.568678
 42
-0.000490
  0
VERTEX
  8
0
 10
499.683735
 20
540.220885
 42
-0.000043
  0
VERTEX
  8
0
 10
512.963018
 20
547.898828
 42
-0.131790
  0
VERTEX
  8
0
 10
513.340187
 20
548.000000
 42
-0.441301
  0
VERTEX
  8
0
 10
513.437905
 20
547.892896
 42
-0.000152
  0
VERTEX
  8
0
 10
512.872538
 20
541.757812
 42
-0.001935
  0
VERTEX
  8
0
 10
512.211541
 20
534.898423
 42
-0.001158
  0
VERTEX
  8
0
 10
511.375425
 20
526.750000
 42
0.000217
  0
VERTEX
  8
0
 10
509.346586
 20
507.337453
 42
0.000311
  0
VERTEX
  8
0
 10
507.566029
 20
490.124472
 42
0.000263
  0
VERTEX
  8
0
 10
505.597007
 20
470.873662
 42
0.000105
  0
VERTEX
  8
0
 10
502.919032
 20
444.500000
 42
-0.000620
  0
VERTEX
  8
0
 10
501.658044
 20
432.207423
 42
-0.001018
  0
VERTEX
  8
0
 10
500.556429
 20
421.804375
 42
-0.000080
  0
VERTEX
  8
0
 10
499.547346
 20
412.470950
 42
-0.136207
  0
VERTEX
  8
0
 10
499.429406
 20
412.174467
 42
-0.390381
  0
VERTEX
  8
0
 10
499.192429
 20
412.132061
 42
-0.000406
  0
VERTEX
  8
0
 10
494.354448
 20
415.220185
 42
-0.003171
  0
VERTEX
  8
0
 10
488.914492
 20
418.747578
 42
-0.001905
  0
VERTEX
  8
0
 10
482.500000
 20
423.000000
 42
0.003113
  0
VERTEX
  8
0
 10
476.069065
 20
427.240994
 42
0.005137
  0
VERTEX
  8
0
 10
470.576939
 20
430.734231
 42
0.001080
  0
VERTEX
  8
0
 10
465.752650
 20
433.719097
 42
0.347366
  0
VERTEX
  8
0
 10
465.337019
 20
433.670353
 42
0.243213
  0
VERTEX
  8
0
 10
465.213646
 20
433.282852
 42
0.011674
  0
VERTEX
  8
0
 10
465.481360
 20
431.907683
 42
0.016887
  0
VERTEX
  8
0
 10
465.907060
 20
430.236245
 42
0.011140
  0
VERTEX
  8
0
 10
466.503435
 20
428.344820
 42
-0.008161
  0
VERTEX
  8
0
 10
470.644917
 20
415.477841
 42
-0.000438
  0
VERTEX
  8
0
 10
483.070637
 20
374.467998
 42
-0.000059
  0
VERTEX
  8
0
 10
496.724225
 20
329.243797
 42
-0.073404
  0
VERTEX
  8
0
 10
497.000000
 20
327.375438
 42
0.061790
  0
VERTEX
  8
0
 10
497.065244
 20
326.849503
 42
0.080180
  0
VERTEX
  8
0
 10
497.257200
 20
326.404035
 42
0.097789
  0
VERTEX
  8
0
 10
497.541643
 20
326.105864
 42
0.154717
  0
VERTEX
  8
0
 10
497.875574
 20
326.000000
 42
0.239938
  0
VERTEX
  8
0
 10
499.333506
 20
326.742366
 42
0.000111
  0
VERTEX
  8
0
 10
531.956495
 20
371.614792
 42
0.000091
  0
VERTEX
  8
0
 10
564.653179
 20
416.626727
 42
0.368841
  0
VERTEX
  8
0
 10
564.563019
 20
417.770314
 42
0.263263
  0
VERTEX
  8
0
 10
564.146205
 20
417.885920
 42
0.000872
  0
VERTEX
  8
0
 10
558.791146
 20
416.541146
 42
0.004355
  0
VERTEX
  8
0
 10
552.695106
 20
414.942360
 42
0.002676
  0
VERTEX
  8
0
 10
545.541667
 20
412.958333
 42
-0.002548
  0
VERTEX
  8
0
 10
538.389715
 20
410.972749
 42
-0.004152
  0
VERTEX
  8
0
 10
532.298468
 20
409.369240
 42
-0.000793
  0
VERTEX
  8
0
 10
526.939417
 20
408.015013
 42
-0.263702
  0
VERTEX
  8
0
 10
526.541694
 20
408.124972
 42
-0.254434
  0
VERTEX
  8
0
 10
526.424108
 20
408.523220
 42
-0.000888
  0
VERTEX
  8
0
 10
527.513029
 20
413.558712
 42
-0.004353
  0
VERTEX
  8
0
 10
528.816600
 20
419.295038
 42
-0.002680
  0
VERTEX
  8
0
 10
530.445921
 20
426.025252
 42
0.000684
  0
VERTEX
  8
0
 10
535.818201
 20
447.835409
 42
0.000119
  0
VERTEX
  8
0
 10
545.902488
 20
489.060220
 42
0.000136
  0
VERTEX
  8
0
 10
557.094272
 20
534.913681
 42
0.000170
  0
VERTEX
  8
0
 10
567.461063
 20
577.500000
 42
-0.000358
  0
VERTEX
  8
0
 10
571.165769
 20
592.693886
 42
-0.000524
  0
VERTEX
  8
0
 10
574.449046
 20
606.056937
 42
-0.000246
  0
VERTEX
  8
0
 10
577.263064
 20
617.434406
 42
-0.009614
  0
VERTEX
  8
0
 10
577.937932
 20
619.949147
 42
0.016250
  0
VERTEX
  8
0
 10
578.283135
 20
621.307193
 42
0.023161
  0
VERTEX
  8
0
 10
578.493771
 20
622.533475
 42
0.020453
  0
VERTEX
  8
0
 10
578.576381
 20
623.527761
 42
0.209849
  0
VERTEX
  8
0
 10
578.429958
 20
623.903376
 42
0.322887
  0
VERTEX
  8
0
 10
577.408340
 20
624.069040
 42
0.001702
  0
VERTEX
  8
0
 10
567.860202
 20
619.251497
 42
0.003179
  0
VERTEX
  8
0
 10
552.593747
 20
611.360879
 42
0.000334
  0
VERTEX
  8
0
 10
517.000000
 20
592.645922
 42
-0.000663
  0
VERTEX
  8
0
 10
499.916881
 20
583.678109
 42
-0.001102
  0
VERTEX
  8
0
 10
485.490233
 20
576.169690
 42
-0.000052
  0
VERTEX
  8
0
 10
472.472502
 20
569.432703
 42
-0.315409
  0
VERTEX
  8
0
 10
472.222070
 20
569.466362
 42
-0.304467
  0
VERTEX
  8
0
 10
472.163378
 20
569.711471
 42
-0.000312
  0
VERTEX
  8
0
 10
474.207043
 20
575.195844
 42
-0.002685
  0
VERTEX
  8
0
 10
476.542549
 20
581.350426
 42
-0.001626
  0
VERTEX
  8
0
 10
479.369707
 20
588.611263
 42
0.000554
  0
VERTEX
  8
0
 10
483.608536
 20
599.428957
 42
0.000102
  0
VERTEX
  8
0
 10
491.415369
 20
619.429559
 42
0.000109
  0
VERTEX
  8
0
 10
500.539933
 20
642.835228
 42
0.000099
  0
VERTEX
  8
0
 10
509.948824
 20
667.000000
 42
-0.000198
  0
VERTEX
  8
0
 10
519.104878
 20
690.501697
 42
-0.000262
  0
VERTEX
  8
0
 10
527.460983
 20
711.891896
 42
-0.000186
  0
VERTEX
  8
0
 10
534.483806
 20
729.821652
 42
-0.002600
  0
VERTEX
  8
0
 10
537.051187
 20
736.270283
 42
0.003245
  0
VERTEX
  8
0
 10
538.564275
 20
740.085083
 42
0.004771
  0
VERTEX
  8
0
 10
539.840036
 20
743.458337
 42
0.002331
  0
VERTEX
  8
0
 10
540.881302
 20
746.334368
 42
0.085887
  0
VERTEX
  8
0
 10
541.000000
 20
747.020283
 42
0.405519
  0
VERTEX
  8
0
 10
540.555759
 20
747.477952
 42
0.001072
  0
VERTEX
  8
0
 10
530.942933
 20
747.743627
 42
0.004546
  0
VERTEX
  8
0
 10
518.957212
 20
747.940149
 42
0.001826
  0
VERTEX
  8
0
 10
502.567388
 20
748.000000
 42
0.000891
  0
VERTEX
  8
0
 10
479.073034
 20
747.958118
 42
0.010330
  0
VERTEX
  8
0
 10
469.870637
 20
747.735157
 42
0.019435
  0
VERTEX
  8
0
 10
464.869885
 20
747.315375
 42
0.296546
  0
SEQEND
  0
POLYLINE
  8
0
 66
1
 70
1
  0
VERTEX
  8
0
 10
233.000000
 20
212.602827
 42
0.000000
  0
VERTEX
  8
0
 10
233.000000
 20
182.000000
 42
0.000000
  0
VERTEX
  8
0
 10
243.750000
 20
182.005577
 42
0.021511
  0
VERTEX
  8
0
 10
254.655997
 20
182.480658
 42
0.080021
  0
VERTEX
  8
0
 10
261.302261
 20
184.151205
 42
0.114875
  0
VERTEX
  8
0
 10
265.778145
 20
187.446955
 42
0.071399
  0
VERTEX
  8
0
 10
269.284860
 20
192.981109
 42
0.073940
  0
VERTEX
  8
0
 10
271.734712
 20
201.676343
 42
0.035808
  0
VERTEX
  8
0
 10
272.376388
 20
213.240966
 42
0.035795
  0
VERTEX
  8
0
 10
271.369892
 20
224.685945
 42
0.080012
  0
VERTEX
  8
0
 10
268.638941
 20
232.955660
 42
0.071665
  0
VERTEX
  8
0
 10
265.277427
 20
237.647093
 42
0.101835
  0
VERTEX
  8
0
 10
261.063992
 20
240.548332
 42
0.071789
  0
VERTEX
  8
0
 10
254.957047
 20
242.151411
 42
0.020999
  0
VERTEX
  8
0
 10
245.250000
 20
242.845514
 42
0.000000
  0
VERTEX
  8
0
 10
233.000000
 20
243.205654
 42
0.000000
  0
SEQEND
  0
POLYLINE
  8
0
 66
1
 70
1
  0
VERTEX
  8
0
 10
346.200235
 20
233.250000
 42
0.001185
  0
VERTEX
  8
0
 10
341.714603
 20
220.765349
 42
0.003096
  0
VERTEX
  8
0
 10
338.568124
 20
211.766523
 42
0.001524
  0
VERTEX
  8
0
 10
336.224162
 20
204.858637
 42
0.081197
  0
VERTEX
  8
0
 10
336.000000
 20
203.487382
 42
0.350612
  0
VERTEX
  8
0
 10
336.506403
 20
202.853987
 42
0.032492
  0
VERTEX
  8
0
 10
338.628008
 20
202.518227
 42
0.021253
  0
VERTEX
  8
0
 10
342.163365
 20
202.343104
 42
0.004662
  0
VERTEX
  8
0
 10
348.250000
 20
202.357272
 42
0.003805
  0
VERTEX
  8
0
 10
354.961425
 20
202.486557
 42
0.027429
  0
VERTEX
  8
0
 10
358.184444
 20
202.750516
 42
0.071477
  0
VERTEX
  8
0
 10
359.797706
 20
203.213143
 42
0.349051
  0
VERTEX
  8
0
 10
360.204513
 20
204.000000
 42
0.041421
  0
VERTEX
  8
0
 10
359.051363
 20
208.051430
 42
0.001976
  0
VERTEX
  8
0
 10
354.025121
 20
221.242839
 42
0.000409
  0
VERTEX
  8
0
 10
348.485312
 20
235.576235
 42
0.309656
  0
VERTEX
  8
0
 10
347.866672
 20
236.000000
 42
0.231696
  0
VERTEX
  8
0
 10
347.548900
 20
235.844394
 42
0.028828
  0
VERTEX
  8
0
 10
347.100360
 20
235.192187
 42
0.029198
  0
VERTEX
  8
0
 10
346.630397
 20
234.303455
 42
0.020189
  0
SEQEND
  0
POLYLINE
  8
0
 66
1
 70
1
  0
VERTEX
  8
0
 10
719.976812
 20
242.250000
 42
0.006364
  0
VERTEX
  8
0
 10
719.916273
 20
238.920343
 42
0.000565
  0
VERTEX
  8
0
 10
719.880010
 20
230.530068
 42
0.000262
  0
VERTEX
  8
0
 10
719.856283
 20
221.637521
 42
0.017456
  0
VERTEX
  8
0
 10
719.906167
 20
220.115505
 42
0.337866
  0
VERTEX
  8
0
 10
720.527814
 20
219.405753
 42
0.038962
  0
VERTEX
  8
0
 10
722.770453
 20
219.130917
 42
0.020269
  0
VERTEX
  8
0
 10
726.782746
 20
219.116775
 42
0.003121
  0
VERTEX
  8
0
 10
734.744815
 20
219.461342
 42
0.005514
  0
VERTEX
  8
0
 10
740.524844
 20
219.811571
 42
0.007673
  0
VERTEX
  8
0
 10
745.689644
 20
220.261485
 42
0.005010
  0
VERTEX
  8
0
 10
749.995598
 20
220.746899
 42
0.092543
  0
VERTEX
  8
0
 10
751.298325
 20
221.159659
 42
0.099319
  0
VERTEX
  8
0
 10
753.235039
 20
222.756096
 42
0.042894
  0
VERTEX
  8
0
 10
755.124906
 20
225.532254
 42
0.042824
  0
VERTEX
  8
0
 10
756.537042
 20
228.641173
 42
0.085061
  0
VERTEX
  8
0
 10
756.996262
 20
231.299660
 42
0.074554
  0
VERTEX
  8
0
 10
756.525653
 20
234.467097
 42
0.067517
  0
VERTEX
  8
0
 10
755.141604
 20
237.475733
 42
0.068825
  0
VERTEX
  8
0
 10
753.038262
 20
239.955641
 42
0.083736
  0
VERTEX
  8
0
 10
750.465701
 20
241.578778
 42
0.086759
  0
VERTEX
  8
0
 10
746.009784
 20
242.587822
 42
0.006900
  0
VERTEX
  8
0
 10
733.875485
 20
243.022549
 42
0.002986
  0
VERTEX
  8
0
 10
720.996909
 20
243.229133
 42
0.408123
  0
SEQEND
  0
ENDSEC
  0
EOF
