%TF.GenerationSoftware,KiCad,Pcbnew,(7.0.0-0)*%
%TF.CreationDate,2023-03-12T14:10:56+01:00*%
%TF.ProjectId,ESPMeter,4553504d-6574-4657-922e-6b696361645f,rev?*%
%TF.SameCoordinates,Original*%
%TF.FileFunction,Drillmap*%
%TF.FilePolarity,Positive*%
%FSLAX45Y45*%
G04 Gerber Fmt 4.5, Leading zero omitted, Abs format (unit mm)*
G04 Created by KiCad (PCBNEW (7.0.0-0)) date 2023-03-12 14:10:56*
%MOMM*%
%LPD*%
G01*
G04 APERTURE LIST*
%ADD10C,0.100000*%
%ADD11C,0.200000*%
%ADD12C,0.040000*%
%ADD13C,0.060000*%
%ADD14C,0.065000*%
%ADD15C,0.090000*%
%ADD16C,0.110000*%
%ADD17C,0.130000*%
%ADD18C,0.320000*%
G04 APERTURE END LIST*
D10*
X12299250Y-7426000D02*
X12300500Y-10900000D01*
X8506250Y-6114250D02*
X8509000Y-11757500D01*
X12299250Y-7403500D02*
X12456750Y-7403500D01*
X19258500Y-6111000D02*
X19260250Y-11757500D01*
X12299250Y-7403500D02*
X12299250Y-7426000D01*
X12456750Y-7426000D02*
X12455500Y-10900000D01*
X18767750Y-12250000D02*
G75*
G03*
X19260250Y-11757500I0J492500D01*
G01*
X8509000Y-11757500D02*
G75*
G03*
X9001500Y-12250000I492500J0D01*
G01*
X9001500Y-12250000D02*
X18767750Y-12250000D01*
X12456750Y-7403500D02*
X12456750Y-7426000D01*
X8998750Y-5621750D02*
G75*
G03*
X8506250Y-6114250I0J-492500D01*
G01*
X12300500Y-10900000D02*
X12455500Y-10900000D01*
X19258500Y-6111000D02*
G75*
G03*
X18766000Y-5618500I-492500J0D01*
G01*
X8998750Y-5621750D02*
X18766000Y-5618500D01*
D11*
D12*
X11875500Y-6691000D02*
X11915500Y-6731000D01*
X11915500Y-6691000D02*
X11875500Y-6731000D01*
X13597500Y-7780000D02*
X13637500Y-7820000D01*
X13637500Y-7780000D02*
X13597500Y-7820000D01*
X13847500Y-7707500D02*
X13887500Y-7747500D01*
X13887500Y-7707500D02*
X13847500Y-7747500D01*
X14032500Y-7877500D02*
X14072500Y-7917500D01*
X14072500Y-7877500D02*
X14032500Y-7917500D01*
X14032500Y-8095000D02*
X14072500Y-8135000D01*
X14072500Y-8095000D02*
X14032500Y-8135000D01*
X14067500Y-7707500D02*
X14107500Y-7747500D01*
X14107500Y-7707500D02*
X14067500Y-7747500D01*
X14110000Y-7202500D02*
X14150000Y-7242500D01*
X14150000Y-7202500D02*
X14110000Y-7242500D01*
X14186000Y-9545000D02*
X14226000Y-9585000D01*
X14226000Y-9545000D02*
X14186000Y-9585000D01*
X14186000Y-10181000D02*
X14226000Y-10221000D01*
X14226000Y-10181000D02*
X14186000Y-10221000D01*
X14427290Y-9999710D02*
X14467290Y-10039710D01*
X14467290Y-9999710D02*
X14427290Y-10039710D01*
X14482500Y-7500000D02*
X14522500Y-7540000D01*
X14522500Y-7500000D02*
X14482500Y-7540000D01*
X14510050Y-7110000D02*
X14550050Y-7150000D01*
X14550050Y-7110000D02*
X14510050Y-7150000D01*
X14574931Y-6779931D02*
X14614931Y-6819931D01*
X14614931Y-6779931D02*
X14574931Y-6819931D01*
X14590000Y-6650000D02*
X14630000Y-6690000D01*
X14630000Y-6650000D02*
X14590000Y-6690000D01*
X14613000Y-8730000D02*
X14653000Y-8770000D01*
X14653000Y-8730000D02*
X14613000Y-8770000D01*
X14680000Y-6942500D02*
X14720000Y-6982500D01*
X14720000Y-6942500D02*
X14680000Y-6982500D01*
X14770000Y-7600000D02*
X14810000Y-7640000D01*
X14810000Y-7600000D02*
X14770000Y-7640000D01*
X14784363Y-9859060D02*
X14824363Y-9899060D01*
X14824363Y-9859060D02*
X14784363Y-9899060D01*
X14805000Y-8063000D02*
X14845000Y-8103000D01*
X14845000Y-8063000D02*
X14805000Y-8103000D01*
X14940000Y-10130000D02*
X14980000Y-10170000D01*
X14980000Y-10130000D02*
X14940000Y-10170000D01*
X15087500Y-7015000D02*
X15127500Y-7055000D01*
X15127500Y-7015000D02*
X15087500Y-7055000D01*
X15097966Y-7259000D02*
X15137966Y-7299000D01*
X15137966Y-7259000D02*
X15097966Y-7299000D01*
X15107000Y-9392000D02*
X15147000Y-9432000D01*
X15147000Y-9392000D02*
X15107000Y-9432000D01*
X15124000Y-6870000D02*
X15164000Y-6910000D01*
X15164000Y-6870000D02*
X15124000Y-6910000D01*
X15280000Y-10260000D02*
X15320000Y-10300000D01*
X15320000Y-10260000D02*
X15280000Y-10300000D01*
X15289000Y-8152000D02*
X15329000Y-8192000D01*
X15329000Y-8152000D02*
X15289000Y-8192000D01*
X15304195Y-10356978D02*
X15344195Y-10396978D01*
X15344195Y-10356978D02*
X15304195Y-10396978D01*
X15344998Y-7814002D02*
X15384998Y-7854002D01*
X15384998Y-7814002D02*
X15344998Y-7854002D01*
X15408943Y-6779157D02*
X15448943Y-6819157D01*
X15448943Y-6779157D02*
X15408943Y-6819157D01*
X15415376Y-6878900D02*
X15455376Y-6918900D01*
X15455376Y-6878900D02*
X15415376Y-6918900D01*
X15416000Y-11549550D02*
X15456000Y-11589550D01*
X15456000Y-11549550D02*
X15416000Y-11589550D01*
X15416000Y-11750000D02*
X15456000Y-11790000D01*
X15456000Y-11750000D02*
X15416000Y-11790000D01*
X15419326Y-6983669D02*
X15459326Y-7023669D01*
X15459326Y-6983669D02*
X15419326Y-7023669D01*
X15421000Y-6514000D02*
X15461000Y-6554000D01*
X15461000Y-6514000D02*
X15421000Y-6554000D01*
X15443000Y-9681000D02*
X15483000Y-9721000D01*
X15483000Y-9681000D02*
X15443000Y-9721000D01*
X15462000Y-8703000D02*
X15502000Y-8743000D01*
X15502000Y-8703000D02*
X15462000Y-8743000D01*
X15507048Y-6918729D02*
X15547048Y-6958729D01*
X15547048Y-6918729D02*
X15507048Y-6958729D01*
X15535000Y-8125000D02*
X15575000Y-8165000D01*
X15575000Y-8125000D02*
X15535000Y-8165000D01*
X15640000Y-8197500D02*
X15680000Y-8237500D01*
X15680000Y-8197500D02*
X15640000Y-8237500D01*
X15682500Y-9632500D02*
X15722500Y-9672500D01*
X15722500Y-9632500D02*
X15682500Y-9672500D01*
X15682500Y-9975000D02*
X15722500Y-10015000D01*
X15722500Y-9975000D02*
X15682500Y-10015000D01*
X15703000Y-7603000D02*
X15743000Y-7643000D01*
X15743000Y-7603000D02*
X15703000Y-7643000D01*
X15732000Y-7116000D02*
X15772000Y-7156000D01*
X15772000Y-7116000D02*
X15732000Y-7156000D01*
X15737040Y-6458040D02*
X15777040Y-6498040D01*
X15777040Y-6458040D02*
X15737040Y-6498040D01*
X15756000Y-8772050D02*
X15796000Y-8812050D01*
X15796000Y-8772050D02*
X15756000Y-8812050D01*
X15800000Y-8682000D02*
X15840000Y-8722000D01*
X15840000Y-8682000D02*
X15800000Y-8722000D01*
X15816256Y-8305000D02*
X15856256Y-8345000D01*
X15856256Y-8305000D02*
X15816256Y-8345000D01*
X15822059Y-7527946D02*
X15862059Y-7567946D01*
X15862059Y-7527946D02*
X15822059Y-7567946D01*
X15897500Y-8230000D02*
X15937500Y-8270000D01*
X15937500Y-8230000D02*
X15897500Y-8270000D01*
X15899851Y-7175848D02*
X15939851Y-7215848D01*
X15939851Y-7175848D02*
X15899851Y-7215848D01*
X15927000Y-7529000D02*
X15967000Y-7569000D01*
X15967000Y-7529000D02*
X15927000Y-7569000D01*
X16008000Y-11616000D02*
X16048000Y-11656000D01*
X16048000Y-11616000D02*
X16008000Y-11656000D01*
X16014000Y-8402000D02*
X16054000Y-8442000D01*
X16054000Y-8402000D02*
X16014000Y-8442000D01*
X16245000Y-7537500D02*
X16285000Y-7577500D01*
X16285000Y-7537500D02*
X16245000Y-7577500D01*
X16260000Y-7650000D02*
X16300000Y-7690000D01*
X16300000Y-7650000D02*
X16260000Y-7690000D01*
X16294000Y-11000000D02*
X16334000Y-11040000D01*
X16334000Y-11000000D02*
X16294000Y-11040000D01*
X16297256Y-7233130D02*
X16337256Y-7273130D01*
X16337256Y-7233130D02*
X16297256Y-7273130D01*
X16320069Y-11257069D02*
X16360069Y-11297069D01*
X16360069Y-11257069D02*
X16320069Y-11297069D01*
X16380000Y-7337500D02*
X16420000Y-7377500D01*
X16420000Y-7337500D02*
X16380000Y-7377500D01*
X16457256Y-7170000D02*
X16497256Y-7210000D01*
X16497256Y-7170000D02*
X16457256Y-7210000D01*
X16470000Y-8185000D02*
X16510000Y-8225000D01*
X16510000Y-8185000D02*
X16470000Y-8225000D01*
X16481000Y-10659000D02*
X16521000Y-10699000D01*
X16521000Y-10659000D02*
X16481000Y-10699000D01*
X16486000Y-11475000D02*
X16526000Y-11515000D01*
X16526000Y-11475000D02*
X16486000Y-11515000D01*
X16560000Y-9257500D02*
X16600000Y-9297500D01*
X16600000Y-9257500D02*
X16560000Y-9297500D01*
X16579000Y-6487000D02*
X16619000Y-6527000D01*
X16619000Y-6487000D02*
X16579000Y-6527000D01*
X16582550Y-11389000D02*
X16622550Y-11429000D01*
X16622550Y-11389000D02*
X16582550Y-11429000D01*
X16635000Y-8859000D02*
X16675000Y-8899000D01*
X16675000Y-8859000D02*
X16635000Y-8899000D01*
X16636000Y-8146000D02*
X16676000Y-8186000D01*
X16676000Y-8146000D02*
X16636000Y-8186000D01*
X16637550Y-10870090D02*
X16677550Y-10910090D01*
X16677550Y-10870090D02*
X16637550Y-10910090D01*
X16654000Y-6901000D02*
X16694000Y-6941000D01*
X16694000Y-6901000D02*
X16654000Y-6941000D01*
X16688000Y-9736000D02*
X16728000Y-9776000D01*
X16728000Y-9736000D02*
X16688000Y-9776000D01*
X16727869Y-7657131D02*
X16767869Y-7697131D01*
X16767869Y-7657131D02*
X16727869Y-7697131D01*
X16777530Y-8242000D02*
X16817530Y-8282000D01*
X16817530Y-8242000D02*
X16777530Y-8282000D01*
X16790000Y-8972500D02*
X16830000Y-9012500D01*
X16830000Y-8972500D02*
X16790000Y-9012500D01*
X16797500Y-8567500D02*
X16837500Y-8607500D01*
X16837500Y-8567500D02*
X16797500Y-8607500D01*
X16809000Y-10943000D02*
X16849000Y-10983000D01*
X16849000Y-10943000D02*
X16809000Y-10983000D01*
X16823000Y-7421000D02*
X16863000Y-7461000D01*
X16863000Y-7421000D02*
X16823000Y-7461000D01*
X16984000Y-8127000D02*
X17024000Y-8167000D01*
X17024000Y-8127000D02*
X16984000Y-8167000D01*
X16997000Y-9775000D02*
X17037000Y-9815000D01*
X17037000Y-9775000D02*
X16997000Y-9815000D01*
X17097000Y-11391000D02*
X17137000Y-11431000D01*
X17137000Y-11391000D02*
X17097000Y-11431000D01*
X17110000Y-6420000D02*
X17150000Y-6460000D01*
X17150000Y-6420000D02*
X17110000Y-6460000D01*
X17141000Y-11284000D02*
X17181000Y-11324000D01*
X17181000Y-11284000D02*
X17141000Y-11324000D01*
X17198750Y-8988750D02*
X17238750Y-9028750D01*
X17238750Y-8988750D02*
X17198750Y-9028750D01*
X17230000Y-10940000D02*
X17270000Y-10980000D01*
X17270000Y-10940000D02*
X17230000Y-10980000D01*
X17235000Y-8303000D02*
X17275000Y-8343000D01*
X17275000Y-8303000D02*
X17235000Y-8343000D01*
X17310000Y-7200000D02*
X17350000Y-7240000D01*
X17350000Y-7200000D02*
X17310000Y-7240000D01*
X17601000Y-8276000D02*
X17641000Y-8316000D01*
X17641000Y-8276000D02*
X17601000Y-8316000D01*
X18161000Y-8144000D02*
X18201000Y-8184000D01*
X18201000Y-8144000D02*
X18161000Y-8184000D01*
D13*
X9236296Y-9596610D02*
G75*
G03*
X9236296Y-9596610I-30000J0D01*
G01*
X9366296Y-9096610D02*
G75*
G03*
X9366296Y-9096610I-30000J0D01*
G01*
X16425500Y-11635680D02*
G75*
G03*
X16425500Y-11635680I-30000J0D01*
G01*
D11*
X16365500Y-11580680D02*
X16365500Y-11690680D01*
X16365500Y-11690680D02*
G75*
G03*
X16425500Y-11690680I30000J0D01*
G01*
X16425500Y-11690680D02*
X16425500Y-11580680D01*
X16425500Y-11580680D02*
G75*
G03*
X16365500Y-11580680I-30000J0D01*
G01*
D13*
X16425500Y-12053680D02*
G75*
G03*
X16425500Y-12053680I-30000J0D01*
G01*
D11*
X16365500Y-12023680D02*
X16365500Y-12083680D01*
X16365500Y-12083680D02*
G75*
G03*
X16425500Y-12083680I30000J0D01*
G01*
X16425500Y-12083680D02*
X16425500Y-12023680D01*
X16425500Y-12023680D02*
G75*
G03*
X16365500Y-12023680I-30000J0D01*
G01*
D13*
X17289500Y-11635680D02*
G75*
G03*
X17289500Y-11635680I-30000J0D01*
G01*
D11*
X17229500Y-11580680D02*
X17229500Y-11690680D01*
X17229500Y-11690680D02*
G75*
G03*
X17289500Y-11690680I30000J0D01*
G01*
X17289500Y-11690680D02*
X17289500Y-11580680D01*
X17289500Y-11580680D02*
G75*
G03*
X17229500Y-11580680I-30000J0D01*
G01*
D13*
X17289500Y-12053680D02*
G75*
G03*
X17289500Y-12053680I-30000J0D01*
G01*
D11*
X17229500Y-12023680D02*
X17229500Y-12083680D01*
X17229500Y-12083680D02*
G75*
G03*
X17289500Y-12083680I30000J0D01*
G01*
X17289500Y-12083680D02*
X17289500Y-12023680D01*
X17289500Y-12023680D02*
G75*
G03*
X17229500Y-12023680I-30000J0D01*
G01*
D14*
X15983220Y-7860820D02*
X15983220Y-7925820D01*
X15950720Y-7893320D02*
X16015720Y-7893320D01*
X15983220Y-7987820D02*
X15983220Y-8052820D01*
X15950720Y-8020320D02*
X16015720Y-8020320D01*
X16110220Y-7860820D02*
X16110220Y-7925820D01*
X16077720Y-7893320D02*
X16142720Y-7893320D01*
X16110220Y-7987820D02*
X16110220Y-8052820D01*
X16077720Y-8020320D02*
X16142720Y-8020320D01*
X16237220Y-7860820D02*
X16237220Y-7925820D01*
X16204720Y-7893320D02*
X16269720Y-7893320D01*
X16237220Y-7987820D02*
X16237220Y-8052820D01*
X16204720Y-8020320D02*
X16269720Y-8020320D01*
X16364220Y-7860820D02*
X16364220Y-7925820D01*
X16331720Y-7893320D02*
X16396720Y-7893320D01*
X16364220Y-7987820D02*
X16364220Y-8052820D01*
X16331720Y-8020320D02*
X16396720Y-8020320D01*
X16491220Y-7860820D02*
X16491220Y-7925820D01*
X16458720Y-7893320D02*
X16523720Y-7893320D01*
X16491220Y-7987820D02*
X16491220Y-8052820D01*
X16458720Y-8020320D02*
X16523720Y-8020320D01*
D15*
X10571820Y-7478820D02*
X10571820Y-7415180D01*
X10508180Y-7415180D01*
X10508180Y-7478820D01*
X10571820Y-7478820D01*
X10571820Y-7986820D02*
X10571820Y-7923180D01*
X10508180Y-7923180D01*
X10508180Y-7986820D01*
X10571820Y-7986820D01*
D10*
X10086000Y-8930000D02*
X10136000Y-8880000D01*
X10086000Y-8830000D01*
X10036000Y-8880000D01*
X10086000Y-8930000D01*
X10086000Y-9930000D02*
X10136000Y-9880000D01*
X10086000Y-9830000D01*
X10036000Y-9880000D01*
X10086000Y-9930000D01*
X10837256Y-9430710D02*
X10887256Y-9380710D01*
X10837256Y-9330710D01*
X10787256Y-9380710D01*
X10837256Y-9430710D01*
X10837256Y-9930710D02*
X10887256Y-9880710D01*
X10837256Y-9830710D01*
X10787256Y-9880710D01*
X10837256Y-9930710D01*
X13777256Y-8910710D02*
X13827256Y-8860710D01*
X13777256Y-8810710D01*
X13727256Y-8860710D01*
X13777256Y-8910710D01*
X13777256Y-10450710D02*
X13827256Y-10400710D01*
X13777256Y-10350710D01*
X13727256Y-10400710D01*
X13777256Y-10450710D01*
X13777256Y-11093710D02*
X13827256Y-11043710D01*
X13777256Y-10993710D01*
X13727256Y-11043710D01*
X13777256Y-11093710D01*
X13777256Y-11593710D02*
X13827256Y-11543710D01*
X13777256Y-11493710D01*
X13727256Y-11543710D01*
X13777256Y-11593710D01*
X14320000Y-6468000D02*
X14370000Y-6418000D01*
X14320000Y-6368000D01*
X14270000Y-6418000D01*
X14320000Y-6468000D01*
X14320000Y-6722000D02*
X14370000Y-6672000D01*
X14320000Y-6622000D01*
X14270000Y-6672000D01*
X14320000Y-6722000D01*
X14320000Y-6976000D02*
X14370000Y-6926000D01*
X14320000Y-6876000D01*
X14270000Y-6926000D01*
X14320000Y-6976000D01*
X14320000Y-7230000D02*
X14370000Y-7180000D01*
X14320000Y-7130000D01*
X14270000Y-7180000D01*
X14320000Y-7230000D01*
X14320000Y-7484000D02*
X14370000Y-7434000D01*
X14320000Y-7384000D01*
X14270000Y-7434000D01*
X14320000Y-7484000D01*
X14320000Y-7738000D02*
X14370000Y-7688000D01*
X14320000Y-7638000D01*
X14270000Y-7688000D01*
X14320000Y-7738000D01*
X14320000Y-8130000D02*
X14370000Y-8080000D01*
X14320000Y-8030000D01*
X14270000Y-8080000D01*
X14320000Y-8130000D01*
X14320000Y-8384000D02*
X14370000Y-8334000D01*
X14320000Y-8284000D01*
X14270000Y-8334000D01*
X14320000Y-8384000D01*
X14320000Y-8638000D02*
X14370000Y-8588000D01*
X14320000Y-8538000D01*
X14270000Y-8588000D01*
X14320000Y-8638000D01*
X14320000Y-8892000D02*
X14370000Y-8842000D01*
X14320000Y-8792000D01*
X14270000Y-8842000D01*
X14320000Y-8892000D01*
X14525000Y-9493000D02*
X14575000Y-9443000D01*
X14525000Y-9393000D01*
X14475000Y-9443000D01*
X14525000Y-9493000D01*
X15245256Y-9053710D02*
X15295256Y-9003710D01*
X15245256Y-8953710D01*
X15195256Y-9003710D01*
X15245256Y-9053710D01*
X16461000Y-10296000D02*
X16511000Y-10246000D01*
X16461000Y-10196000D01*
X16411000Y-10246000D01*
X16461000Y-10296000D01*
X16469360Y-9780740D02*
X16519360Y-9730740D01*
X16469360Y-9680740D01*
X16419360Y-9730740D01*
X16469360Y-9780740D01*
X17620000Y-6488000D02*
X17670000Y-6438000D01*
X17620000Y-6388000D01*
X17570000Y-6438000D01*
X17620000Y-6488000D01*
X17620000Y-6742000D02*
X17670000Y-6692000D01*
X17620000Y-6642000D01*
X17570000Y-6692000D01*
X17620000Y-6742000D01*
X17620000Y-6996000D02*
X17670000Y-6946000D01*
X17620000Y-6896000D01*
X17570000Y-6946000D01*
X17620000Y-6996000D01*
X17620000Y-7250000D02*
X17670000Y-7200000D01*
X17620000Y-7150000D01*
X17570000Y-7200000D01*
X17620000Y-7250000D01*
X17620000Y-7653500D02*
X17670000Y-7603500D01*
X17620000Y-7553500D01*
X17570000Y-7603500D01*
X17620000Y-7653500D01*
X17620000Y-7907500D02*
X17670000Y-7857500D01*
X17620000Y-7807500D01*
X17570000Y-7857500D01*
X17620000Y-7907500D01*
D16*
X18543000Y-8668500D02*
X18653000Y-8778500D01*
X18653000Y-8668500D02*
X18543000Y-8778500D01*
X18653000Y-8723500D02*
G75*
G03*
X18653000Y-8723500I-55000J0D01*
G01*
X18543000Y-9318500D02*
X18653000Y-9428500D01*
X18653000Y-9318500D02*
X18543000Y-9428500D01*
X18653000Y-9373500D02*
G75*
G03*
X18653000Y-9373500I-55000J0D01*
G01*
X18555500Y-7191000D02*
X18665500Y-7301000D01*
X18665500Y-7191000D02*
X18555500Y-7301000D01*
X18665500Y-7246000D02*
G75*
G03*
X18665500Y-7246000I-55000J0D01*
G01*
X18555500Y-7841000D02*
X18665500Y-7951000D01*
X18665500Y-7841000D02*
X18555500Y-7951000D01*
X18665500Y-7896000D02*
G75*
G03*
X18665500Y-7896000I-55000J0D01*
G01*
X18993000Y-8668500D02*
X19103000Y-8778500D01*
X19103000Y-8668500D02*
X18993000Y-8778500D01*
X19103000Y-8723500D02*
G75*
G03*
X19103000Y-8723500I-55000J0D01*
G01*
X18993000Y-9318500D02*
X19103000Y-9428500D01*
X19103000Y-9318500D02*
X18993000Y-9428500D01*
X19103000Y-9373500D02*
G75*
G03*
X19103000Y-9373500I-55000J0D01*
G01*
X19005500Y-7191000D02*
X19115500Y-7301000D01*
X19115500Y-7191000D02*
X19005500Y-7301000D01*
X19115500Y-7246000D02*
G75*
G03*
X19115500Y-7246000I-55000J0D01*
G01*
X19005500Y-7841000D02*
X19115500Y-7951000D01*
X19115500Y-7841000D02*
X19005500Y-7951000D01*
X19115500Y-7896000D02*
G75*
G03*
X19115500Y-7896000I-55000J0D01*
G01*
D17*
X9164000Y-10376500D02*
X9294000Y-10506500D01*
X9294000Y-10376500D02*
X9164000Y-10506500D01*
X9229000Y-10376500D02*
X9229000Y-10506500D01*
X9164000Y-10441500D02*
X9294000Y-10441500D01*
X9164000Y-10884500D02*
X9294000Y-11014500D01*
X9294000Y-10884500D02*
X9164000Y-11014500D01*
X9229000Y-10884500D02*
X9229000Y-11014500D01*
X9164000Y-10949500D02*
X9294000Y-10949500D01*
X9175816Y-7638230D02*
X9305816Y-7768230D01*
X9305816Y-7638230D02*
X9175816Y-7768230D01*
X9240816Y-7638230D02*
X9240816Y-7768230D01*
X9175816Y-7703230D02*
X9305816Y-7703230D01*
X9175816Y-8146230D02*
X9305816Y-8276230D01*
X9305816Y-8146230D02*
X9175816Y-8276230D01*
X9240816Y-8146230D02*
X9240816Y-8276230D01*
X9175816Y-8211230D02*
X9305816Y-8211230D01*
D18*
X8890000Y-5990000D02*
X9210000Y-6310000D01*
X9210000Y-5990000D02*
X8890000Y-6310000D01*
X9163138Y-6263138D02*
X9163138Y-6036862D01*
X8936862Y-6036862D01*
X8936862Y-6263138D01*
X9163138Y-6263138D01*
X8890000Y-11540000D02*
X9210000Y-11860000D01*
X9210000Y-11540000D02*
X8890000Y-11860000D01*
X9163138Y-11813138D02*
X9163138Y-11586862D01*
X8936862Y-11586862D01*
X8936862Y-11813138D01*
X9163138Y-11813138D01*
X18540000Y-5990000D02*
X18860000Y-6310000D01*
X18860000Y-5990000D02*
X18540000Y-6310000D01*
X18813138Y-6263138D02*
X18813138Y-6036862D01*
X18586862Y-6036862D01*
X18586862Y-6263138D01*
X18813138Y-6263138D01*
X18540000Y-11540000D02*
X18860000Y-11860000D01*
X18860000Y-11540000D02*
X18540000Y-11860000D01*
X18813138Y-11813138D02*
X18813138Y-11586862D01*
X18586862Y-11586862D01*
X18586862Y-11813138D01*
X18813138Y-11813138D01*
D11*
X8748869Y-12548476D02*
X8748869Y-12348476D01*
X8748869Y-12348476D02*
X8796488Y-12348476D01*
X8796488Y-12348476D02*
X8825060Y-12358000D01*
X8825060Y-12358000D02*
X8844107Y-12377048D01*
X8844107Y-12377048D02*
X8853631Y-12396095D01*
X8853631Y-12396095D02*
X8863155Y-12434190D01*
X8863155Y-12434190D02*
X8863155Y-12462762D01*
X8863155Y-12462762D02*
X8853631Y-12500857D01*
X8853631Y-12500857D02*
X8844107Y-12519905D01*
X8844107Y-12519905D02*
X8825060Y-12538952D01*
X8825060Y-12538952D02*
X8796488Y-12548476D01*
X8796488Y-12548476D02*
X8748869Y-12548476D01*
X8948869Y-12548476D02*
X8948869Y-12415143D01*
X8948869Y-12453238D02*
X8958393Y-12434190D01*
X8958393Y-12434190D02*
X8967917Y-12424667D01*
X8967917Y-12424667D02*
X8986964Y-12415143D01*
X8986964Y-12415143D02*
X9006012Y-12415143D01*
X9072679Y-12548476D02*
X9072679Y-12415143D01*
X9072679Y-12348476D02*
X9063155Y-12358000D01*
X9063155Y-12358000D02*
X9072679Y-12367524D01*
X9072679Y-12367524D02*
X9082202Y-12358000D01*
X9082202Y-12358000D02*
X9072679Y-12348476D01*
X9072679Y-12348476D02*
X9072679Y-12367524D01*
X9196488Y-12548476D02*
X9177441Y-12538952D01*
X9177441Y-12538952D02*
X9167917Y-12519905D01*
X9167917Y-12519905D02*
X9167917Y-12348476D01*
X9301250Y-12548476D02*
X9282202Y-12538952D01*
X9282202Y-12538952D02*
X9272679Y-12519905D01*
X9272679Y-12519905D02*
X9272679Y-12348476D01*
X9497441Y-12548476D02*
X9497441Y-12348476D01*
X9497441Y-12348476D02*
X9564107Y-12491333D01*
X9564107Y-12491333D02*
X9630774Y-12348476D01*
X9630774Y-12348476D02*
X9630774Y-12548476D01*
X9811726Y-12548476D02*
X9811726Y-12443714D01*
X9811726Y-12443714D02*
X9802202Y-12424667D01*
X9802202Y-12424667D02*
X9783155Y-12415143D01*
X9783155Y-12415143D02*
X9745060Y-12415143D01*
X9745060Y-12415143D02*
X9726012Y-12424667D01*
X9811726Y-12538952D02*
X9792679Y-12548476D01*
X9792679Y-12548476D02*
X9745060Y-12548476D01*
X9745060Y-12548476D02*
X9726012Y-12538952D01*
X9726012Y-12538952D02*
X9716488Y-12519905D01*
X9716488Y-12519905D02*
X9716488Y-12500857D01*
X9716488Y-12500857D02*
X9726012Y-12481809D01*
X9726012Y-12481809D02*
X9745060Y-12472286D01*
X9745060Y-12472286D02*
X9792679Y-12472286D01*
X9792679Y-12472286D02*
X9811726Y-12462762D01*
X9906964Y-12415143D02*
X9906964Y-12615143D01*
X9906964Y-12424667D02*
X9926012Y-12415143D01*
X9926012Y-12415143D02*
X9964107Y-12415143D01*
X9964107Y-12415143D02*
X9983155Y-12424667D01*
X9983155Y-12424667D02*
X9992679Y-12434190D01*
X9992679Y-12434190D02*
X10002202Y-12453238D01*
X10002202Y-12453238D02*
X10002202Y-12510381D01*
X10002202Y-12510381D02*
X9992679Y-12529428D01*
X9992679Y-12529428D02*
X9983155Y-12538952D01*
X9983155Y-12538952D02*
X9964107Y-12548476D01*
X9964107Y-12548476D02*
X9926012Y-12548476D01*
X9926012Y-12548476D02*
X9906964Y-12538952D01*
X10087917Y-12529428D02*
X10097441Y-12538952D01*
X10097441Y-12538952D02*
X10087917Y-12548476D01*
X10087917Y-12548476D02*
X10078393Y-12538952D01*
X10078393Y-12538952D02*
X10087917Y-12529428D01*
X10087917Y-12529428D02*
X10087917Y-12548476D01*
X10087917Y-12424667D02*
X10097441Y-12434190D01*
X10097441Y-12434190D02*
X10087917Y-12443714D01*
X10087917Y-12443714D02*
X10078393Y-12434190D01*
X10078393Y-12434190D02*
X10087917Y-12424667D01*
X10087917Y-12424667D02*
X10087917Y-12443714D01*
D12*
X8461250Y-12875000D02*
X8501250Y-12915000D01*
X8501250Y-12875000D02*
X8461250Y-12915000D01*
D11*
X8786964Y-12768476D02*
X8806012Y-12768476D01*
X8806012Y-12768476D02*
X8825060Y-12778000D01*
X8825060Y-12778000D02*
X8834583Y-12787524D01*
X8834583Y-12787524D02*
X8844107Y-12806571D01*
X8844107Y-12806571D02*
X8853631Y-12844667D01*
X8853631Y-12844667D02*
X8853631Y-12892286D01*
X8853631Y-12892286D02*
X8844107Y-12930381D01*
X8844107Y-12930381D02*
X8834583Y-12949428D01*
X8834583Y-12949428D02*
X8825060Y-12958952D01*
X8825060Y-12958952D02*
X8806012Y-12968476D01*
X8806012Y-12968476D02*
X8786964Y-12968476D01*
X8786964Y-12968476D02*
X8767917Y-12958952D01*
X8767917Y-12958952D02*
X8758393Y-12949428D01*
X8758393Y-12949428D02*
X8748869Y-12930381D01*
X8748869Y-12930381D02*
X8739345Y-12892286D01*
X8739345Y-12892286D02*
X8739345Y-12844667D01*
X8739345Y-12844667D02*
X8748869Y-12806571D01*
X8748869Y-12806571D02*
X8758393Y-12787524D01*
X8758393Y-12787524D02*
X8767917Y-12778000D01*
X8767917Y-12778000D02*
X8786964Y-12768476D01*
X8939345Y-12949428D02*
X8948869Y-12958952D01*
X8948869Y-12958952D02*
X8939345Y-12968476D01*
X8939345Y-12968476D02*
X8929822Y-12958952D01*
X8929822Y-12958952D02*
X8939345Y-12949428D01*
X8939345Y-12949428D02*
X8939345Y-12968476D01*
X9120298Y-12835143D02*
X9120298Y-12968476D01*
X9072679Y-12758952D02*
X9025060Y-12901809D01*
X9025060Y-12901809D02*
X9148869Y-12901809D01*
X9263155Y-12768476D02*
X9282203Y-12768476D01*
X9282203Y-12768476D02*
X9301250Y-12778000D01*
X9301250Y-12778000D02*
X9310774Y-12787524D01*
X9310774Y-12787524D02*
X9320298Y-12806571D01*
X9320298Y-12806571D02*
X9329822Y-12844667D01*
X9329822Y-12844667D02*
X9329822Y-12892286D01*
X9329822Y-12892286D02*
X9320298Y-12930381D01*
X9320298Y-12930381D02*
X9310774Y-12949428D01*
X9310774Y-12949428D02*
X9301250Y-12958952D01*
X9301250Y-12958952D02*
X9282203Y-12968476D01*
X9282203Y-12968476D02*
X9263155Y-12968476D01*
X9263155Y-12968476D02*
X9244107Y-12958952D01*
X9244107Y-12958952D02*
X9234583Y-12949428D01*
X9234583Y-12949428D02*
X9225060Y-12930381D01*
X9225060Y-12930381D02*
X9215536Y-12892286D01*
X9215536Y-12892286D02*
X9215536Y-12844667D01*
X9215536Y-12844667D02*
X9225060Y-12806571D01*
X9225060Y-12806571D02*
X9234583Y-12787524D01*
X9234583Y-12787524D02*
X9244107Y-12778000D01*
X9244107Y-12778000D02*
X9263155Y-12768476D01*
X9453631Y-12768476D02*
X9472679Y-12768476D01*
X9472679Y-12768476D02*
X9491726Y-12778000D01*
X9491726Y-12778000D02*
X9501250Y-12787524D01*
X9501250Y-12787524D02*
X9510774Y-12806571D01*
X9510774Y-12806571D02*
X9520298Y-12844667D01*
X9520298Y-12844667D02*
X9520298Y-12892286D01*
X9520298Y-12892286D02*
X9510774Y-12930381D01*
X9510774Y-12930381D02*
X9501250Y-12949428D01*
X9501250Y-12949428D02*
X9491726Y-12958952D01*
X9491726Y-12958952D02*
X9472679Y-12968476D01*
X9472679Y-12968476D02*
X9453631Y-12968476D01*
X9453631Y-12968476D02*
X9434583Y-12958952D01*
X9434583Y-12958952D02*
X9425060Y-12949428D01*
X9425060Y-12949428D02*
X9415536Y-12930381D01*
X9415536Y-12930381D02*
X9406012Y-12892286D01*
X9406012Y-12892286D02*
X9406012Y-12844667D01*
X9406012Y-12844667D02*
X9415536Y-12806571D01*
X9415536Y-12806571D02*
X9425060Y-12787524D01*
X9425060Y-12787524D02*
X9434583Y-12778000D01*
X9434583Y-12778000D02*
X9453631Y-12768476D01*
X9606012Y-12968476D02*
X9606012Y-12835143D01*
X9606012Y-12854190D02*
X9615536Y-12844667D01*
X9615536Y-12844667D02*
X9634583Y-12835143D01*
X9634583Y-12835143D02*
X9663155Y-12835143D01*
X9663155Y-12835143D02*
X9682203Y-12844667D01*
X9682203Y-12844667D02*
X9691726Y-12863714D01*
X9691726Y-12863714D02*
X9691726Y-12968476D01*
X9691726Y-12863714D02*
X9701250Y-12844667D01*
X9701250Y-12844667D02*
X9720298Y-12835143D01*
X9720298Y-12835143D02*
X9748869Y-12835143D01*
X9748869Y-12835143D02*
X9767917Y-12844667D01*
X9767917Y-12844667D02*
X9777441Y-12863714D01*
X9777441Y-12863714D02*
X9777441Y-12968476D01*
X9872679Y-12968476D02*
X9872679Y-12835143D01*
X9872679Y-12854190D02*
X9882203Y-12844667D01*
X9882203Y-12844667D02*
X9901250Y-12835143D01*
X9901250Y-12835143D02*
X9929822Y-12835143D01*
X9929822Y-12835143D02*
X9948869Y-12844667D01*
X9948869Y-12844667D02*
X9958393Y-12863714D01*
X9958393Y-12863714D02*
X9958393Y-12968476D01*
X9958393Y-12863714D02*
X9967917Y-12844667D01*
X9967917Y-12844667D02*
X9986964Y-12835143D01*
X9986964Y-12835143D02*
X10015536Y-12835143D01*
X10015536Y-12835143D02*
X10034584Y-12844667D01*
X10034584Y-12844667D02*
X10044107Y-12863714D01*
X10044107Y-12863714D02*
X10044107Y-12968476D01*
X10402203Y-12758952D02*
X10230774Y-13016095D01*
X10626964Y-12768476D02*
X10646012Y-12768476D01*
X10646012Y-12768476D02*
X10665060Y-12778000D01*
X10665060Y-12778000D02*
X10674584Y-12787524D01*
X10674584Y-12787524D02*
X10684107Y-12806571D01*
X10684107Y-12806571D02*
X10693631Y-12844667D01*
X10693631Y-12844667D02*
X10693631Y-12892286D01*
X10693631Y-12892286D02*
X10684107Y-12930381D01*
X10684107Y-12930381D02*
X10674584Y-12949428D01*
X10674584Y-12949428D02*
X10665060Y-12958952D01*
X10665060Y-12958952D02*
X10646012Y-12968476D01*
X10646012Y-12968476D02*
X10626964Y-12968476D01*
X10626964Y-12968476D02*
X10607917Y-12958952D01*
X10607917Y-12958952D02*
X10598393Y-12949428D01*
X10598393Y-12949428D02*
X10588869Y-12930381D01*
X10588869Y-12930381D02*
X10579345Y-12892286D01*
X10579345Y-12892286D02*
X10579345Y-12844667D01*
X10579345Y-12844667D02*
X10588869Y-12806571D01*
X10588869Y-12806571D02*
X10598393Y-12787524D01*
X10598393Y-12787524D02*
X10607917Y-12778000D01*
X10607917Y-12778000D02*
X10626964Y-12768476D01*
X10779345Y-12949428D02*
X10788869Y-12958952D01*
X10788869Y-12958952D02*
X10779345Y-12968476D01*
X10779345Y-12968476D02*
X10769822Y-12958952D01*
X10769822Y-12958952D02*
X10779345Y-12949428D01*
X10779345Y-12949428D02*
X10779345Y-12968476D01*
X10912679Y-12768476D02*
X10931726Y-12768476D01*
X10931726Y-12768476D02*
X10950774Y-12778000D01*
X10950774Y-12778000D02*
X10960298Y-12787524D01*
X10960298Y-12787524D02*
X10969822Y-12806571D01*
X10969822Y-12806571D02*
X10979345Y-12844667D01*
X10979345Y-12844667D02*
X10979345Y-12892286D01*
X10979345Y-12892286D02*
X10969822Y-12930381D01*
X10969822Y-12930381D02*
X10960298Y-12949428D01*
X10960298Y-12949428D02*
X10950774Y-12958952D01*
X10950774Y-12958952D02*
X10931726Y-12968476D01*
X10931726Y-12968476D02*
X10912679Y-12968476D01*
X10912679Y-12968476D02*
X10893631Y-12958952D01*
X10893631Y-12958952D02*
X10884107Y-12949428D01*
X10884107Y-12949428D02*
X10874584Y-12930381D01*
X10874584Y-12930381D02*
X10865060Y-12892286D01*
X10865060Y-12892286D02*
X10865060Y-12844667D01*
X10865060Y-12844667D02*
X10874584Y-12806571D01*
X10874584Y-12806571D02*
X10884107Y-12787524D01*
X10884107Y-12787524D02*
X10893631Y-12778000D01*
X10893631Y-12778000D02*
X10912679Y-12768476D01*
X11169822Y-12968476D02*
X11055536Y-12968476D01*
X11112679Y-12968476D02*
X11112679Y-12768476D01*
X11112679Y-12768476D02*
X11093631Y-12797048D01*
X11093631Y-12797048D02*
X11074584Y-12816095D01*
X11074584Y-12816095D02*
X11055536Y-12825619D01*
X11350774Y-12768476D02*
X11255536Y-12768476D01*
X11255536Y-12768476D02*
X11246012Y-12863714D01*
X11246012Y-12863714D02*
X11255536Y-12854190D01*
X11255536Y-12854190D02*
X11274583Y-12844667D01*
X11274583Y-12844667D02*
X11322203Y-12844667D01*
X11322203Y-12844667D02*
X11341250Y-12854190D01*
X11341250Y-12854190D02*
X11350774Y-12863714D01*
X11350774Y-12863714D02*
X11360298Y-12882762D01*
X11360298Y-12882762D02*
X11360298Y-12930381D01*
X11360298Y-12930381D02*
X11350774Y-12949428D01*
X11350774Y-12949428D02*
X11341250Y-12958952D01*
X11341250Y-12958952D02*
X11322203Y-12968476D01*
X11322203Y-12968476D02*
X11274583Y-12968476D01*
X11274583Y-12968476D02*
X11255536Y-12958952D01*
X11255536Y-12958952D02*
X11246012Y-12949428D01*
X11426964Y-12768476D02*
X11560298Y-12768476D01*
X11560298Y-12768476D02*
X11474583Y-12968476D01*
X11626964Y-12768476D02*
X11626964Y-12806571D01*
X11703155Y-12768476D02*
X11703155Y-12806571D01*
X11966012Y-13044667D02*
X11956488Y-13035143D01*
X11956488Y-13035143D02*
X11937441Y-13006571D01*
X11937441Y-13006571D02*
X11927917Y-12987524D01*
X11927917Y-12987524D02*
X11918393Y-12958952D01*
X11918393Y-12958952D02*
X11908869Y-12911333D01*
X11908869Y-12911333D02*
X11908869Y-12873238D01*
X11908869Y-12873238D02*
X11918393Y-12825619D01*
X11918393Y-12825619D02*
X11927917Y-12797048D01*
X11927917Y-12797048D02*
X11937441Y-12778000D01*
X11937441Y-12778000D02*
X11956488Y-12749428D01*
X11956488Y-12749428D02*
X11966012Y-12739905D01*
X12070774Y-12854190D02*
X12051726Y-12844667D01*
X12051726Y-12844667D02*
X12042203Y-12835143D01*
X12042203Y-12835143D02*
X12032679Y-12816095D01*
X12032679Y-12816095D02*
X12032679Y-12806571D01*
X12032679Y-12806571D02*
X12042203Y-12787524D01*
X12042203Y-12787524D02*
X12051726Y-12778000D01*
X12051726Y-12778000D02*
X12070774Y-12768476D01*
X12070774Y-12768476D02*
X12108869Y-12768476D01*
X12108869Y-12768476D02*
X12127917Y-12778000D01*
X12127917Y-12778000D02*
X12137441Y-12787524D01*
X12137441Y-12787524D02*
X12146964Y-12806571D01*
X12146964Y-12806571D02*
X12146964Y-12816095D01*
X12146964Y-12816095D02*
X12137441Y-12835143D01*
X12137441Y-12835143D02*
X12127917Y-12844667D01*
X12127917Y-12844667D02*
X12108869Y-12854190D01*
X12108869Y-12854190D02*
X12070774Y-12854190D01*
X12070774Y-12854190D02*
X12051726Y-12863714D01*
X12051726Y-12863714D02*
X12042203Y-12873238D01*
X12042203Y-12873238D02*
X12032679Y-12892286D01*
X12032679Y-12892286D02*
X12032679Y-12930381D01*
X12032679Y-12930381D02*
X12042203Y-12949428D01*
X12042203Y-12949428D02*
X12051726Y-12958952D01*
X12051726Y-12958952D02*
X12070774Y-12968476D01*
X12070774Y-12968476D02*
X12108869Y-12968476D01*
X12108869Y-12968476D02*
X12127917Y-12958952D01*
X12127917Y-12958952D02*
X12137441Y-12949428D01*
X12137441Y-12949428D02*
X12146964Y-12930381D01*
X12146964Y-12930381D02*
X12146964Y-12892286D01*
X12146964Y-12892286D02*
X12137441Y-12873238D01*
X12137441Y-12873238D02*
X12127917Y-12863714D01*
X12127917Y-12863714D02*
X12108869Y-12854190D01*
X12261250Y-12854190D02*
X12242203Y-12844667D01*
X12242203Y-12844667D02*
X12232679Y-12835143D01*
X12232679Y-12835143D02*
X12223155Y-12816095D01*
X12223155Y-12816095D02*
X12223155Y-12806571D01*
X12223155Y-12806571D02*
X12232679Y-12787524D01*
X12232679Y-12787524D02*
X12242203Y-12778000D01*
X12242203Y-12778000D02*
X12261250Y-12768476D01*
X12261250Y-12768476D02*
X12299345Y-12768476D01*
X12299345Y-12768476D02*
X12318393Y-12778000D01*
X12318393Y-12778000D02*
X12327917Y-12787524D01*
X12327917Y-12787524D02*
X12337441Y-12806571D01*
X12337441Y-12806571D02*
X12337441Y-12816095D01*
X12337441Y-12816095D02*
X12327917Y-12835143D01*
X12327917Y-12835143D02*
X12318393Y-12844667D01*
X12318393Y-12844667D02*
X12299345Y-12854190D01*
X12299345Y-12854190D02*
X12261250Y-12854190D01*
X12261250Y-12854190D02*
X12242203Y-12863714D01*
X12242203Y-12863714D02*
X12232679Y-12873238D01*
X12232679Y-12873238D02*
X12223155Y-12892286D01*
X12223155Y-12892286D02*
X12223155Y-12930381D01*
X12223155Y-12930381D02*
X12232679Y-12949428D01*
X12232679Y-12949428D02*
X12242203Y-12958952D01*
X12242203Y-12958952D02*
X12261250Y-12968476D01*
X12261250Y-12968476D02*
X12299345Y-12968476D01*
X12299345Y-12968476D02*
X12318393Y-12958952D01*
X12318393Y-12958952D02*
X12327917Y-12949428D01*
X12327917Y-12949428D02*
X12337441Y-12930381D01*
X12337441Y-12930381D02*
X12337441Y-12892286D01*
X12337441Y-12892286D02*
X12327917Y-12873238D01*
X12327917Y-12873238D02*
X12318393Y-12863714D01*
X12318393Y-12863714D02*
X12299345Y-12854190D01*
X12543155Y-12968476D02*
X12543155Y-12768476D01*
X12628869Y-12968476D02*
X12628869Y-12863714D01*
X12628869Y-12863714D02*
X12619345Y-12844667D01*
X12619345Y-12844667D02*
X12600298Y-12835143D01*
X12600298Y-12835143D02*
X12571726Y-12835143D01*
X12571726Y-12835143D02*
X12552679Y-12844667D01*
X12552679Y-12844667D02*
X12543155Y-12854190D01*
X12752679Y-12968476D02*
X12733631Y-12958952D01*
X12733631Y-12958952D02*
X12724107Y-12949428D01*
X12724107Y-12949428D02*
X12714584Y-12930381D01*
X12714584Y-12930381D02*
X12714584Y-12873238D01*
X12714584Y-12873238D02*
X12724107Y-12854190D01*
X12724107Y-12854190D02*
X12733631Y-12844667D01*
X12733631Y-12844667D02*
X12752679Y-12835143D01*
X12752679Y-12835143D02*
X12781250Y-12835143D01*
X12781250Y-12835143D02*
X12800298Y-12844667D01*
X12800298Y-12844667D02*
X12809822Y-12854190D01*
X12809822Y-12854190D02*
X12819345Y-12873238D01*
X12819345Y-12873238D02*
X12819345Y-12930381D01*
X12819345Y-12930381D02*
X12809822Y-12949428D01*
X12809822Y-12949428D02*
X12800298Y-12958952D01*
X12800298Y-12958952D02*
X12781250Y-12968476D01*
X12781250Y-12968476D02*
X12752679Y-12968476D01*
X12933631Y-12968476D02*
X12914584Y-12958952D01*
X12914584Y-12958952D02*
X12905060Y-12939905D01*
X12905060Y-12939905D02*
X12905060Y-12768476D01*
X13086012Y-12958952D02*
X13066965Y-12968476D01*
X13066965Y-12968476D02*
X13028869Y-12968476D01*
X13028869Y-12968476D02*
X13009822Y-12958952D01*
X13009822Y-12958952D02*
X13000298Y-12939905D01*
X13000298Y-12939905D02*
X13000298Y-12863714D01*
X13000298Y-12863714D02*
X13009822Y-12844667D01*
X13009822Y-12844667D02*
X13028869Y-12835143D01*
X13028869Y-12835143D02*
X13066965Y-12835143D01*
X13066965Y-12835143D02*
X13086012Y-12844667D01*
X13086012Y-12844667D02*
X13095536Y-12863714D01*
X13095536Y-12863714D02*
X13095536Y-12882762D01*
X13095536Y-12882762D02*
X13000298Y-12901809D01*
X13171726Y-12958952D02*
X13190774Y-12968476D01*
X13190774Y-12968476D02*
X13228869Y-12968476D01*
X13228869Y-12968476D02*
X13247917Y-12958952D01*
X13247917Y-12958952D02*
X13257441Y-12939905D01*
X13257441Y-12939905D02*
X13257441Y-12930381D01*
X13257441Y-12930381D02*
X13247917Y-12911333D01*
X13247917Y-12911333D02*
X13228869Y-12901809D01*
X13228869Y-12901809D02*
X13200298Y-12901809D01*
X13200298Y-12901809D02*
X13181250Y-12892286D01*
X13181250Y-12892286D02*
X13171726Y-12873238D01*
X13171726Y-12873238D02*
X13171726Y-12863714D01*
X13171726Y-12863714D02*
X13181250Y-12844667D01*
X13181250Y-12844667D02*
X13200298Y-12835143D01*
X13200298Y-12835143D02*
X13228869Y-12835143D01*
X13228869Y-12835143D02*
X13247917Y-12844667D01*
X13324107Y-13044667D02*
X13333631Y-13035143D01*
X13333631Y-13035143D02*
X13352679Y-13006571D01*
X13352679Y-13006571D02*
X13362203Y-12987524D01*
X13362203Y-12987524D02*
X13371726Y-12958952D01*
X13371726Y-12958952D02*
X13381250Y-12911333D01*
X13381250Y-12911333D02*
X13381250Y-12873238D01*
X13381250Y-12873238D02*
X13371726Y-12825619D01*
X13371726Y-12825619D02*
X13362203Y-12797048D01*
X13362203Y-12797048D02*
X13352679Y-12778000D01*
X13352679Y-12778000D02*
X13333631Y-12749428D01*
X13333631Y-12749428D02*
X13324107Y-12739905D01*
D13*
X8501250Y-13159000D02*
G75*
G03*
X8501250Y-13159000I-30000J0D01*
G01*
D11*
X8786964Y-13032476D02*
X8806012Y-13032476D01*
X8806012Y-13032476D02*
X8825060Y-13042000D01*
X8825060Y-13042000D02*
X8834583Y-13051524D01*
X8834583Y-13051524D02*
X8844107Y-13070571D01*
X8844107Y-13070571D02*
X8853631Y-13108667D01*
X8853631Y-13108667D02*
X8853631Y-13156286D01*
X8853631Y-13156286D02*
X8844107Y-13194381D01*
X8844107Y-13194381D02*
X8834583Y-13213428D01*
X8834583Y-13213428D02*
X8825060Y-13222952D01*
X8825060Y-13222952D02*
X8806012Y-13232476D01*
X8806012Y-13232476D02*
X8786964Y-13232476D01*
X8786964Y-13232476D02*
X8767917Y-13222952D01*
X8767917Y-13222952D02*
X8758393Y-13213428D01*
X8758393Y-13213428D02*
X8748869Y-13194381D01*
X8748869Y-13194381D02*
X8739345Y-13156286D01*
X8739345Y-13156286D02*
X8739345Y-13108667D01*
X8739345Y-13108667D02*
X8748869Y-13070571D01*
X8748869Y-13070571D02*
X8758393Y-13051524D01*
X8758393Y-13051524D02*
X8767917Y-13042000D01*
X8767917Y-13042000D02*
X8786964Y-13032476D01*
X8939345Y-13213428D02*
X8948869Y-13222952D01*
X8948869Y-13222952D02*
X8939345Y-13232476D01*
X8939345Y-13232476D02*
X8929822Y-13222952D01*
X8929822Y-13222952D02*
X8939345Y-13213428D01*
X8939345Y-13213428D02*
X8939345Y-13232476D01*
X9120298Y-13032476D02*
X9082202Y-13032476D01*
X9082202Y-13032476D02*
X9063155Y-13042000D01*
X9063155Y-13042000D02*
X9053631Y-13051524D01*
X9053631Y-13051524D02*
X9034583Y-13080095D01*
X9034583Y-13080095D02*
X9025060Y-13118190D01*
X9025060Y-13118190D02*
X9025060Y-13194381D01*
X9025060Y-13194381D02*
X9034583Y-13213428D01*
X9034583Y-13213428D02*
X9044107Y-13222952D01*
X9044107Y-13222952D02*
X9063155Y-13232476D01*
X9063155Y-13232476D02*
X9101250Y-13232476D01*
X9101250Y-13232476D02*
X9120298Y-13222952D01*
X9120298Y-13222952D02*
X9129822Y-13213428D01*
X9129822Y-13213428D02*
X9139345Y-13194381D01*
X9139345Y-13194381D02*
X9139345Y-13146762D01*
X9139345Y-13146762D02*
X9129822Y-13127714D01*
X9129822Y-13127714D02*
X9120298Y-13118190D01*
X9120298Y-13118190D02*
X9101250Y-13108667D01*
X9101250Y-13108667D02*
X9063155Y-13108667D01*
X9063155Y-13108667D02*
X9044107Y-13118190D01*
X9044107Y-13118190D02*
X9034583Y-13127714D01*
X9034583Y-13127714D02*
X9025060Y-13146762D01*
X9263155Y-13032476D02*
X9282203Y-13032476D01*
X9282203Y-13032476D02*
X9301250Y-13042000D01*
X9301250Y-13042000D02*
X9310774Y-13051524D01*
X9310774Y-13051524D02*
X9320298Y-13070571D01*
X9320298Y-13070571D02*
X9329822Y-13108667D01*
X9329822Y-13108667D02*
X9329822Y-13156286D01*
X9329822Y-13156286D02*
X9320298Y-13194381D01*
X9320298Y-13194381D02*
X9310774Y-13213428D01*
X9310774Y-13213428D02*
X9301250Y-13222952D01*
X9301250Y-13222952D02*
X9282203Y-13232476D01*
X9282203Y-13232476D02*
X9263155Y-13232476D01*
X9263155Y-13232476D02*
X9244107Y-13222952D01*
X9244107Y-13222952D02*
X9234583Y-13213428D01*
X9234583Y-13213428D02*
X9225060Y-13194381D01*
X9225060Y-13194381D02*
X9215536Y-13156286D01*
X9215536Y-13156286D02*
X9215536Y-13108667D01*
X9215536Y-13108667D02*
X9225060Y-13070571D01*
X9225060Y-13070571D02*
X9234583Y-13051524D01*
X9234583Y-13051524D02*
X9244107Y-13042000D01*
X9244107Y-13042000D02*
X9263155Y-13032476D01*
X9453631Y-13032476D02*
X9472679Y-13032476D01*
X9472679Y-13032476D02*
X9491726Y-13042000D01*
X9491726Y-13042000D02*
X9501250Y-13051524D01*
X9501250Y-13051524D02*
X9510774Y-13070571D01*
X9510774Y-13070571D02*
X9520298Y-13108667D01*
X9520298Y-13108667D02*
X9520298Y-13156286D01*
X9520298Y-13156286D02*
X9510774Y-13194381D01*
X9510774Y-13194381D02*
X9501250Y-13213428D01*
X9501250Y-13213428D02*
X9491726Y-13222952D01*
X9491726Y-13222952D02*
X9472679Y-13232476D01*
X9472679Y-13232476D02*
X9453631Y-13232476D01*
X9453631Y-13232476D02*
X9434583Y-13222952D01*
X9434583Y-13222952D02*
X9425060Y-13213428D01*
X9425060Y-13213428D02*
X9415536Y-13194381D01*
X9415536Y-13194381D02*
X9406012Y-13156286D01*
X9406012Y-13156286D02*
X9406012Y-13108667D01*
X9406012Y-13108667D02*
X9415536Y-13070571D01*
X9415536Y-13070571D02*
X9425060Y-13051524D01*
X9425060Y-13051524D02*
X9434583Y-13042000D01*
X9434583Y-13042000D02*
X9453631Y-13032476D01*
X9606012Y-13232476D02*
X9606012Y-13099143D01*
X9606012Y-13118190D02*
X9615536Y-13108667D01*
X9615536Y-13108667D02*
X9634583Y-13099143D01*
X9634583Y-13099143D02*
X9663155Y-13099143D01*
X9663155Y-13099143D02*
X9682203Y-13108667D01*
X9682203Y-13108667D02*
X9691726Y-13127714D01*
X9691726Y-13127714D02*
X9691726Y-13232476D01*
X9691726Y-13127714D02*
X9701250Y-13108667D01*
X9701250Y-13108667D02*
X9720298Y-13099143D01*
X9720298Y-13099143D02*
X9748869Y-13099143D01*
X9748869Y-13099143D02*
X9767917Y-13108667D01*
X9767917Y-13108667D02*
X9777441Y-13127714D01*
X9777441Y-13127714D02*
X9777441Y-13232476D01*
X9872679Y-13232476D02*
X9872679Y-13099143D01*
X9872679Y-13118190D02*
X9882203Y-13108667D01*
X9882203Y-13108667D02*
X9901250Y-13099143D01*
X9901250Y-13099143D02*
X9929822Y-13099143D01*
X9929822Y-13099143D02*
X9948869Y-13108667D01*
X9948869Y-13108667D02*
X9958393Y-13127714D01*
X9958393Y-13127714D02*
X9958393Y-13232476D01*
X9958393Y-13127714D02*
X9967917Y-13108667D01*
X9967917Y-13108667D02*
X9986964Y-13099143D01*
X9986964Y-13099143D02*
X10015536Y-13099143D01*
X10015536Y-13099143D02*
X10034584Y-13108667D01*
X10034584Y-13108667D02*
X10044107Y-13127714D01*
X10044107Y-13127714D02*
X10044107Y-13232476D01*
X10402203Y-13022952D02*
X10230774Y-13280095D01*
X10626964Y-13032476D02*
X10646012Y-13032476D01*
X10646012Y-13032476D02*
X10665060Y-13042000D01*
X10665060Y-13042000D02*
X10674584Y-13051524D01*
X10674584Y-13051524D02*
X10684107Y-13070571D01*
X10684107Y-13070571D02*
X10693631Y-13108667D01*
X10693631Y-13108667D02*
X10693631Y-13156286D01*
X10693631Y-13156286D02*
X10684107Y-13194381D01*
X10684107Y-13194381D02*
X10674584Y-13213428D01*
X10674584Y-13213428D02*
X10665060Y-13222952D01*
X10665060Y-13222952D02*
X10646012Y-13232476D01*
X10646012Y-13232476D02*
X10626964Y-13232476D01*
X10626964Y-13232476D02*
X10607917Y-13222952D01*
X10607917Y-13222952D02*
X10598393Y-13213428D01*
X10598393Y-13213428D02*
X10588869Y-13194381D01*
X10588869Y-13194381D02*
X10579345Y-13156286D01*
X10579345Y-13156286D02*
X10579345Y-13108667D01*
X10579345Y-13108667D02*
X10588869Y-13070571D01*
X10588869Y-13070571D02*
X10598393Y-13051524D01*
X10598393Y-13051524D02*
X10607917Y-13042000D01*
X10607917Y-13042000D02*
X10626964Y-13032476D01*
X10779345Y-13213428D02*
X10788869Y-13222952D01*
X10788869Y-13222952D02*
X10779345Y-13232476D01*
X10779345Y-13232476D02*
X10769822Y-13222952D01*
X10769822Y-13222952D02*
X10779345Y-13213428D01*
X10779345Y-13213428D02*
X10779345Y-13232476D01*
X10912679Y-13032476D02*
X10931726Y-13032476D01*
X10931726Y-13032476D02*
X10950774Y-13042000D01*
X10950774Y-13042000D02*
X10960298Y-13051524D01*
X10960298Y-13051524D02*
X10969822Y-13070571D01*
X10969822Y-13070571D02*
X10979345Y-13108667D01*
X10979345Y-13108667D02*
X10979345Y-13156286D01*
X10979345Y-13156286D02*
X10969822Y-13194381D01*
X10969822Y-13194381D02*
X10960298Y-13213428D01*
X10960298Y-13213428D02*
X10950774Y-13222952D01*
X10950774Y-13222952D02*
X10931726Y-13232476D01*
X10931726Y-13232476D02*
X10912679Y-13232476D01*
X10912679Y-13232476D02*
X10893631Y-13222952D01*
X10893631Y-13222952D02*
X10884107Y-13213428D01*
X10884107Y-13213428D02*
X10874584Y-13194381D01*
X10874584Y-13194381D02*
X10865060Y-13156286D01*
X10865060Y-13156286D02*
X10865060Y-13108667D01*
X10865060Y-13108667D02*
X10874584Y-13070571D01*
X10874584Y-13070571D02*
X10884107Y-13051524D01*
X10884107Y-13051524D02*
X10893631Y-13042000D01*
X10893631Y-13042000D02*
X10912679Y-13032476D01*
X11055536Y-13051524D02*
X11065060Y-13042000D01*
X11065060Y-13042000D02*
X11084107Y-13032476D01*
X11084107Y-13032476D02*
X11131726Y-13032476D01*
X11131726Y-13032476D02*
X11150774Y-13042000D01*
X11150774Y-13042000D02*
X11160298Y-13051524D01*
X11160298Y-13051524D02*
X11169822Y-13070571D01*
X11169822Y-13070571D02*
X11169822Y-13089619D01*
X11169822Y-13089619D02*
X11160298Y-13118190D01*
X11160298Y-13118190D02*
X11046012Y-13232476D01*
X11046012Y-13232476D02*
X11169822Y-13232476D01*
X11236488Y-13032476D02*
X11360298Y-13032476D01*
X11360298Y-13032476D02*
X11293631Y-13108667D01*
X11293631Y-13108667D02*
X11322203Y-13108667D01*
X11322203Y-13108667D02*
X11341250Y-13118190D01*
X11341250Y-13118190D02*
X11350774Y-13127714D01*
X11350774Y-13127714D02*
X11360298Y-13146762D01*
X11360298Y-13146762D02*
X11360298Y-13194381D01*
X11360298Y-13194381D02*
X11350774Y-13213428D01*
X11350774Y-13213428D02*
X11341250Y-13222952D01*
X11341250Y-13222952D02*
X11322203Y-13232476D01*
X11322203Y-13232476D02*
X11265060Y-13232476D01*
X11265060Y-13232476D02*
X11246012Y-13222952D01*
X11246012Y-13222952D02*
X11236488Y-13213428D01*
X11531726Y-13032476D02*
X11493631Y-13032476D01*
X11493631Y-13032476D02*
X11474583Y-13042000D01*
X11474583Y-13042000D02*
X11465060Y-13051524D01*
X11465060Y-13051524D02*
X11446012Y-13080095D01*
X11446012Y-13080095D02*
X11436488Y-13118190D01*
X11436488Y-13118190D02*
X11436488Y-13194381D01*
X11436488Y-13194381D02*
X11446012Y-13213428D01*
X11446012Y-13213428D02*
X11455536Y-13222952D01*
X11455536Y-13222952D02*
X11474583Y-13232476D01*
X11474583Y-13232476D02*
X11512679Y-13232476D01*
X11512679Y-13232476D02*
X11531726Y-13222952D01*
X11531726Y-13222952D02*
X11541250Y-13213428D01*
X11541250Y-13213428D02*
X11550774Y-13194381D01*
X11550774Y-13194381D02*
X11550774Y-13146762D01*
X11550774Y-13146762D02*
X11541250Y-13127714D01*
X11541250Y-13127714D02*
X11531726Y-13118190D01*
X11531726Y-13118190D02*
X11512679Y-13108667D01*
X11512679Y-13108667D02*
X11474583Y-13108667D01*
X11474583Y-13108667D02*
X11455536Y-13118190D01*
X11455536Y-13118190D02*
X11446012Y-13127714D01*
X11446012Y-13127714D02*
X11436488Y-13146762D01*
X11626964Y-13032476D02*
X11626964Y-13070571D01*
X11703155Y-13032476D02*
X11703155Y-13070571D01*
X11966012Y-13308667D02*
X11956488Y-13299143D01*
X11956488Y-13299143D02*
X11937441Y-13270571D01*
X11937441Y-13270571D02*
X11927917Y-13251524D01*
X11927917Y-13251524D02*
X11918393Y-13222952D01*
X11918393Y-13222952D02*
X11908869Y-13175333D01*
X11908869Y-13175333D02*
X11908869Y-13137238D01*
X11908869Y-13137238D02*
X11918393Y-13089619D01*
X11918393Y-13089619D02*
X11927917Y-13061048D01*
X11927917Y-13061048D02*
X11937441Y-13042000D01*
X11937441Y-13042000D02*
X11956488Y-13013428D01*
X11956488Y-13013428D02*
X11966012Y-13003905D01*
X12032679Y-13051524D02*
X12042203Y-13042000D01*
X12042203Y-13042000D02*
X12061250Y-13032476D01*
X12061250Y-13032476D02*
X12108869Y-13032476D01*
X12108869Y-13032476D02*
X12127917Y-13042000D01*
X12127917Y-13042000D02*
X12137441Y-13051524D01*
X12137441Y-13051524D02*
X12146964Y-13070571D01*
X12146964Y-13070571D02*
X12146964Y-13089619D01*
X12146964Y-13089619D02*
X12137441Y-13118190D01*
X12137441Y-13118190D02*
X12023155Y-13232476D01*
X12023155Y-13232476D02*
X12146964Y-13232476D01*
X12352679Y-13232476D02*
X12352679Y-13032476D01*
X12438393Y-13232476D02*
X12438393Y-13127714D01*
X12438393Y-13127714D02*
X12428869Y-13108667D01*
X12428869Y-13108667D02*
X12409822Y-13099143D01*
X12409822Y-13099143D02*
X12381250Y-13099143D01*
X12381250Y-13099143D02*
X12362203Y-13108667D01*
X12362203Y-13108667D02*
X12352679Y-13118190D01*
X12562203Y-13232476D02*
X12543155Y-13222952D01*
X12543155Y-13222952D02*
X12533631Y-13213428D01*
X12533631Y-13213428D02*
X12524107Y-13194381D01*
X12524107Y-13194381D02*
X12524107Y-13137238D01*
X12524107Y-13137238D02*
X12533631Y-13118190D01*
X12533631Y-13118190D02*
X12543155Y-13108667D01*
X12543155Y-13108667D02*
X12562203Y-13099143D01*
X12562203Y-13099143D02*
X12590774Y-13099143D01*
X12590774Y-13099143D02*
X12609822Y-13108667D01*
X12609822Y-13108667D02*
X12619345Y-13118190D01*
X12619345Y-13118190D02*
X12628869Y-13137238D01*
X12628869Y-13137238D02*
X12628869Y-13194381D01*
X12628869Y-13194381D02*
X12619345Y-13213428D01*
X12619345Y-13213428D02*
X12609822Y-13222952D01*
X12609822Y-13222952D02*
X12590774Y-13232476D01*
X12590774Y-13232476D02*
X12562203Y-13232476D01*
X12743155Y-13232476D02*
X12724107Y-13222952D01*
X12724107Y-13222952D02*
X12714584Y-13203905D01*
X12714584Y-13203905D02*
X12714584Y-13032476D01*
X12895536Y-13222952D02*
X12876488Y-13232476D01*
X12876488Y-13232476D02*
X12838393Y-13232476D01*
X12838393Y-13232476D02*
X12819345Y-13222952D01*
X12819345Y-13222952D02*
X12809822Y-13203905D01*
X12809822Y-13203905D02*
X12809822Y-13127714D01*
X12809822Y-13127714D02*
X12819345Y-13108667D01*
X12819345Y-13108667D02*
X12838393Y-13099143D01*
X12838393Y-13099143D02*
X12876488Y-13099143D01*
X12876488Y-13099143D02*
X12895536Y-13108667D01*
X12895536Y-13108667D02*
X12905060Y-13127714D01*
X12905060Y-13127714D02*
X12905060Y-13146762D01*
X12905060Y-13146762D02*
X12809822Y-13165809D01*
X12981250Y-13222952D02*
X13000298Y-13232476D01*
X13000298Y-13232476D02*
X13038393Y-13232476D01*
X13038393Y-13232476D02*
X13057441Y-13222952D01*
X13057441Y-13222952D02*
X13066965Y-13203905D01*
X13066965Y-13203905D02*
X13066965Y-13194381D01*
X13066965Y-13194381D02*
X13057441Y-13175333D01*
X13057441Y-13175333D02*
X13038393Y-13165809D01*
X13038393Y-13165809D02*
X13009822Y-13165809D01*
X13009822Y-13165809D02*
X12990774Y-13156286D01*
X12990774Y-13156286D02*
X12981250Y-13137238D01*
X12981250Y-13137238D02*
X12981250Y-13127714D01*
X12981250Y-13127714D02*
X12990774Y-13108667D01*
X12990774Y-13108667D02*
X13009822Y-13099143D01*
X13009822Y-13099143D02*
X13038393Y-13099143D01*
X13038393Y-13099143D02*
X13057441Y-13108667D01*
X13272679Y-13156286D02*
X13425060Y-13156286D01*
X13348869Y-13232476D02*
X13348869Y-13080095D01*
X13726012Y-13099143D02*
X13726012Y-13232476D01*
X13678393Y-13022952D02*
X13630774Y-13165809D01*
X13630774Y-13165809D02*
X13754584Y-13165809D01*
X13941250Y-13222952D02*
X13960298Y-13232476D01*
X13960298Y-13232476D02*
X13998393Y-13232476D01*
X13998393Y-13232476D02*
X14017441Y-13222952D01*
X14017441Y-13222952D02*
X14026965Y-13203905D01*
X14026965Y-13203905D02*
X14026965Y-13194381D01*
X14026965Y-13194381D02*
X14017441Y-13175333D01*
X14017441Y-13175333D02*
X13998393Y-13165809D01*
X13998393Y-13165809D02*
X13969822Y-13165809D01*
X13969822Y-13165809D02*
X13950774Y-13156286D01*
X13950774Y-13156286D02*
X13941250Y-13137238D01*
X13941250Y-13137238D02*
X13941250Y-13127714D01*
X13941250Y-13127714D02*
X13950774Y-13108667D01*
X13950774Y-13108667D02*
X13969822Y-13099143D01*
X13969822Y-13099143D02*
X13998393Y-13099143D01*
X13998393Y-13099143D02*
X14017441Y-13108667D01*
X14141250Y-13232476D02*
X14122203Y-13222952D01*
X14122203Y-13222952D02*
X14112679Y-13203905D01*
X14112679Y-13203905D02*
X14112679Y-13032476D01*
X14246012Y-13232476D02*
X14226965Y-13222952D01*
X14226965Y-13222952D02*
X14217441Y-13213428D01*
X14217441Y-13213428D02*
X14207917Y-13194381D01*
X14207917Y-13194381D02*
X14207917Y-13137238D01*
X14207917Y-13137238D02*
X14217441Y-13118190D01*
X14217441Y-13118190D02*
X14226965Y-13108667D01*
X14226965Y-13108667D02*
X14246012Y-13099143D01*
X14246012Y-13099143D02*
X14274584Y-13099143D01*
X14274584Y-13099143D02*
X14293631Y-13108667D01*
X14293631Y-13108667D02*
X14303155Y-13118190D01*
X14303155Y-13118190D02*
X14312679Y-13137238D01*
X14312679Y-13137238D02*
X14312679Y-13194381D01*
X14312679Y-13194381D02*
X14303155Y-13213428D01*
X14303155Y-13213428D02*
X14293631Y-13222952D01*
X14293631Y-13222952D02*
X14274584Y-13232476D01*
X14274584Y-13232476D02*
X14246012Y-13232476D01*
X14369822Y-13099143D02*
X14446012Y-13099143D01*
X14398393Y-13032476D02*
X14398393Y-13203905D01*
X14398393Y-13203905D02*
X14407917Y-13222952D01*
X14407917Y-13222952D02*
X14426965Y-13232476D01*
X14426965Y-13232476D02*
X14446012Y-13232476D01*
X14503155Y-13222952D02*
X14522203Y-13232476D01*
X14522203Y-13232476D02*
X14560298Y-13232476D01*
X14560298Y-13232476D02*
X14579346Y-13222952D01*
X14579346Y-13222952D02*
X14588869Y-13203905D01*
X14588869Y-13203905D02*
X14588869Y-13194381D01*
X14588869Y-13194381D02*
X14579346Y-13175333D01*
X14579346Y-13175333D02*
X14560298Y-13165809D01*
X14560298Y-13165809D02*
X14531726Y-13165809D01*
X14531726Y-13165809D02*
X14512679Y-13156286D01*
X14512679Y-13156286D02*
X14503155Y-13137238D01*
X14503155Y-13137238D02*
X14503155Y-13127714D01*
X14503155Y-13127714D02*
X14512679Y-13108667D01*
X14512679Y-13108667D02*
X14531726Y-13099143D01*
X14531726Y-13099143D02*
X14560298Y-13099143D01*
X14560298Y-13099143D02*
X14579346Y-13108667D01*
X14655536Y-13308667D02*
X14665060Y-13299143D01*
X14665060Y-13299143D02*
X14684107Y-13270571D01*
X14684107Y-13270571D02*
X14693631Y-13251524D01*
X14693631Y-13251524D02*
X14703155Y-13222952D01*
X14703155Y-13222952D02*
X14712679Y-13175333D01*
X14712679Y-13175333D02*
X14712679Y-13137238D01*
X14712679Y-13137238D02*
X14703155Y-13089619D01*
X14703155Y-13089619D02*
X14693631Y-13061048D01*
X14693631Y-13061048D02*
X14684107Y-13042000D01*
X14684107Y-13042000D02*
X14665060Y-13013428D01*
X14665060Y-13013428D02*
X14655536Y-13003905D01*
D14*
X8468750Y-13390500D02*
X8468750Y-13455500D01*
X8436250Y-13423000D02*
X8501250Y-13423000D01*
D11*
X8786964Y-13296476D02*
X8806012Y-13296476D01*
X8806012Y-13296476D02*
X8825060Y-13306000D01*
X8825060Y-13306000D02*
X8834583Y-13315524D01*
X8834583Y-13315524D02*
X8844107Y-13334571D01*
X8844107Y-13334571D02*
X8853631Y-13372667D01*
X8853631Y-13372667D02*
X8853631Y-13420286D01*
X8853631Y-13420286D02*
X8844107Y-13458381D01*
X8844107Y-13458381D02*
X8834583Y-13477428D01*
X8834583Y-13477428D02*
X8825060Y-13486952D01*
X8825060Y-13486952D02*
X8806012Y-13496476D01*
X8806012Y-13496476D02*
X8786964Y-13496476D01*
X8786964Y-13496476D02*
X8767917Y-13486952D01*
X8767917Y-13486952D02*
X8758393Y-13477428D01*
X8758393Y-13477428D02*
X8748869Y-13458381D01*
X8748869Y-13458381D02*
X8739345Y-13420286D01*
X8739345Y-13420286D02*
X8739345Y-13372667D01*
X8739345Y-13372667D02*
X8748869Y-13334571D01*
X8748869Y-13334571D02*
X8758393Y-13315524D01*
X8758393Y-13315524D02*
X8767917Y-13306000D01*
X8767917Y-13306000D02*
X8786964Y-13296476D01*
X8939345Y-13477428D02*
X8948869Y-13486952D01*
X8948869Y-13486952D02*
X8939345Y-13496476D01*
X8939345Y-13496476D02*
X8929822Y-13486952D01*
X8929822Y-13486952D02*
X8939345Y-13477428D01*
X8939345Y-13477428D02*
X8939345Y-13496476D01*
X9120298Y-13296476D02*
X9082202Y-13296476D01*
X9082202Y-13296476D02*
X9063155Y-13306000D01*
X9063155Y-13306000D02*
X9053631Y-13315524D01*
X9053631Y-13315524D02*
X9034583Y-13344095D01*
X9034583Y-13344095D02*
X9025060Y-13382190D01*
X9025060Y-13382190D02*
X9025060Y-13458381D01*
X9025060Y-13458381D02*
X9034583Y-13477428D01*
X9034583Y-13477428D02*
X9044107Y-13486952D01*
X9044107Y-13486952D02*
X9063155Y-13496476D01*
X9063155Y-13496476D02*
X9101250Y-13496476D01*
X9101250Y-13496476D02*
X9120298Y-13486952D01*
X9120298Y-13486952D02*
X9129822Y-13477428D01*
X9129822Y-13477428D02*
X9139345Y-13458381D01*
X9139345Y-13458381D02*
X9139345Y-13410762D01*
X9139345Y-13410762D02*
X9129822Y-13391714D01*
X9129822Y-13391714D02*
X9120298Y-13382190D01*
X9120298Y-13382190D02*
X9101250Y-13372667D01*
X9101250Y-13372667D02*
X9063155Y-13372667D01*
X9063155Y-13372667D02*
X9044107Y-13382190D01*
X9044107Y-13382190D02*
X9034583Y-13391714D01*
X9034583Y-13391714D02*
X9025060Y-13410762D01*
X9320298Y-13296476D02*
X9225060Y-13296476D01*
X9225060Y-13296476D02*
X9215536Y-13391714D01*
X9215536Y-13391714D02*
X9225060Y-13382190D01*
X9225060Y-13382190D02*
X9244107Y-13372667D01*
X9244107Y-13372667D02*
X9291726Y-13372667D01*
X9291726Y-13372667D02*
X9310774Y-13382190D01*
X9310774Y-13382190D02*
X9320298Y-13391714D01*
X9320298Y-13391714D02*
X9329822Y-13410762D01*
X9329822Y-13410762D02*
X9329822Y-13458381D01*
X9329822Y-13458381D02*
X9320298Y-13477428D01*
X9320298Y-13477428D02*
X9310774Y-13486952D01*
X9310774Y-13486952D02*
X9291726Y-13496476D01*
X9291726Y-13496476D02*
X9244107Y-13496476D01*
X9244107Y-13496476D02*
X9225060Y-13486952D01*
X9225060Y-13486952D02*
X9215536Y-13477428D01*
X9453631Y-13296476D02*
X9472679Y-13296476D01*
X9472679Y-13296476D02*
X9491726Y-13306000D01*
X9491726Y-13306000D02*
X9501250Y-13315524D01*
X9501250Y-13315524D02*
X9510774Y-13334571D01*
X9510774Y-13334571D02*
X9520298Y-13372667D01*
X9520298Y-13372667D02*
X9520298Y-13420286D01*
X9520298Y-13420286D02*
X9510774Y-13458381D01*
X9510774Y-13458381D02*
X9501250Y-13477428D01*
X9501250Y-13477428D02*
X9491726Y-13486952D01*
X9491726Y-13486952D02*
X9472679Y-13496476D01*
X9472679Y-13496476D02*
X9453631Y-13496476D01*
X9453631Y-13496476D02*
X9434583Y-13486952D01*
X9434583Y-13486952D02*
X9425060Y-13477428D01*
X9425060Y-13477428D02*
X9415536Y-13458381D01*
X9415536Y-13458381D02*
X9406012Y-13420286D01*
X9406012Y-13420286D02*
X9406012Y-13372667D01*
X9406012Y-13372667D02*
X9415536Y-13334571D01*
X9415536Y-13334571D02*
X9425060Y-13315524D01*
X9425060Y-13315524D02*
X9434583Y-13306000D01*
X9434583Y-13306000D02*
X9453631Y-13296476D01*
X9606012Y-13496476D02*
X9606012Y-13363143D01*
X9606012Y-13382190D02*
X9615536Y-13372667D01*
X9615536Y-13372667D02*
X9634583Y-13363143D01*
X9634583Y-13363143D02*
X9663155Y-13363143D01*
X9663155Y-13363143D02*
X9682203Y-13372667D01*
X9682203Y-13372667D02*
X9691726Y-13391714D01*
X9691726Y-13391714D02*
X9691726Y-13496476D01*
X9691726Y-13391714D02*
X9701250Y-13372667D01*
X9701250Y-13372667D02*
X9720298Y-13363143D01*
X9720298Y-13363143D02*
X9748869Y-13363143D01*
X9748869Y-13363143D02*
X9767917Y-13372667D01*
X9767917Y-13372667D02*
X9777441Y-13391714D01*
X9777441Y-13391714D02*
X9777441Y-13496476D01*
X9872679Y-13496476D02*
X9872679Y-13363143D01*
X9872679Y-13382190D02*
X9882203Y-13372667D01*
X9882203Y-13372667D02*
X9901250Y-13363143D01*
X9901250Y-13363143D02*
X9929822Y-13363143D01*
X9929822Y-13363143D02*
X9948869Y-13372667D01*
X9948869Y-13372667D02*
X9958393Y-13391714D01*
X9958393Y-13391714D02*
X9958393Y-13496476D01*
X9958393Y-13391714D02*
X9967917Y-13372667D01*
X9967917Y-13372667D02*
X9986964Y-13363143D01*
X9986964Y-13363143D02*
X10015536Y-13363143D01*
X10015536Y-13363143D02*
X10034584Y-13372667D01*
X10034584Y-13372667D02*
X10044107Y-13391714D01*
X10044107Y-13391714D02*
X10044107Y-13496476D01*
X10402203Y-13286952D02*
X10230774Y-13544095D01*
X10626964Y-13296476D02*
X10646012Y-13296476D01*
X10646012Y-13296476D02*
X10665060Y-13306000D01*
X10665060Y-13306000D02*
X10674584Y-13315524D01*
X10674584Y-13315524D02*
X10684107Y-13334571D01*
X10684107Y-13334571D02*
X10693631Y-13372667D01*
X10693631Y-13372667D02*
X10693631Y-13420286D01*
X10693631Y-13420286D02*
X10684107Y-13458381D01*
X10684107Y-13458381D02*
X10674584Y-13477428D01*
X10674584Y-13477428D02*
X10665060Y-13486952D01*
X10665060Y-13486952D02*
X10646012Y-13496476D01*
X10646012Y-13496476D02*
X10626964Y-13496476D01*
X10626964Y-13496476D02*
X10607917Y-13486952D01*
X10607917Y-13486952D02*
X10598393Y-13477428D01*
X10598393Y-13477428D02*
X10588869Y-13458381D01*
X10588869Y-13458381D02*
X10579345Y-13420286D01*
X10579345Y-13420286D02*
X10579345Y-13372667D01*
X10579345Y-13372667D02*
X10588869Y-13334571D01*
X10588869Y-13334571D02*
X10598393Y-13315524D01*
X10598393Y-13315524D02*
X10607917Y-13306000D01*
X10607917Y-13306000D02*
X10626964Y-13296476D01*
X10779345Y-13477428D02*
X10788869Y-13486952D01*
X10788869Y-13486952D02*
X10779345Y-13496476D01*
X10779345Y-13496476D02*
X10769822Y-13486952D01*
X10769822Y-13486952D02*
X10779345Y-13477428D01*
X10779345Y-13477428D02*
X10779345Y-13496476D01*
X10912679Y-13296476D02*
X10931726Y-13296476D01*
X10931726Y-13296476D02*
X10950774Y-13306000D01*
X10950774Y-13306000D02*
X10960298Y-13315524D01*
X10960298Y-13315524D02*
X10969822Y-13334571D01*
X10969822Y-13334571D02*
X10979345Y-13372667D01*
X10979345Y-13372667D02*
X10979345Y-13420286D01*
X10979345Y-13420286D02*
X10969822Y-13458381D01*
X10969822Y-13458381D02*
X10960298Y-13477428D01*
X10960298Y-13477428D02*
X10950774Y-13486952D01*
X10950774Y-13486952D02*
X10931726Y-13496476D01*
X10931726Y-13496476D02*
X10912679Y-13496476D01*
X10912679Y-13496476D02*
X10893631Y-13486952D01*
X10893631Y-13486952D02*
X10884107Y-13477428D01*
X10884107Y-13477428D02*
X10874584Y-13458381D01*
X10874584Y-13458381D02*
X10865060Y-13420286D01*
X10865060Y-13420286D02*
X10865060Y-13372667D01*
X10865060Y-13372667D02*
X10874584Y-13334571D01*
X10874584Y-13334571D02*
X10884107Y-13315524D01*
X10884107Y-13315524D02*
X10893631Y-13306000D01*
X10893631Y-13306000D02*
X10912679Y-13296476D01*
X11055536Y-13315524D02*
X11065060Y-13306000D01*
X11065060Y-13306000D02*
X11084107Y-13296476D01*
X11084107Y-13296476D02*
X11131726Y-13296476D01*
X11131726Y-13296476D02*
X11150774Y-13306000D01*
X11150774Y-13306000D02*
X11160298Y-13315524D01*
X11160298Y-13315524D02*
X11169822Y-13334571D01*
X11169822Y-13334571D02*
X11169822Y-13353619D01*
X11169822Y-13353619D02*
X11160298Y-13382190D01*
X11160298Y-13382190D02*
X11046012Y-13496476D01*
X11046012Y-13496476D02*
X11169822Y-13496476D01*
X11350774Y-13296476D02*
X11255536Y-13296476D01*
X11255536Y-13296476D02*
X11246012Y-13391714D01*
X11246012Y-13391714D02*
X11255536Y-13382190D01*
X11255536Y-13382190D02*
X11274583Y-13372667D01*
X11274583Y-13372667D02*
X11322203Y-13372667D01*
X11322203Y-13372667D02*
X11341250Y-13382190D01*
X11341250Y-13382190D02*
X11350774Y-13391714D01*
X11350774Y-13391714D02*
X11360298Y-13410762D01*
X11360298Y-13410762D02*
X11360298Y-13458381D01*
X11360298Y-13458381D02*
X11350774Y-13477428D01*
X11350774Y-13477428D02*
X11341250Y-13486952D01*
X11341250Y-13486952D02*
X11322203Y-13496476D01*
X11322203Y-13496476D02*
X11274583Y-13496476D01*
X11274583Y-13496476D02*
X11255536Y-13486952D01*
X11255536Y-13486952D02*
X11246012Y-13477428D01*
X11531726Y-13296476D02*
X11493631Y-13296476D01*
X11493631Y-13296476D02*
X11474583Y-13306000D01*
X11474583Y-13306000D02*
X11465060Y-13315524D01*
X11465060Y-13315524D02*
X11446012Y-13344095D01*
X11446012Y-13344095D02*
X11436488Y-13382190D01*
X11436488Y-13382190D02*
X11436488Y-13458381D01*
X11436488Y-13458381D02*
X11446012Y-13477428D01*
X11446012Y-13477428D02*
X11455536Y-13486952D01*
X11455536Y-13486952D02*
X11474583Y-13496476D01*
X11474583Y-13496476D02*
X11512679Y-13496476D01*
X11512679Y-13496476D02*
X11531726Y-13486952D01*
X11531726Y-13486952D02*
X11541250Y-13477428D01*
X11541250Y-13477428D02*
X11550774Y-13458381D01*
X11550774Y-13458381D02*
X11550774Y-13410762D01*
X11550774Y-13410762D02*
X11541250Y-13391714D01*
X11541250Y-13391714D02*
X11531726Y-13382190D01*
X11531726Y-13382190D02*
X11512679Y-13372667D01*
X11512679Y-13372667D02*
X11474583Y-13372667D01*
X11474583Y-13372667D02*
X11455536Y-13382190D01*
X11455536Y-13382190D02*
X11446012Y-13391714D01*
X11446012Y-13391714D02*
X11436488Y-13410762D01*
X11626964Y-13296476D02*
X11626964Y-13334571D01*
X11703155Y-13296476D02*
X11703155Y-13334571D01*
X11966012Y-13572667D02*
X11956488Y-13563143D01*
X11956488Y-13563143D02*
X11937441Y-13534571D01*
X11937441Y-13534571D02*
X11927917Y-13515524D01*
X11927917Y-13515524D02*
X11918393Y-13486952D01*
X11918393Y-13486952D02*
X11908869Y-13439333D01*
X11908869Y-13439333D02*
X11908869Y-13401238D01*
X11908869Y-13401238D02*
X11918393Y-13353619D01*
X11918393Y-13353619D02*
X11927917Y-13325048D01*
X11927917Y-13325048D02*
X11937441Y-13306000D01*
X11937441Y-13306000D02*
X11956488Y-13277428D01*
X11956488Y-13277428D02*
X11966012Y-13267905D01*
X12146964Y-13496476D02*
X12032679Y-13496476D01*
X12089822Y-13496476D02*
X12089822Y-13296476D01*
X12089822Y-13296476D02*
X12070774Y-13325048D01*
X12070774Y-13325048D02*
X12051726Y-13344095D01*
X12051726Y-13344095D02*
X12032679Y-13353619D01*
X12270774Y-13296476D02*
X12289822Y-13296476D01*
X12289822Y-13296476D02*
X12308869Y-13306000D01*
X12308869Y-13306000D02*
X12318393Y-13315524D01*
X12318393Y-13315524D02*
X12327917Y-13334571D01*
X12327917Y-13334571D02*
X12337441Y-13372667D01*
X12337441Y-13372667D02*
X12337441Y-13420286D01*
X12337441Y-13420286D02*
X12327917Y-13458381D01*
X12327917Y-13458381D02*
X12318393Y-13477428D01*
X12318393Y-13477428D02*
X12308869Y-13486952D01*
X12308869Y-13486952D02*
X12289822Y-13496476D01*
X12289822Y-13496476D02*
X12270774Y-13496476D01*
X12270774Y-13496476D02*
X12251726Y-13486952D01*
X12251726Y-13486952D02*
X12242203Y-13477428D01*
X12242203Y-13477428D02*
X12232679Y-13458381D01*
X12232679Y-13458381D02*
X12223155Y-13420286D01*
X12223155Y-13420286D02*
X12223155Y-13372667D01*
X12223155Y-13372667D02*
X12232679Y-13334571D01*
X12232679Y-13334571D02*
X12242203Y-13315524D01*
X12242203Y-13315524D02*
X12251726Y-13306000D01*
X12251726Y-13306000D02*
X12270774Y-13296476D01*
X12543155Y-13496476D02*
X12543155Y-13296476D01*
X12628869Y-13496476D02*
X12628869Y-13391714D01*
X12628869Y-13391714D02*
X12619345Y-13372667D01*
X12619345Y-13372667D02*
X12600298Y-13363143D01*
X12600298Y-13363143D02*
X12571726Y-13363143D01*
X12571726Y-13363143D02*
X12552679Y-13372667D01*
X12552679Y-13372667D02*
X12543155Y-13382190D01*
X12752679Y-13496476D02*
X12733631Y-13486952D01*
X12733631Y-13486952D02*
X12724107Y-13477428D01*
X12724107Y-13477428D02*
X12714584Y-13458381D01*
X12714584Y-13458381D02*
X12714584Y-13401238D01*
X12714584Y-13401238D02*
X12724107Y-13382190D01*
X12724107Y-13382190D02*
X12733631Y-13372667D01*
X12733631Y-13372667D02*
X12752679Y-13363143D01*
X12752679Y-13363143D02*
X12781250Y-13363143D01*
X12781250Y-13363143D02*
X12800298Y-13372667D01*
X12800298Y-13372667D02*
X12809822Y-13382190D01*
X12809822Y-13382190D02*
X12819345Y-13401238D01*
X12819345Y-13401238D02*
X12819345Y-13458381D01*
X12819345Y-13458381D02*
X12809822Y-13477428D01*
X12809822Y-13477428D02*
X12800298Y-13486952D01*
X12800298Y-13486952D02*
X12781250Y-13496476D01*
X12781250Y-13496476D02*
X12752679Y-13496476D01*
X12933631Y-13496476D02*
X12914584Y-13486952D01*
X12914584Y-13486952D02*
X12905060Y-13467905D01*
X12905060Y-13467905D02*
X12905060Y-13296476D01*
X13086012Y-13486952D02*
X13066965Y-13496476D01*
X13066965Y-13496476D02*
X13028869Y-13496476D01*
X13028869Y-13496476D02*
X13009822Y-13486952D01*
X13009822Y-13486952D02*
X13000298Y-13467905D01*
X13000298Y-13467905D02*
X13000298Y-13391714D01*
X13000298Y-13391714D02*
X13009822Y-13372667D01*
X13009822Y-13372667D02*
X13028869Y-13363143D01*
X13028869Y-13363143D02*
X13066965Y-13363143D01*
X13066965Y-13363143D02*
X13086012Y-13372667D01*
X13086012Y-13372667D02*
X13095536Y-13391714D01*
X13095536Y-13391714D02*
X13095536Y-13410762D01*
X13095536Y-13410762D02*
X13000298Y-13429809D01*
X13171726Y-13486952D02*
X13190774Y-13496476D01*
X13190774Y-13496476D02*
X13228869Y-13496476D01*
X13228869Y-13496476D02*
X13247917Y-13486952D01*
X13247917Y-13486952D02*
X13257441Y-13467905D01*
X13257441Y-13467905D02*
X13257441Y-13458381D01*
X13257441Y-13458381D02*
X13247917Y-13439333D01*
X13247917Y-13439333D02*
X13228869Y-13429809D01*
X13228869Y-13429809D02*
X13200298Y-13429809D01*
X13200298Y-13429809D02*
X13181250Y-13420286D01*
X13181250Y-13420286D02*
X13171726Y-13401238D01*
X13171726Y-13401238D02*
X13171726Y-13391714D01*
X13171726Y-13391714D02*
X13181250Y-13372667D01*
X13181250Y-13372667D02*
X13200298Y-13363143D01*
X13200298Y-13363143D02*
X13228869Y-13363143D01*
X13228869Y-13363143D02*
X13247917Y-13372667D01*
X13324107Y-13572667D02*
X13333631Y-13563143D01*
X13333631Y-13563143D02*
X13352679Y-13534571D01*
X13352679Y-13534571D02*
X13362203Y-13515524D01*
X13362203Y-13515524D02*
X13371726Y-13486952D01*
X13371726Y-13486952D02*
X13381250Y-13439333D01*
X13381250Y-13439333D02*
X13381250Y-13401238D01*
X13381250Y-13401238D02*
X13371726Y-13353619D01*
X13371726Y-13353619D02*
X13362203Y-13325048D01*
X13362203Y-13325048D02*
X13352679Y-13306000D01*
X13352679Y-13306000D02*
X13333631Y-13277428D01*
X13333631Y-13277428D02*
X13324107Y-13267905D01*
D15*
X8488070Y-13718820D02*
X8488070Y-13655180D01*
X8424430Y-13655180D01*
X8424430Y-13718820D01*
X8488070Y-13718820D01*
D11*
X8786964Y-13560476D02*
X8806012Y-13560476D01*
X8806012Y-13560476D02*
X8825060Y-13570000D01*
X8825060Y-13570000D02*
X8834583Y-13579524D01*
X8834583Y-13579524D02*
X8844107Y-13598571D01*
X8844107Y-13598571D02*
X8853631Y-13636667D01*
X8853631Y-13636667D02*
X8853631Y-13684286D01*
X8853631Y-13684286D02*
X8844107Y-13722381D01*
X8844107Y-13722381D02*
X8834583Y-13741428D01*
X8834583Y-13741428D02*
X8825060Y-13750952D01*
X8825060Y-13750952D02*
X8806012Y-13760476D01*
X8806012Y-13760476D02*
X8786964Y-13760476D01*
X8786964Y-13760476D02*
X8767917Y-13750952D01*
X8767917Y-13750952D02*
X8758393Y-13741428D01*
X8758393Y-13741428D02*
X8748869Y-13722381D01*
X8748869Y-13722381D02*
X8739345Y-13684286D01*
X8739345Y-13684286D02*
X8739345Y-13636667D01*
X8739345Y-13636667D02*
X8748869Y-13598571D01*
X8748869Y-13598571D02*
X8758393Y-13579524D01*
X8758393Y-13579524D02*
X8767917Y-13570000D01*
X8767917Y-13570000D02*
X8786964Y-13560476D01*
X8939345Y-13741428D02*
X8948869Y-13750952D01*
X8948869Y-13750952D02*
X8939345Y-13760476D01*
X8939345Y-13760476D02*
X8929822Y-13750952D01*
X8929822Y-13750952D02*
X8939345Y-13741428D01*
X8939345Y-13741428D02*
X8939345Y-13760476D01*
X9044107Y-13760476D02*
X9082202Y-13760476D01*
X9082202Y-13760476D02*
X9101250Y-13750952D01*
X9101250Y-13750952D02*
X9110774Y-13741428D01*
X9110774Y-13741428D02*
X9129822Y-13712857D01*
X9129822Y-13712857D02*
X9139345Y-13674762D01*
X9139345Y-13674762D02*
X9139345Y-13598571D01*
X9139345Y-13598571D02*
X9129822Y-13579524D01*
X9129822Y-13579524D02*
X9120298Y-13570000D01*
X9120298Y-13570000D02*
X9101250Y-13560476D01*
X9101250Y-13560476D02*
X9063155Y-13560476D01*
X9063155Y-13560476D02*
X9044107Y-13570000D01*
X9044107Y-13570000D02*
X9034583Y-13579524D01*
X9034583Y-13579524D02*
X9025060Y-13598571D01*
X9025060Y-13598571D02*
X9025060Y-13646190D01*
X9025060Y-13646190D02*
X9034583Y-13665238D01*
X9034583Y-13665238D02*
X9044107Y-13674762D01*
X9044107Y-13674762D02*
X9063155Y-13684286D01*
X9063155Y-13684286D02*
X9101250Y-13684286D01*
X9101250Y-13684286D02*
X9120298Y-13674762D01*
X9120298Y-13674762D02*
X9129822Y-13665238D01*
X9129822Y-13665238D02*
X9139345Y-13646190D01*
X9263155Y-13560476D02*
X9282203Y-13560476D01*
X9282203Y-13560476D02*
X9301250Y-13570000D01*
X9301250Y-13570000D02*
X9310774Y-13579524D01*
X9310774Y-13579524D02*
X9320298Y-13598571D01*
X9320298Y-13598571D02*
X9329822Y-13636667D01*
X9329822Y-13636667D02*
X9329822Y-13684286D01*
X9329822Y-13684286D02*
X9320298Y-13722381D01*
X9320298Y-13722381D02*
X9310774Y-13741428D01*
X9310774Y-13741428D02*
X9301250Y-13750952D01*
X9301250Y-13750952D02*
X9282203Y-13760476D01*
X9282203Y-13760476D02*
X9263155Y-13760476D01*
X9263155Y-13760476D02*
X9244107Y-13750952D01*
X9244107Y-13750952D02*
X9234583Y-13741428D01*
X9234583Y-13741428D02*
X9225060Y-13722381D01*
X9225060Y-13722381D02*
X9215536Y-13684286D01*
X9215536Y-13684286D02*
X9215536Y-13636667D01*
X9215536Y-13636667D02*
X9225060Y-13598571D01*
X9225060Y-13598571D02*
X9234583Y-13579524D01*
X9234583Y-13579524D02*
X9244107Y-13570000D01*
X9244107Y-13570000D02*
X9263155Y-13560476D01*
X9453631Y-13560476D02*
X9472679Y-13560476D01*
X9472679Y-13560476D02*
X9491726Y-13570000D01*
X9491726Y-13570000D02*
X9501250Y-13579524D01*
X9501250Y-13579524D02*
X9510774Y-13598571D01*
X9510774Y-13598571D02*
X9520298Y-13636667D01*
X9520298Y-13636667D02*
X9520298Y-13684286D01*
X9520298Y-13684286D02*
X9510774Y-13722381D01*
X9510774Y-13722381D02*
X9501250Y-13741428D01*
X9501250Y-13741428D02*
X9491726Y-13750952D01*
X9491726Y-13750952D02*
X9472679Y-13760476D01*
X9472679Y-13760476D02*
X9453631Y-13760476D01*
X9453631Y-13760476D02*
X9434583Y-13750952D01*
X9434583Y-13750952D02*
X9425060Y-13741428D01*
X9425060Y-13741428D02*
X9415536Y-13722381D01*
X9415536Y-13722381D02*
X9406012Y-13684286D01*
X9406012Y-13684286D02*
X9406012Y-13636667D01*
X9406012Y-13636667D02*
X9415536Y-13598571D01*
X9415536Y-13598571D02*
X9425060Y-13579524D01*
X9425060Y-13579524D02*
X9434583Y-13570000D01*
X9434583Y-13570000D02*
X9453631Y-13560476D01*
X9606012Y-13760476D02*
X9606012Y-13627143D01*
X9606012Y-13646190D02*
X9615536Y-13636667D01*
X9615536Y-13636667D02*
X9634583Y-13627143D01*
X9634583Y-13627143D02*
X9663155Y-13627143D01*
X9663155Y-13627143D02*
X9682203Y-13636667D01*
X9682203Y-13636667D02*
X9691726Y-13655714D01*
X9691726Y-13655714D02*
X9691726Y-13760476D01*
X9691726Y-13655714D02*
X9701250Y-13636667D01*
X9701250Y-13636667D02*
X9720298Y-13627143D01*
X9720298Y-13627143D02*
X9748869Y-13627143D01*
X9748869Y-13627143D02*
X9767917Y-13636667D01*
X9767917Y-13636667D02*
X9777441Y-13655714D01*
X9777441Y-13655714D02*
X9777441Y-13760476D01*
X9872679Y-13760476D02*
X9872679Y-13627143D01*
X9872679Y-13646190D02*
X9882203Y-13636667D01*
X9882203Y-13636667D02*
X9901250Y-13627143D01*
X9901250Y-13627143D02*
X9929822Y-13627143D01*
X9929822Y-13627143D02*
X9948869Y-13636667D01*
X9948869Y-13636667D02*
X9958393Y-13655714D01*
X9958393Y-13655714D02*
X9958393Y-13760476D01*
X9958393Y-13655714D02*
X9967917Y-13636667D01*
X9967917Y-13636667D02*
X9986964Y-13627143D01*
X9986964Y-13627143D02*
X10015536Y-13627143D01*
X10015536Y-13627143D02*
X10034584Y-13636667D01*
X10034584Y-13636667D02*
X10044107Y-13655714D01*
X10044107Y-13655714D02*
X10044107Y-13760476D01*
X10402203Y-13550952D02*
X10230774Y-13808095D01*
X10626964Y-13560476D02*
X10646012Y-13560476D01*
X10646012Y-13560476D02*
X10665060Y-13570000D01*
X10665060Y-13570000D02*
X10674584Y-13579524D01*
X10674584Y-13579524D02*
X10684107Y-13598571D01*
X10684107Y-13598571D02*
X10693631Y-13636667D01*
X10693631Y-13636667D02*
X10693631Y-13684286D01*
X10693631Y-13684286D02*
X10684107Y-13722381D01*
X10684107Y-13722381D02*
X10674584Y-13741428D01*
X10674584Y-13741428D02*
X10665060Y-13750952D01*
X10665060Y-13750952D02*
X10646012Y-13760476D01*
X10646012Y-13760476D02*
X10626964Y-13760476D01*
X10626964Y-13760476D02*
X10607917Y-13750952D01*
X10607917Y-13750952D02*
X10598393Y-13741428D01*
X10598393Y-13741428D02*
X10588869Y-13722381D01*
X10588869Y-13722381D02*
X10579345Y-13684286D01*
X10579345Y-13684286D02*
X10579345Y-13636667D01*
X10579345Y-13636667D02*
X10588869Y-13598571D01*
X10588869Y-13598571D02*
X10598393Y-13579524D01*
X10598393Y-13579524D02*
X10607917Y-13570000D01*
X10607917Y-13570000D02*
X10626964Y-13560476D01*
X10779345Y-13741428D02*
X10788869Y-13750952D01*
X10788869Y-13750952D02*
X10779345Y-13760476D01*
X10779345Y-13760476D02*
X10769822Y-13750952D01*
X10769822Y-13750952D02*
X10779345Y-13741428D01*
X10779345Y-13741428D02*
X10779345Y-13760476D01*
X10912679Y-13560476D02*
X10931726Y-13560476D01*
X10931726Y-13560476D02*
X10950774Y-13570000D01*
X10950774Y-13570000D02*
X10960298Y-13579524D01*
X10960298Y-13579524D02*
X10969822Y-13598571D01*
X10969822Y-13598571D02*
X10979345Y-13636667D01*
X10979345Y-13636667D02*
X10979345Y-13684286D01*
X10979345Y-13684286D02*
X10969822Y-13722381D01*
X10969822Y-13722381D02*
X10960298Y-13741428D01*
X10960298Y-13741428D02*
X10950774Y-13750952D01*
X10950774Y-13750952D02*
X10931726Y-13760476D01*
X10931726Y-13760476D02*
X10912679Y-13760476D01*
X10912679Y-13760476D02*
X10893631Y-13750952D01*
X10893631Y-13750952D02*
X10884107Y-13741428D01*
X10884107Y-13741428D02*
X10874584Y-13722381D01*
X10874584Y-13722381D02*
X10865060Y-13684286D01*
X10865060Y-13684286D02*
X10865060Y-13636667D01*
X10865060Y-13636667D02*
X10874584Y-13598571D01*
X10874584Y-13598571D02*
X10884107Y-13579524D01*
X10884107Y-13579524D02*
X10893631Y-13570000D01*
X10893631Y-13570000D02*
X10912679Y-13560476D01*
X11046012Y-13560476D02*
X11169822Y-13560476D01*
X11169822Y-13560476D02*
X11103155Y-13636667D01*
X11103155Y-13636667D02*
X11131726Y-13636667D01*
X11131726Y-13636667D02*
X11150774Y-13646190D01*
X11150774Y-13646190D02*
X11160298Y-13655714D01*
X11160298Y-13655714D02*
X11169822Y-13674762D01*
X11169822Y-13674762D02*
X11169822Y-13722381D01*
X11169822Y-13722381D02*
X11160298Y-13741428D01*
X11160298Y-13741428D02*
X11150774Y-13750952D01*
X11150774Y-13750952D02*
X11131726Y-13760476D01*
X11131726Y-13760476D02*
X11074584Y-13760476D01*
X11074584Y-13760476D02*
X11055536Y-13750952D01*
X11055536Y-13750952D02*
X11046012Y-13741428D01*
X11350774Y-13560476D02*
X11255536Y-13560476D01*
X11255536Y-13560476D02*
X11246012Y-13655714D01*
X11246012Y-13655714D02*
X11255536Y-13646190D01*
X11255536Y-13646190D02*
X11274583Y-13636667D01*
X11274583Y-13636667D02*
X11322203Y-13636667D01*
X11322203Y-13636667D02*
X11341250Y-13646190D01*
X11341250Y-13646190D02*
X11350774Y-13655714D01*
X11350774Y-13655714D02*
X11360298Y-13674762D01*
X11360298Y-13674762D02*
X11360298Y-13722381D01*
X11360298Y-13722381D02*
X11350774Y-13741428D01*
X11350774Y-13741428D02*
X11341250Y-13750952D01*
X11341250Y-13750952D02*
X11322203Y-13760476D01*
X11322203Y-13760476D02*
X11274583Y-13760476D01*
X11274583Y-13760476D02*
X11255536Y-13750952D01*
X11255536Y-13750952D02*
X11246012Y-13741428D01*
X11531726Y-13627143D02*
X11531726Y-13760476D01*
X11484107Y-13550952D02*
X11436488Y-13693809D01*
X11436488Y-13693809D02*
X11560298Y-13693809D01*
X11626964Y-13560476D02*
X11626964Y-13598571D01*
X11703155Y-13560476D02*
X11703155Y-13598571D01*
X11966012Y-13836667D02*
X11956488Y-13827143D01*
X11956488Y-13827143D02*
X11937441Y-13798571D01*
X11937441Y-13798571D02*
X11927917Y-13779524D01*
X11927917Y-13779524D02*
X11918393Y-13750952D01*
X11918393Y-13750952D02*
X11908869Y-13703333D01*
X11908869Y-13703333D02*
X11908869Y-13665238D01*
X11908869Y-13665238D02*
X11918393Y-13617619D01*
X11918393Y-13617619D02*
X11927917Y-13589048D01*
X11927917Y-13589048D02*
X11937441Y-13570000D01*
X11937441Y-13570000D02*
X11956488Y-13541428D01*
X11956488Y-13541428D02*
X11966012Y-13531905D01*
X12032679Y-13579524D02*
X12042203Y-13570000D01*
X12042203Y-13570000D02*
X12061250Y-13560476D01*
X12061250Y-13560476D02*
X12108869Y-13560476D01*
X12108869Y-13560476D02*
X12127917Y-13570000D01*
X12127917Y-13570000D02*
X12137441Y-13579524D01*
X12137441Y-13579524D02*
X12146964Y-13598571D01*
X12146964Y-13598571D02*
X12146964Y-13617619D01*
X12146964Y-13617619D02*
X12137441Y-13646190D01*
X12137441Y-13646190D02*
X12023155Y-13760476D01*
X12023155Y-13760476D02*
X12146964Y-13760476D01*
X12352679Y-13760476D02*
X12352679Y-13560476D01*
X12438393Y-13760476D02*
X12438393Y-13655714D01*
X12438393Y-13655714D02*
X12428869Y-13636667D01*
X12428869Y-13636667D02*
X12409822Y-13627143D01*
X12409822Y-13627143D02*
X12381250Y-13627143D01*
X12381250Y-13627143D02*
X12362203Y-13636667D01*
X12362203Y-13636667D02*
X12352679Y-13646190D01*
X12562203Y-13760476D02*
X12543155Y-13750952D01*
X12543155Y-13750952D02*
X12533631Y-13741428D01*
X12533631Y-13741428D02*
X12524107Y-13722381D01*
X12524107Y-13722381D02*
X12524107Y-13665238D01*
X12524107Y-13665238D02*
X12533631Y-13646190D01*
X12533631Y-13646190D02*
X12543155Y-13636667D01*
X12543155Y-13636667D02*
X12562203Y-13627143D01*
X12562203Y-13627143D02*
X12590774Y-13627143D01*
X12590774Y-13627143D02*
X12609822Y-13636667D01*
X12609822Y-13636667D02*
X12619345Y-13646190D01*
X12619345Y-13646190D02*
X12628869Y-13665238D01*
X12628869Y-13665238D02*
X12628869Y-13722381D01*
X12628869Y-13722381D02*
X12619345Y-13741428D01*
X12619345Y-13741428D02*
X12609822Y-13750952D01*
X12609822Y-13750952D02*
X12590774Y-13760476D01*
X12590774Y-13760476D02*
X12562203Y-13760476D01*
X12743155Y-13760476D02*
X12724107Y-13750952D01*
X12724107Y-13750952D02*
X12714584Y-13731905D01*
X12714584Y-13731905D02*
X12714584Y-13560476D01*
X12895536Y-13750952D02*
X12876488Y-13760476D01*
X12876488Y-13760476D02*
X12838393Y-13760476D01*
X12838393Y-13760476D02*
X12819345Y-13750952D01*
X12819345Y-13750952D02*
X12809822Y-13731905D01*
X12809822Y-13731905D02*
X12809822Y-13655714D01*
X12809822Y-13655714D02*
X12819345Y-13636667D01*
X12819345Y-13636667D02*
X12838393Y-13627143D01*
X12838393Y-13627143D02*
X12876488Y-13627143D01*
X12876488Y-13627143D02*
X12895536Y-13636667D01*
X12895536Y-13636667D02*
X12905060Y-13655714D01*
X12905060Y-13655714D02*
X12905060Y-13674762D01*
X12905060Y-13674762D02*
X12809822Y-13693809D01*
X12981250Y-13750952D02*
X13000298Y-13760476D01*
X13000298Y-13760476D02*
X13038393Y-13760476D01*
X13038393Y-13760476D02*
X13057441Y-13750952D01*
X13057441Y-13750952D02*
X13066965Y-13731905D01*
X13066965Y-13731905D02*
X13066965Y-13722381D01*
X13066965Y-13722381D02*
X13057441Y-13703333D01*
X13057441Y-13703333D02*
X13038393Y-13693809D01*
X13038393Y-13693809D02*
X13009822Y-13693809D01*
X13009822Y-13693809D02*
X12990774Y-13684286D01*
X12990774Y-13684286D02*
X12981250Y-13665238D01*
X12981250Y-13665238D02*
X12981250Y-13655714D01*
X12981250Y-13655714D02*
X12990774Y-13636667D01*
X12990774Y-13636667D02*
X13009822Y-13627143D01*
X13009822Y-13627143D02*
X13038393Y-13627143D01*
X13038393Y-13627143D02*
X13057441Y-13636667D01*
X13133631Y-13836667D02*
X13143155Y-13827143D01*
X13143155Y-13827143D02*
X13162203Y-13798571D01*
X13162203Y-13798571D02*
X13171726Y-13779524D01*
X13171726Y-13779524D02*
X13181250Y-13750952D01*
X13181250Y-13750952D02*
X13190774Y-13703333D01*
X13190774Y-13703333D02*
X13190774Y-13665238D01*
X13190774Y-13665238D02*
X13181250Y-13617619D01*
X13181250Y-13617619D02*
X13171726Y-13589048D01*
X13171726Y-13589048D02*
X13162203Y-13570000D01*
X13162203Y-13570000D02*
X13143155Y-13541428D01*
X13143155Y-13541428D02*
X13133631Y-13531905D01*
D10*
X8451250Y-14001000D02*
X8501250Y-13951000D01*
X8451250Y-13901000D01*
X8401250Y-13951000D01*
X8451250Y-14001000D01*
D11*
X8853631Y-14024476D02*
X8739345Y-14024476D01*
X8796488Y-14024476D02*
X8796488Y-13824476D01*
X8796488Y-13824476D02*
X8777441Y-13853048D01*
X8777441Y-13853048D02*
X8758393Y-13872095D01*
X8758393Y-13872095D02*
X8739345Y-13881619D01*
X8939345Y-14005428D02*
X8948869Y-14014952D01*
X8948869Y-14014952D02*
X8939345Y-14024476D01*
X8939345Y-14024476D02*
X8929822Y-14014952D01*
X8929822Y-14014952D02*
X8939345Y-14005428D01*
X8939345Y-14005428D02*
X8939345Y-14024476D01*
X9072679Y-13824476D02*
X9091726Y-13824476D01*
X9091726Y-13824476D02*
X9110774Y-13834000D01*
X9110774Y-13834000D02*
X9120298Y-13843524D01*
X9120298Y-13843524D02*
X9129822Y-13862571D01*
X9129822Y-13862571D02*
X9139345Y-13900667D01*
X9139345Y-13900667D02*
X9139345Y-13948286D01*
X9139345Y-13948286D02*
X9129822Y-13986381D01*
X9129822Y-13986381D02*
X9120298Y-14005428D01*
X9120298Y-14005428D02*
X9110774Y-14014952D01*
X9110774Y-14014952D02*
X9091726Y-14024476D01*
X9091726Y-14024476D02*
X9072679Y-14024476D01*
X9072679Y-14024476D02*
X9053631Y-14014952D01*
X9053631Y-14014952D02*
X9044107Y-14005428D01*
X9044107Y-14005428D02*
X9034583Y-13986381D01*
X9034583Y-13986381D02*
X9025060Y-13948286D01*
X9025060Y-13948286D02*
X9025060Y-13900667D01*
X9025060Y-13900667D02*
X9034583Y-13862571D01*
X9034583Y-13862571D02*
X9044107Y-13843524D01*
X9044107Y-13843524D02*
X9053631Y-13834000D01*
X9053631Y-13834000D02*
X9072679Y-13824476D01*
X9263155Y-13824476D02*
X9282203Y-13824476D01*
X9282203Y-13824476D02*
X9301250Y-13834000D01*
X9301250Y-13834000D02*
X9310774Y-13843524D01*
X9310774Y-13843524D02*
X9320298Y-13862571D01*
X9320298Y-13862571D02*
X9329822Y-13900667D01*
X9329822Y-13900667D02*
X9329822Y-13948286D01*
X9329822Y-13948286D02*
X9320298Y-13986381D01*
X9320298Y-13986381D02*
X9310774Y-14005428D01*
X9310774Y-14005428D02*
X9301250Y-14014952D01*
X9301250Y-14014952D02*
X9282203Y-14024476D01*
X9282203Y-14024476D02*
X9263155Y-14024476D01*
X9263155Y-14024476D02*
X9244107Y-14014952D01*
X9244107Y-14014952D02*
X9234583Y-14005428D01*
X9234583Y-14005428D02*
X9225060Y-13986381D01*
X9225060Y-13986381D02*
X9215536Y-13948286D01*
X9215536Y-13948286D02*
X9215536Y-13900667D01*
X9215536Y-13900667D02*
X9225060Y-13862571D01*
X9225060Y-13862571D02*
X9234583Y-13843524D01*
X9234583Y-13843524D02*
X9244107Y-13834000D01*
X9244107Y-13834000D02*
X9263155Y-13824476D01*
X9453631Y-13824476D02*
X9472679Y-13824476D01*
X9472679Y-13824476D02*
X9491726Y-13834000D01*
X9491726Y-13834000D02*
X9501250Y-13843524D01*
X9501250Y-13843524D02*
X9510774Y-13862571D01*
X9510774Y-13862571D02*
X9520298Y-13900667D01*
X9520298Y-13900667D02*
X9520298Y-13948286D01*
X9520298Y-13948286D02*
X9510774Y-13986381D01*
X9510774Y-13986381D02*
X9501250Y-14005428D01*
X9501250Y-14005428D02*
X9491726Y-14014952D01*
X9491726Y-14014952D02*
X9472679Y-14024476D01*
X9472679Y-14024476D02*
X9453631Y-14024476D01*
X9453631Y-14024476D02*
X9434583Y-14014952D01*
X9434583Y-14014952D02*
X9425060Y-14005428D01*
X9425060Y-14005428D02*
X9415536Y-13986381D01*
X9415536Y-13986381D02*
X9406012Y-13948286D01*
X9406012Y-13948286D02*
X9406012Y-13900667D01*
X9406012Y-13900667D02*
X9415536Y-13862571D01*
X9415536Y-13862571D02*
X9425060Y-13843524D01*
X9425060Y-13843524D02*
X9434583Y-13834000D01*
X9434583Y-13834000D02*
X9453631Y-13824476D01*
X9606012Y-14024476D02*
X9606012Y-13891143D01*
X9606012Y-13910190D02*
X9615536Y-13900667D01*
X9615536Y-13900667D02*
X9634583Y-13891143D01*
X9634583Y-13891143D02*
X9663155Y-13891143D01*
X9663155Y-13891143D02*
X9682203Y-13900667D01*
X9682203Y-13900667D02*
X9691726Y-13919714D01*
X9691726Y-13919714D02*
X9691726Y-14024476D01*
X9691726Y-13919714D02*
X9701250Y-13900667D01*
X9701250Y-13900667D02*
X9720298Y-13891143D01*
X9720298Y-13891143D02*
X9748869Y-13891143D01*
X9748869Y-13891143D02*
X9767917Y-13900667D01*
X9767917Y-13900667D02*
X9777441Y-13919714D01*
X9777441Y-13919714D02*
X9777441Y-14024476D01*
X9872679Y-14024476D02*
X9872679Y-13891143D01*
X9872679Y-13910190D02*
X9882203Y-13900667D01*
X9882203Y-13900667D02*
X9901250Y-13891143D01*
X9901250Y-13891143D02*
X9929822Y-13891143D01*
X9929822Y-13891143D02*
X9948869Y-13900667D01*
X9948869Y-13900667D02*
X9958393Y-13919714D01*
X9958393Y-13919714D02*
X9958393Y-14024476D01*
X9958393Y-13919714D02*
X9967917Y-13900667D01*
X9967917Y-13900667D02*
X9986964Y-13891143D01*
X9986964Y-13891143D02*
X10015536Y-13891143D01*
X10015536Y-13891143D02*
X10034584Y-13900667D01*
X10034584Y-13900667D02*
X10044107Y-13919714D01*
X10044107Y-13919714D02*
X10044107Y-14024476D01*
X10402203Y-13814952D02*
X10230774Y-14072095D01*
X10626964Y-13824476D02*
X10646012Y-13824476D01*
X10646012Y-13824476D02*
X10665060Y-13834000D01*
X10665060Y-13834000D02*
X10674584Y-13843524D01*
X10674584Y-13843524D02*
X10684107Y-13862571D01*
X10684107Y-13862571D02*
X10693631Y-13900667D01*
X10693631Y-13900667D02*
X10693631Y-13948286D01*
X10693631Y-13948286D02*
X10684107Y-13986381D01*
X10684107Y-13986381D02*
X10674584Y-14005428D01*
X10674584Y-14005428D02*
X10665060Y-14014952D01*
X10665060Y-14014952D02*
X10646012Y-14024476D01*
X10646012Y-14024476D02*
X10626964Y-14024476D01*
X10626964Y-14024476D02*
X10607917Y-14014952D01*
X10607917Y-14014952D02*
X10598393Y-14005428D01*
X10598393Y-14005428D02*
X10588869Y-13986381D01*
X10588869Y-13986381D02*
X10579345Y-13948286D01*
X10579345Y-13948286D02*
X10579345Y-13900667D01*
X10579345Y-13900667D02*
X10588869Y-13862571D01*
X10588869Y-13862571D02*
X10598393Y-13843524D01*
X10598393Y-13843524D02*
X10607917Y-13834000D01*
X10607917Y-13834000D02*
X10626964Y-13824476D01*
X10779345Y-14005428D02*
X10788869Y-14014952D01*
X10788869Y-14014952D02*
X10779345Y-14024476D01*
X10779345Y-14024476D02*
X10769822Y-14014952D01*
X10769822Y-14014952D02*
X10779345Y-14005428D01*
X10779345Y-14005428D02*
X10779345Y-14024476D01*
X10912679Y-13824476D02*
X10931726Y-13824476D01*
X10931726Y-13824476D02*
X10950774Y-13834000D01*
X10950774Y-13834000D02*
X10960298Y-13843524D01*
X10960298Y-13843524D02*
X10969822Y-13862571D01*
X10969822Y-13862571D02*
X10979345Y-13900667D01*
X10979345Y-13900667D02*
X10979345Y-13948286D01*
X10979345Y-13948286D02*
X10969822Y-13986381D01*
X10969822Y-13986381D02*
X10960298Y-14005428D01*
X10960298Y-14005428D02*
X10950774Y-14014952D01*
X10950774Y-14014952D02*
X10931726Y-14024476D01*
X10931726Y-14024476D02*
X10912679Y-14024476D01*
X10912679Y-14024476D02*
X10893631Y-14014952D01*
X10893631Y-14014952D02*
X10884107Y-14005428D01*
X10884107Y-14005428D02*
X10874584Y-13986381D01*
X10874584Y-13986381D02*
X10865060Y-13948286D01*
X10865060Y-13948286D02*
X10865060Y-13900667D01*
X10865060Y-13900667D02*
X10874584Y-13862571D01*
X10874584Y-13862571D02*
X10884107Y-13843524D01*
X10884107Y-13843524D02*
X10893631Y-13834000D01*
X10893631Y-13834000D02*
X10912679Y-13824476D01*
X11046012Y-13824476D02*
X11169822Y-13824476D01*
X11169822Y-13824476D02*
X11103155Y-13900667D01*
X11103155Y-13900667D02*
X11131726Y-13900667D01*
X11131726Y-13900667D02*
X11150774Y-13910190D01*
X11150774Y-13910190D02*
X11160298Y-13919714D01*
X11160298Y-13919714D02*
X11169822Y-13938762D01*
X11169822Y-13938762D02*
X11169822Y-13986381D01*
X11169822Y-13986381D02*
X11160298Y-14005428D01*
X11160298Y-14005428D02*
X11150774Y-14014952D01*
X11150774Y-14014952D02*
X11131726Y-14024476D01*
X11131726Y-14024476D02*
X11074584Y-14024476D01*
X11074584Y-14024476D02*
X11055536Y-14014952D01*
X11055536Y-14014952D02*
X11046012Y-14005428D01*
X11265060Y-14024476D02*
X11303155Y-14024476D01*
X11303155Y-14024476D02*
X11322203Y-14014952D01*
X11322203Y-14014952D02*
X11331726Y-14005428D01*
X11331726Y-14005428D02*
X11350774Y-13976857D01*
X11350774Y-13976857D02*
X11360298Y-13938762D01*
X11360298Y-13938762D02*
X11360298Y-13862571D01*
X11360298Y-13862571D02*
X11350774Y-13843524D01*
X11350774Y-13843524D02*
X11341250Y-13834000D01*
X11341250Y-13834000D02*
X11322203Y-13824476D01*
X11322203Y-13824476D02*
X11284107Y-13824476D01*
X11284107Y-13824476D02*
X11265060Y-13834000D01*
X11265060Y-13834000D02*
X11255536Y-13843524D01*
X11255536Y-13843524D02*
X11246012Y-13862571D01*
X11246012Y-13862571D02*
X11246012Y-13910190D01*
X11246012Y-13910190D02*
X11255536Y-13929238D01*
X11255536Y-13929238D02*
X11265060Y-13938762D01*
X11265060Y-13938762D02*
X11284107Y-13948286D01*
X11284107Y-13948286D02*
X11322203Y-13948286D01*
X11322203Y-13948286D02*
X11341250Y-13938762D01*
X11341250Y-13938762D02*
X11350774Y-13929238D01*
X11350774Y-13929238D02*
X11360298Y-13910190D01*
X11531726Y-13891143D02*
X11531726Y-14024476D01*
X11484107Y-13814952D02*
X11436488Y-13957809D01*
X11436488Y-13957809D02*
X11560298Y-13957809D01*
X11626964Y-13824476D02*
X11626964Y-13862571D01*
X11703155Y-13824476D02*
X11703155Y-13862571D01*
X11966012Y-14100667D02*
X11956488Y-14091143D01*
X11956488Y-14091143D02*
X11937441Y-14062571D01*
X11937441Y-14062571D02*
X11927917Y-14043524D01*
X11927917Y-14043524D02*
X11918393Y-14014952D01*
X11918393Y-14014952D02*
X11908869Y-13967333D01*
X11908869Y-13967333D02*
X11908869Y-13929238D01*
X11908869Y-13929238D02*
X11918393Y-13881619D01*
X11918393Y-13881619D02*
X11927917Y-13853048D01*
X11927917Y-13853048D02*
X11937441Y-13834000D01*
X11937441Y-13834000D02*
X11956488Y-13805428D01*
X11956488Y-13805428D02*
X11966012Y-13795905D01*
X12032679Y-13843524D02*
X12042203Y-13834000D01*
X12042203Y-13834000D02*
X12061250Y-13824476D01*
X12061250Y-13824476D02*
X12108869Y-13824476D01*
X12108869Y-13824476D02*
X12127917Y-13834000D01*
X12127917Y-13834000D02*
X12137441Y-13843524D01*
X12137441Y-13843524D02*
X12146964Y-13862571D01*
X12146964Y-13862571D02*
X12146964Y-13881619D01*
X12146964Y-13881619D02*
X12137441Y-13910190D01*
X12137441Y-13910190D02*
X12023155Y-14024476D01*
X12023155Y-14024476D02*
X12146964Y-14024476D01*
X12261250Y-13910190D02*
X12242203Y-13900667D01*
X12242203Y-13900667D02*
X12232679Y-13891143D01*
X12232679Y-13891143D02*
X12223155Y-13872095D01*
X12223155Y-13872095D02*
X12223155Y-13862571D01*
X12223155Y-13862571D02*
X12232679Y-13843524D01*
X12232679Y-13843524D02*
X12242203Y-13834000D01*
X12242203Y-13834000D02*
X12261250Y-13824476D01*
X12261250Y-13824476D02*
X12299345Y-13824476D01*
X12299345Y-13824476D02*
X12318393Y-13834000D01*
X12318393Y-13834000D02*
X12327917Y-13843524D01*
X12327917Y-13843524D02*
X12337441Y-13862571D01*
X12337441Y-13862571D02*
X12337441Y-13872095D01*
X12337441Y-13872095D02*
X12327917Y-13891143D01*
X12327917Y-13891143D02*
X12318393Y-13900667D01*
X12318393Y-13900667D02*
X12299345Y-13910190D01*
X12299345Y-13910190D02*
X12261250Y-13910190D01*
X12261250Y-13910190D02*
X12242203Y-13919714D01*
X12242203Y-13919714D02*
X12232679Y-13929238D01*
X12232679Y-13929238D02*
X12223155Y-13948286D01*
X12223155Y-13948286D02*
X12223155Y-13986381D01*
X12223155Y-13986381D02*
X12232679Y-14005428D01*
X12232679Y-14005428D02*
X12242203Y-14014952D01*
X12242203Y-14014952D02*
X12261250Y-14024476D01*
X12261250Y-14024476D02*
X12299345Y-14024476D01*
X12299345Y-14024476D02*
X12318393Y-14014952D01*
X12318393Y-14014952D02*
X12327917Y-14005428D01*
X12327917Y-14005428D02*
X12337441Y-13986381D01*
X12337441Y-13986381D02*
X12337441Y-13948286D01*
X12337441Y-13948286D02*
X12327917Y-13929238D01*
X12327917Y-13929238D02*
X12318393Y-13919714D01*
X12318393Y-13919714D02*
X12299345Y-13910190D01*
X12543155Y-14024476D02*
X12543155Y-13824476D01*
X12628869Y-14024476D02*
X12628869Y-13919714D01*
X12628869Y-13919714D02*
X12619345Y-13900667D01*
X12619345Y-13900667D02*
X12600298Y-13891143D01*
X12600298Y-13891143D02*
X12571726Y-13891143D01*
X12571726Y-13891143D02*
X12552679Y-13900667D01*
X12552679Y-13900667D02*
X12543155Y-13910190D01*
X12752679Y-14024476D02*
X12733631Y-14014952D01*
X12733631Y-14014952D02*
X12724107Y-14005428D01*
X12724107Y-14005428D02*
X12714584Y-13986381D01*
X12714584Y-13986381D02*
X12714584Y-13929238D01*
X12714584Y-13929238D02*
X12724107Y-13910190D01*
X12724107Y-13910190D02*
X12733631Y-13900667D01*
X12733631Y-13900667D02*
X12752679Y-13891143D01*
X12752679Y-13891143D02*
X12781250Y-13891143D01*
X12781250Y-13891143D02*
X12800298Y-13900667D01*
X12800298Y-13900667D02*
X12809822Y-13910190D01*
X12809822Y-13910190D02*
X12819345Y-13929238D01*
X12819345Y-13929238D02*
X12819345Y-13986381D01*
X12819345Y-13986381D02*
X12809822Y-14005428D01*
X12809822Y-14005428D02*
X12800298Y-14014952D01*
X12800298Y-14014952D02*
X12781250Y-14024476D01*
X12781250Y-14024476D02*
X12752679Y-14024476D01*
X12933631Y-14024476D02*
X12914584Y-14014952D01*
X12914584Y-14014952D02*
X12905060Y-13995905D01*
X12905060Y-13995905D02*
X12905060Y-13824476D01*
X13086012Y-14014952D02*
X13066965Y-14024476D01*
X13066965Y-14024476D02*
X13028869Y-14024476D01*
X13028869Y-14024476D02*
X13009822Y-14014952D01*
X13009822Y-14014952D02*
X13000298Y-13995905D01*
X13000298Y-13995905D02*
X13000298Y-13919714D01*
X13000298Y-13919714D02*
X13009822Y-13900667D01*
X13009822Y-13900667D02*
X13028869Y-13891143D01*
X13028869Y-13891143D02*
X13066965Y-13891143D01*
X13066965Y-13891143D02*
X13086012Y-13900667D01*
X13086012Y-13900667D02*
X13095536Y-13919714D01*
X13095536Y-13919714D02*
X13095536Y-13938762D01*
X13095536Y-13938762D02*
X13000298Y-13957809D01*
X13171726Y-14014952D02*
X13190774Y-14024476D01*
X13190774Y-14024476D02*
X13228869Y-14024476D01*
X13228869Y-14024476D02*
X13247917Y-14014952D01*
X13247917Y-14014952D02*
X13257441Y-13995905D01*
X13257441Y-13995905D02*
X13257441Y-13986381D01*
X13257441Y-13986381D02*
X13247917Y-13967333D01*
X13247917Y-13967333D02*
X13228869Y-13957809D01*
X13228869Y-13957809D02*
X13200298Y-13957809D01*
X13200298Y-13957809D02*
X13181250Y-13948286D01*
X13181250Y-13948286D02*
X13171726Y-13929238D01*
X13171726Y-13929238D02*
X13171726Y-13919714D01*
X13171726Y-13919714D02*
X13181250Y-13900667D01*
X13181250Y-13900667D02*
X13200298Y-13891143D01*
X13200298Y-13891143D02*
X13228869Y-13891143D01*
X13228869Y-13891143D02*
X13247917Y-13900667D01*
X13324107Y-14100667D02*
X13333631Y-14091143D01*
X13333631Y-14091143D02*
X13352679Y-14062571D01*
X13352679Y-14062571D02*
X13362203Y-14043524D01*
X13362203Y-14043524D02*
X13371726Y-14014952D01*
X13371726Y-14014952D02*
X13381250Y-13967333D01*
X13381250Y-13967333D02*
X13381250Y-13929238D01*
X13381250Y-13929238D02*
X13371726Y-13881619D01*
X13371726Y-13881619D02*
X13362203Y-13853048D01*
X13362203Y-13853048D02*
X13352679Y-13834000D01*
X13352679Y-13834000D02*
X13333631Y-13805428D01*
X13333631Y-13805428D02*
X13324107Y-13795905D01*
D16*
X8391250Y-14160000D02*
X8501250Y-14270000D01*
X8501250Y-14160000D02*
X8391250Y-14270000D01*
X8501250Y-14215000D02*
G75*
G03*
X8501250Y-14215000I-55000J0D01*
G01*
D11*
X8853631Y-14288476D02*
X8739345Y-14288476D01*
X8796488Y-14288476D02*
X8796488Y-14088476D01*
X8796488Y-14088476D02*
X8777441Y-14117048D01*
X8777441Y-14117048D02*
X8758393Y-14136095D01*
X8758393Y-14136095D02*
X8739345Y-14145619D01*
X8939345Y-14269428D02*
X8948869Y-14278952D01*
X8948869Y-14278952D02*
X8939345Y-14288476D01*
X8939345Y-14288476D02*
X8929822Y-14278952D01*
X8929822Y-14278952D02*
X8939345Y-14269428D01*
X8939345Y-14269428D02*
X8939345Y-14288476D01*
X9139345Y-14288476D02*
X9025060Y-14288476D01*
X9082202Y-14288476D02*
X9082202Y-14088476D01*
X9082202Y-14088476D02*
X9063155Y-14117048D01*
X9063155Y-14117048D02*
X9044107Y-14136095D01*
X9044107Y-14136095D02*
X9025060Y-14145619D01*
X9263155Y-14088476D02*
X9282203Y-14088476D01*
X9282203Y-14088476D02*
X9301250Y-14098000D01*
X9301250Y-14098000D02*
X9310774Y-14107524D01*
X9310774Y-14107524D02*
X9320298Y-14126571D01*
X9320298Y-14126571D02*
X9329822Y-14164667D01*
X9329822Y-14164667D02*
X9329822Y-14212286D01*
X9329822Y-14212286D02*
X9320298Y-14250381D01*
X9320298Y-14250381D02*
X9310774Y-14269428D01*
X9310774Y-14269428D02*
X9301250Y-14278952D01*
X9301250Y-14278952D02*
X9282203Y-14288476D01*
X9282203Y-14288476D02*
X9263155Y-14288476D01*
X9263155Y-14288476D02*
X9244107Y-14278952D01*
X9244107Y-14278952D02*
X9234583Y-14269428D01*
X9234583Y-14269428D02*
X9225060Y-14250381D01*
X9225060Y-14250381D02*
X9215536Y-14212286D01*
X9215536Y-14212286D02*
X9215536Y-14164667D01*
X9215536Y-14164667D02*
X9225060Y-14126571D01*
X9225060Y-14126571D02*
X9234583Y-14107524D01*
X9234583Y-14107524D02*
X9244107Y-14098000D01*
X9244107Y-14098000D02*
X9263155Y-14088476D01*
X9453631Y-14088476D02*
X9472679Y-14088476D01*
X9472679Y-14088476D02*
X9491726Y-14098000D01*
X9491726Y-14098000D02*
X9501250Y-14107524D01*
X9501250Y-14107524D02*
X9510774Y-14126571D01*
X9510774Y-14126571D02*
X9520298Y-14164667D01*
X9520298Y-14164667D02*
X9520298Y-14212286D01*
X9520298Y-14212286D02*
X9510774Y-14250381D01*
X9510774Y-14250381D02*
X9501250Y-14269428D01*
X9501250Y-14269428D02*
X9491726Y-14278952D01*
X9491726Y-14278952D02*
X9472679Y-14288476D01*
X9472679Y-14288476D02*
X9453631Y-14288476D01*
X9453631Y-14288476D02*
X9434583Y-14278952D01*
X9434583Y-14278952D02*
X9425060Y-14269428D01*
X9425060Y-14269428D02*
X9415536Y-14250381D01*
X9415536Y-14250381D02*
X9406012Y-14212286D01*
X9406012Y-14212286D02*
X9406012Y-14164667D01*
X9406012Y-14164667D02*
X9415536Y-14126571D01*
X9415536Y-14126571D02*
X9425060Y-14107524D01*
X9425060Y-14107524D02*
X9434583Y-14098000D01*
X9434583Y-14098000D02*
X9453631Y-14088476D01*
X9606012Y-14288476D02*
X9606012Y-14155143D01*
X9606012Y-14174190D02*
X9615536Y-14164667D01*
X9615536Y-14164667D02*
X9634583Y-14155143D01*
X9634583Y-14155143D02*
X9663155Y-14155143D01*
X9663155Y-14155143D02*
X9682203Y-14164667D01*
X9682203Y-14164667D02*
X9691726Y-14183714D01*
X9691726Y-14183714D02*
X9691726Y-14288476D01*
X9691726Y-14183714D02*
X9701250Y-14164667D01*
X9701250Y-14164667D02*
X9720298Y-14155143D01*
X9720298Y-14155143D02*
X9748869Y-14155143D01*
X9748869Y-14155143D02*
X9767917Y-14164667D01*
X9767917Y-14164667D02*
X9777441Y-14183714D01*
X9777441Y-14183714D02*
X9777441Y-14288476D01*
X9872679Y-14288476D02*
X9872679Y-14155143D01*
X9872679Y-14174190D02*
X9882203Y-14164667D01*
X9882203Y-14164667D02*
X9901250Y-14155143D01*
X9901250Y-14155143D02*
X9929822Y-14155143D01*
X9929822Y-14155143D02*
X9948869Y-14164667D01*
X9948869Y-14164667D02*
X9958393Y-14183714D01*
X9958393Y-14183714D02*
X9958393Y-14288476D01*
X9958393Y-14183714D02*
X9967917Y-14164667D01*
X9967917Y-14164667D02*
X9986964Y-14155143D01*
X9986964Y-14155143D02*
X10015536Y-14155143D01*
X10015536Y-14155143D02*
X10034584Y-14164667D01*
X10034584Y-14164667D02*
X10044107Y-14183714D01*
X10044107Y-14183714D02*
X10044107Y-14288476D01*
X10402203Y-14078952D02*
X10230774Y-14336095D01*
X10626964Y-14088476D02*
X10646012Y-14088476D01*
X10646012Y-14088476D02*
X10665060Y-14098000D01*
X10665060Y-14098000D02*
X10674584Y-14107524D01*
X10674584Y-14107524D02*
X10684107Y-14126571D01*
X10684107Y-14126571D02*
X10693631Y-14164667D01*
X10693631Y-14164667D02*
X10693631Y-14212286D01*
X10693631Y-14212286D02*
X10684107Y-14250381D01*
X10684107Y-14250381D02*
X10674584Y-14269428D01*
X10674584Y-14269428D02*
X10665060Y-14278952D01*
X10665060Y-14278952D02*
X10646012Y-14288476D01*
X10646012Y-14288476D02*
X10626964Y-14288476D01*
X10626964Y-14288476D02*
X10607917Y-14278952D01*
X10607917Y-14278952D02*
X10598393Y-14269428D01*
X10598393Y-14269428D02*
X10588869Y-14250381D01*
X10588869Y-14250381D02*
X10579345Y-14212286D01*
X10579345Y-14212286D02*
X10579345Y-14164667D01*
X10579345Y-14164667D02*
X10588869Y-14126571D01*
X10588869Y-14126571D02*
X10598393Y-14107524D01*
X10598393Y-14107524D02*
X10607917Y-14098000D01*
X10607917Y-14098000D02*
X10626964Y-14088476D01*
X10779345Y-14269428D02*
X10788869Y-14278952D01*
X10788869Y-14278952D02*
X10779345Y-14288476D01*
X10779345Y-14288476D02*
X10769822Y-14278952D01*
X10769822Y-14278952D02*
X10779345Y-14269428D01*
X10779345Y-14269428D02*
X10779345Y-14288476D01*
X10912679Y-14088476D02*
X10931726Y-14088476D01*
X10931726Y-14088476D02*
X10950774Y-14098000D01*
X10950774Y-14098000D02*
X10960298Y-14107524D01*
X10960298Y-14107524D02*
X10969822Y-14126571D01*
X10969822Y-14126571D02*
X10979345Y-14164667D01*
X10979345Y-14164667D02*
X10979345Y-14212286D01*
X10979345Y-14212286D02*
X10969822Y-14250381D01*
X10969822Y-14250381D02*
X10960298Y-14269428D01*
X10960298Y-14269428D02*
X10950774Y-14278952D01*
X10950774Y-14278952D02*
X10931726Y-14288476D01*
X10931726Y-14288476D02*
X10912679Y-14288476D01*
X10912679Y-14288476D02*
X10893631Y-14278952D01*
X10893631Y-14278952D02*
X10884107Y-14269428D01*
X10884107Y-14269428D02*
X10874584Y-14250381D01*
X10874584Y-14250381D02*
X10865060Y-14212286D01*
X10865060Y-14212286D02*
X10865060Y-14164667D01*
X10865060Y-14164667D02*
X10874584Y-14126571D01*
X10874584Y-14126571D02*
X10884107Y-14107524D01*
X10884107Y-14107524D02*
X10893631Y-14098000D01*
X10893631Y-14098000D02*
X10912679Y-14088476D01*
X11150774Y-14155143D02*
X11150774Y-14288476D01*
X11103155Y-14078952D02*
X11055536Y-14221809D01*
X11055536Y-14221809D02*
X11179345Y-14221809D01*
X11236488Y-14088476D02*
X11360298Y-14088476D01*
X11360298Y-14088476D02*
X11293631Y-14164667D01*
X11293631Y-14164667D02*
X11322203Y-14164667D01*
X11322203Y-14164667D02*
X11341250Y-14174190D01*
X11341250Y-14174190D02*
X11350774Y-14183714D01*
X11350774Y-14183714D02*
X11360298Y-14202762D01*
X11360298Y-14202762D02*
X11360298Y-14250381D01*
X11360298Y-14250381D02*
X11350774Y-14269428D01*
X11350774Y-14269428D02*
X11341250Y-14278952D01*
X11341250Y-14278952D02*
X11322203Y-14288476D01*
X11322203Y-14288476D02*
X11265060Y-14288476D01*
X11265060Y-14288476D02*
X11246012Y-14278952D01*
X11246012Y-14278952D02*
X11236488Y-14269428D01*
X11426964Y-14088476D02*
X11550774Y-14088476D01*
X11550774Y-14088476D02*
X11484107Y-14164667D01*
X11484107Y-14164667D02*
X11512679Y-14164667D01*
X11512679Y-14164667D02*
X11531726Y-14174190D01*
X11531726Y-14174190D02*
X11541250Y-14183714D01*
X11541250Y-14183714D02*
X11550774Y-14202762D01*
X11550774Y-14202762D02*
X11550774Y-14250381D01*
X11550774Y-14250381D02*
X11541250Y-14269428D01*
X11541250Y-14269428D02*
X11531726Y-14278952D01*
X11531726Y-14278952D02*
X11512679Y-14288476D01*
X11512679Y-14288476D02*
X11455536Y-14288476D01*
X11455536Y-14288476D02*
X11436488Y-14278952D01*
X11436488Y-14278952D02*
X11426964Y-14269428D01*
X11626964Y-14088476D02*
X11626964Y-14126571D01*
X11703155Y-14088476D02*
X11703155Y-14126571D01*
X11966012Y-14364667D02*
X11956488Y-14355143D01*
X11956488Y-14355143D02*
X11937441Y-14326571D01*
X11937441Y-14326571D02*
X11927917Y-14307524D01*
X11927917Y-14307524D02*
X11918393Y-14278952D01*
X11918393Y-14278952D02*
X11908869Y-14231333D01*
X11908869Y-14231333D02*
X11908869Y-14193238D01*
X11908869Y-14193238D02*
X11918393Y-14145619D01*
X11918393Y-14145619D02*
X11927917Y-14117048D01*
X11927917Y-14117048D02*
X11937441Y-14098000D01*
X11937441Y-14098000D02*
X11956488Y-14069428D01*
X11956488Y-14069428D02*
X11966012Y-14059905D01*
X12070774Y-14174190D02*
X12051726Y-14164667D01*
X12051726Y-14164667D02*
X12042203Y-14155143D01*
X12042203Y-14155143D02*
X12032679Y-14136095D01*
X12032679Y-14136095D02*
X12032679Y-14126571D01*
X12032679Y-14126571D02*
X12042203Y-14107524D01*
X12042203Y-14107524D02*
X12051726Y-14098000D01*
X12051726Y-14098000D02*
X12070774Y-14088476D01*
X12070774Y-14088476D02*
X12108869Y-14088476D01*
X12108869Y-14088476D02*
X12127917Y-14098000D01*
X12127917Y-14098000D02*
X12137441Y-14107524D01*
X12137441Y-14107524D02*
X12146964Y-14126571D01*
X12146964Y-14126571D02*
X12146964Y-14136095D01*
X12146964Y-14136095D02*
X12137441Y-14155143D01*
X12137441Y-14155143D02*
X12127917Y-14164667D01*
X12127917Y-14164667D02*
X12108869Y-14174190D01*
X12108869Y-14174190D02*
X12070774Y-14174190D01*
X12070774Y-14174190D02*
X12051726Y-14183714D01*
X12051726Y-14183714D02*
X12042203Y-14193238D01*
X12042203Y-14193238D02*
X12032679Y-14212286D01*
X12032679Y-14212286D02*
X12032679Y-14250381D01*
X12032679Y-14250381D02*
X12042203Y-14269428D01*
X12042203Y-14269428D02*
X12051726Y-14278952D01*
X12051726Y-14278952D02*
X12070774Y-14288476D01*
X12070774Y-14288476D02*
X12108869Y-14288476D01*
X12108869Y-14288476D02*
X12127917Y-14278952D01*
X12127917Y-14278952D02*
X12137441Y-14269428D01*
X12137441Y-14269428D02*
X12146964Y-14250381D01*
X12146964Y-14250381D02*
X12146964Y-14212286D01*
X12146964Y-14212286D02*
X12137441Y-14193238D01*
X12137441Y-14193238D02*
X12127917Y-14183714D01*
X12127917Y-14183714D02*
X12108869Y-14174190D01*
X12352679Y-14288476D02*
X12352679Y-14088476D01*
X12438393Y-14288476D02*
X12438393Y-14183714D01*
X12438393Y-14183714D02*
X12428869Y-14164667D01*
X12428869Y-14164667D02*
X12409822Y-14155143D01*
X12409822Y-14155143D02*
X12381250Y-14155143D01*
X12381250Y-14155143D02*
X12362203Y-14164667D01*
X12362203Y-14164667D02*
X12352679Y-14174190D01*
X12562203Y-14288476D02*
X12543155Y-14278952D01*
X12543155Y-14278952D02*
X12533631Y-14269428D01*
X12533631Y-14269428D02*
X12524107Y-14250381D01*
X12524107Y-14250381D02*
X12524107Y-14193238D01*
X12524107Y-14193238D02*
X12533631Y-14174190D01*
X12533631Y-14174190D02*
X12543155Y-14164667D01*
X12543155Y-14164667D02*
X12562203Y-14155143D01*
X12562203Y-14155143D02*
X12590774Y-14155143D01*
X12590774Y-14155143D02*
X12609822Y-14164667D01*
X12609822Y-14164667D02*
X12619345Y-14174190D01*
X12619345Y-14174190D02*
X12628869Y-14193238D01*
X12628869Y-14193238D02*
X12628869Y-14250381D01*
X12628869Y-14250381D02*
X12619345Y-14269428D01*
X12619345Y-14269428D02*
X12609822Y-14278952D01*
X12609822Y-14278952D02*
X12590774Y-14288476D01*
X12590774Y-14288476D02*
X12562203Y-14288476D01*
X12743155Y-14288476D02*
X12724107Y-14278952D01*
X12724107Y-14278952D02*
X12714584Y-14259905D01*
X12714584Y-14259905D02*
X12714584Y-14088476D01*
X12895536Y-14278952D02*
X12876488Y-14288476D01*
X12876488Y-14288476D02*
X12838393Y-14288476D01*
X12838393Y-14288476D02*
X12819345Y-14278952D01*
X12819345Y-14278952D02*
X12809822Y-14259905D01*
X12809822Y-14259905D02*
X12809822Y-14183714D01*
X12809822Y-14183714D02*
X12819345Y-14164667D01*
X12819345Y-14164667D02*
X12838393Y-14155143D01*
X12838393Y-14155143D02*
X12876488Y-14155143D01*
X12876488Y-14155143D02*
X12895536Y-14164667D01*
X12895536Y-14164667D02*
X12905060Y-14183714D01*
X12905060Y-14183714D02*
X12905060Y-14202762D01*
X12905060Y-14202762D02*
X12809822Y-14221809D01*
X12981250Y-14278952D02*
X13000298Y-14288476D01*
X13000298Y-14288476D02*
X13038393Y-14288476D01*
X13038393Y-14288476D02*
X13057441Y-14278952D01*
X13057441Y-14278952D02*
X13066965Y-14259905D01*
X13066965Y-14259905D02*
X13066965Y-14250381D01*
X13066965Y-14250381D02*
X13057441Y-14231333D01*
X13057441Y-14231333D02*
X13038393Y-14221809D01*
X13038393Y-14221809D02*
X13009822Y-14221809D01*
X13009822Y-14221809D02*
X12990774Y-14212286D01*
X12990774Y-14212286D02*
X12981250Y-14193238D01*
X12981250Y-14193238D02*
X12981250Y-14183714D01*
X12981250Y-14183714D02*
X12990774Y-14164667D01*
X12990774Y-14164667D02*
X13009822Y-14155143D01*
X13009822Y-14155143D02*
X13038393Y-14155143D01*
X13038393Y-14155143D02*
X13057441Y-14164667D01*
X13133631Y-14364667D02*
X13143155Y-14355143D01*
X13143155Y-14355143D02*
X13162203Y-14326571D01*
X13162203Y-14326571D02*
X13171726Y-14307524D01*
X13171726Y-14307524D02*
X13181250Y-14278952D01*
X13181250Y-14278952D02*
X13190774Y-14231333D01*
X13190774Y-14231333D02*
X13190774Y-14193238D01*
X13190774Y-14193238D02*
X13181250Y-14145619D01*
X13181250Y-14145619D02*
X13171726Y-14117048D01*
X13171726Y-14117048D02*
X13162203Y-14098000D01*
X13162203Y-14098000D02*
X13143155Y-14069428D01*
X13143155Y-14069428D02*
X13133631Y-14059905D01*
D17*
X8371250Y-14414000D02*
X8501250Y-14544000D01*
X8501250Y-14414000D02*
X8371250Y-14544000D01*
X8436250Y-14414000D02*
X8436250Y-14544000D01*
X8371250Y-14479000D02*
X8501250Y-14479000D01*
D11*
X8853631Y-14552476D02*
X8739345Y-14552476D01*
X8796488Y-14552476D02*
X8796488Y-14352476D01*
X8796488Y-14352476D02*
X8777441Y-14381048D01*
X8777441Y-14381048D02*
X8758393Y-14400095D01*
X8758393Y-14400095D02*
X8739345Y-14409619D01*
X8939345Y-14533428D02*
X8948869Y-14542952D01*
X8948869Y-14542952D02*
X8939345Y-14552476D01*
X8939345Y-14552476D02*
X8929822Y-14542952D01*
X8929822Y-14542952D02*
X8939345Y-14533428D01*
X8939345Y-14533428D02*
X8939345Y-14552476D01*
X9015536Y-14352476D02*
X9139345Y-14352476D01*
X9139345Y-14352476D02*
X9072679Y-14428667D01*
X9072679Y-14428667D02*
X9101250Y-14428667D01*
X9101250Y-14428667D02*
X9120298Y-14438190D01*
X9120298Y-14438190D02*
X9129822Y-14447714D01*
X9129822Y-14447714D02*
X9139345Y-14466762D01*
X9139345Y-14466762D02*
X9139345Y-14514381D01*
X9139345Y-14514381D02*
X9129822Y-14533428D01*
X9129822Y-14533428D02*
X9120298Y-14542952D01*
X9120298Y-14542952D02*
X9101250Y-14552476D01*
X9101250Y-14552476D02*
X9044107Y-14552476D01*
X9044107Y-14552476D02*
X9025060Y-14542952D01*
X9025060Y-14542952D02*
X9015536Y-14533428D01*
X9263155Y-14352476D02*
X9282203Y-14352476D01*
X9282203Y-14352476D02*
X9301250Y-14362000D01*
X9301250Y-14362000D02*
X9310774Y-14371524D01*
X9310774Y-14371524D02*
X9320298Y-14390571D01*
X9320298Y-14390571D02*
X9329822Y-14428667D01*
X9329822Y-14428667D02*
X9329822Y-14476286D01*
X9329822Y-14476286D02*
X9320298Y-14514381D01*
X9320298Y-14514381D02*
X9310774Y-14533428D01*
X9310774Y-14533428D02*
X9301250Y-14542952D01*
X9301250Y-14542952D02*
X9282203Y-14552476D01*
X9282203Y-14552476D02*
X9263155Y-14552476D01*
X9263155Y-14552476D02*
X9244107Y-14542952D01*
X9244107Y-14542952D02*
X9234583Y-14533428D01*
X9234583Y-14533428D02*
X9225060Y-14514381D01*
X9225060Y-14514381D02*
X9215536Y-14476286D01*
X9215536Y-14476286D02*
X9215536Y-14428667D01*
X9215536Y-14428667D02*
X9225060Y-14390571D01*
X9225060Y-14390571D02*
X9234583Y-14371524D01*
X9234583Y-14371524D02*
X9244107Y-14362000D01*
X9244107Y-14362000D02*
X9263155Y-14352476D01*
X9453631Y-14352476D02*
X9472679Y-14352476D01*
X9472679Y-14352476D02*
X9491726Y-14362000D01*
X9491726Y-14362000D02*
X9501250Y-14371524D01*
X9501250Y-14371524D02*
X9510774Y-14390571D01*
X9510774Y-14390571D02*
X9520298Y-14428667D01*
X9520298Y-14428667D02*
X9520298Y-14476286D01*
X9520298Y-14476286D02*
X9510774Y-14514381D01*
X9510774Y-14514381D02*
X9501250Y-14533428D01*
X9501250Y-14533428D02*
X9491726Y-14542952D01*
X9491726Y-14542952D02*
X9472679Y-14552476D01*
X9472679Y-14552476D02*
X9453631Y-14552476D01*
X9453631Y-14552476D02*
X9434583Y-14542952D01*
X9434583Y-14542952D02*
X9425060Y-14533428D01*
X9425060Y-14533428D02*
X9415536Y-14514381D01*
X9415536Y-14514381D02*
X9406012Y-14476286D01*
X9406012Y-14476286D02*
X9406012Y-14428667D01*
X9406012Y-14428667D02*
X9415536Y-14390571D01*
X9415536Y-14390571D02*
X9425060Y-14371524D01*
X9425060Y-14371524D02*
X9434583Y-14362000D01*
X9434583Y-14362000D02*
X9453631Y-14352476D01*
X9606012Y-14552476D02*
X9606012Y-14419143D01*
X9606012Y-14438190D02*
X9615536Y-14428667D01*
X9615536Y-14428667D02*
X9634583Y-14419143D01*
X9634583Y-14419143D02*
X9663155Y-14419143D01*
X9663155Y-14419143D02*
X9682203Y-14428667D01*
X9682203Y-14428667D02*
X9691726Y-14447714D01*
X9691726Y-14447714D02*
X9691726Y-14552476D01*
X9691726Y-14447714D02*
X9701250Y-14428667D01*
X9701250Y-14428667D02*
X9720298Y-14419143D01*
X9720298Y-14419143D02*
X9748869Y-14419143D01*
X9748869Y-14419143D02*
X9767917Y-14428667D01*
X9767917Y-14428667D02*
X9777441Y-14447714D01*
X9777441Y-14447714D02*
X9777441Y-14552476D01*
X9872679Y-14552476D02*
X9872679Y-14419143D01*
X9872679Y-14438190D02*
X9882203Y-14428667D01*
X9882203Y-14428667D02*
X9901250Y-14419143D01*
X9901250Y-14419143D02*
X9929822Y-14419143D01*
X9929822Y-14419143D02*
X9948869Y-14428667D01*
X9948869Y-14428667D02*
X9958393Y-14447714D01*
X9958393Y-14447714D02*
X9958393Y-14552476D01*
X9958393Y-14447714D02*
X9967917Y-14428667D01*
X9967917Y-14428667D02*
X9986964Y-14419143D01*
X9986964Y-14419143D02*
X10015536Y-14419143D01*
X10015536Y-14419143D02*
X10034584Y-14428667D01*
X10034584Y-14428667D02*
X10044107Y-14447714D01*
X10044107Y-14447714D02*
X10044107Y-14552476D01*
X10402203Y-14342952D02*
X10230774Y-14600095D01*
X10626964Y-14352476D02*
X10646012Y-14352476D01*
X10646012Y-14352476D02*
X10665060Y-14362000D01*
X10665060Y-14362000D02*
X10674584Y-14371524D01*
X10674584Y-14371524D02*
X10684107Y-14390571D01*
X10684107Y-14390571D02*
X10693631Y-14428667D01*
X10693631Y-14428667D02*
X10693631Y-14476286D01*
X10693631Y-14476286D02*
X10684107Y-14514381D01*
X10684107Y-14514381D02*
X10674584Y-14533428D01*
X10674584Y-14533428D02*
X10665060Y-14542952D01*
X10665060Y-14542952D02*
X10646012Y-14552476D01*
X10646012Y-14552476D02*
X10626964Y-14552476D01*
X10626964Y-14552476D02*
X10607917Y-14542952D01*
X10607917Y-14542952D02*
X10598393Y-14533428D01*
X10598393Y-14533428D02*
X10588869Y-14514381D01*
X10588869Y-14514381D02*
X10579345Y-14476286D01*
X10579345Y-14476286D02*
X10579345Y-14428667D01*
X10579345Y-14428667D02*
X10588869Y-14390571D01*
X10588869Y-14390571D02*
X10598393Y-14371524D01*
X10598393Y-14371524D02*
X10607917Y-14362000D01*
X10607917Y-14362000D02*
X10626964Y-14352476D01*
X10779345Y-14533428D02*
X10788869Y-14542952D01*
X10788869Y-14542952D02*
X10779345Y-14552476D01*
X10779345Y-14552476D02*
X10769822Y-14542952D01*
X10769822Y-14542952D02*
X10779345Y-14533428D01*
X10779345Y-14533428D02*
X10779345Y-14552476D01*
X10912679Y-14352476D02*
X10931726Y-14352476D01*
X10931726Y-14352476D02*
X10950774Y-14362000D01*
X10950774Y-14362000D02*
X10960298Y-14371524D01*
X10960298Y-14371524D02*
X10969822Y-14390571D01*
X10969822Y-14390571D02*
X10979345Y-14428667D01*
X10979345Y-14428667D02*
X10979345Y-14476286D01*
X10979345Y-14476286D02*
X10969822Y-14514381D01*
X10969822Y-14514381D02*
X10960298Y-14533428D01*
X10960298Y-14533428D02*
X10950774Y-14542952D01*
X10950774Y-14542952D02*
X10931726Y-14552476D01*
X10931726Y-14552476D02*
X10912679Y-14552476D01*
X10912679Y-14552476D02*
X10893631Y-14542952D01*
X10893631Y-14542952D02*
X10884107Y-14533428D01*
X10884107Y-14533428D02*
X10874584Y-14514381D01*
X10874584Y-14514381D02*
X10865060Y-14476286D01*
X10865060Y-14476286D02*
X10865060Y-14428667D01*
X10865060Y-14428667D02*
X10874584Y-14390571D01*
X10874584Y-14390571D02*
X10884107Y-14371524D01*
X10884107Y-14371524D02*
X10893631Y-14362000D01*
X10893631Y-14362000D02*
X10912679Y-14352476D01*
X11160298Y-14352476D02*
X11065060Y-14352476D01*
X11065060Y-14352476D02*
X11055536Y-14447714D01*
X11055536Y-14447714D02*
X11065060Y-14438190D01*
X11065060Y-14438190D02*
X11084107Y-14428667D01*
X11084107Y-14428667D02*
X11131726Y-14428667D01*
X11131726Y-14428667D02*
X11150774Y-14438190D01*
X11150774Y-14438190D02*
X11160298Y-14447714D01*
X11160298Y-14447714D02*
X11169822Y-14466762D01*
X11169822Y-14466762D02*
X11169822Y-14514381D01*
X11169822Y-14514381D02*
X11160298Y-14533428D01*
X11160298Y-14533428D02*
X11150774Y-14542952D01*
X11150774Y-14542952D02*
X11131726Y-14552476D01*
X11131726Y-14552476D02*
X11084107Y-14552476D01*
X11084107Y-14552476D02*
X11065060Y-14542952D01*
X11065060Y-14542952D02*
X11055536Y-14533428D01*
X11360298Y-14552476D02*
X11246012Y-14552476D01*
X11303155Y-14552476D02*
X11303155Y-14352476D01*
X11303155Y-14352476D02*
X11284107Y-14381048D01*
X11284107Y-14381048D02*
X11265060Y-14400095D01*
X11265060Y-14400095D02*
X11246012Y-14409619D01*
X11436488Y-14371524D02*
X11446012Y-14362000D01*
X11446012Y-14362000D02*
X11465060Y-14352476D01*
X11465060Y-14352476D02*
X11512679Y-14352476D01*
X11512679Y-14352476D02*
X11531726Y-14362000D01*
X11531726Y-14362000D02*
X11541250Y-14371524D01*
X11541250Y-14371524D02*
X11550774Y-14390571D01*
X11550774Y-14390571D02*
X11550774Y-14409619D01*
X11550774Y-14409619D02*
X11541250Y-14438190D01*
X11541250Y-14438190D02*
X11426964Y-14552476D01*
X11426964Y-14552476D02*
X11550774Y-14552476D01*
X11626964Y-14352476D02*
X11626964Y-14390571D01*
X11703155Y-14352476D02*
X11703155Y-14390571D01*
X11966012Y-14628667D02*
X11956488Y-14619143D01*
X11956488Y-14619143D02*
X11937441Y-14590571D01*
X11937441Y-14590571D02*
X11927917Y-14571524D01*
X11927917Y-14571524D02*
X11918393Y-14542952D01*
X11918393Y-14542952D02*
X11908869Y-14495333D01*
X11908869Y-14495333D02*
X11908869Y-14457238D01*
X11908869Y-14457238D02*
X11918393Y-14409619D01*
X11918393Y-14409619D02*
X11927917Y-14381048D01*
X11927917Y-14381048D02*
X11937441Y-14362000D01*
X11937441Y-14362000D02*
X11956488Y-14333428D01*
X11956488Y-14333428D02*
X11966012Y-14323905D01*
X12127917Y-14419143D02*
X12127917Y-14552476D01*
X12080298Y-14342952D02*
X12032679Y-14485809D01*
X12032679Y-14485809D02*
X12156488Y-14485809D01*
X12352679Y-14552476D02*
X12352679Y-14352476D01*
X12438393Y-14552476D02*
X12438393Y-14447714D01*
X12438393Y-14447714D02*
X12428869Y-14428667D01*
X12428869Y-14428667D02*
X12409822Y-14419143D01*
X12409822Y-14419143D02*
X12381250Y-14419143D01*
X12381250Y-14419143D02*
X12362203Y-14428667D01*
X12362203Y-14428667D02*
X12352679Y-14438190D01*
X12562203Y-14552476D02*
X12543155Y-14542952D01*
X12543155Y-14542952D02*
X12533631Y-14533428D01*
X12533631Y-14533428D02*
X12524107Y-14514381D01*
X12524107Y-14514381D02*
X12524107Y-14457238D01*
X12524107Y-14457238D02*
X12533631Y-14438190D01*
X12533631Y-14438190D02*
X12543155Y-14428667D01*
X12543155Y-14428667D02*
X12562203Y-14419143D01*
X12562203Y-14419143D02*
X12590774Y-14419143D01*
X12590774Y-14419143D02*
X12609822Y-14428667D01*
X12609822Y-14428667D02*
X12619345Y-14438190D01*
X12619345Y-14438190D02*
X12628869Y-14457238D01*
X12628869Y-14457238D02*
X12628869Y-14514381D01*
X12628869Y-14514381D02*
X12619345Y-14533428D01*
X12619345Y-14533428D02*
X12609822Y-14542952D01*
X12609822Y-14542952D02*
X12590774Y-14552476D01*
X12590774Y-14552476D02*
X12562203Y-14552476D01*
X12743155Y-14552476D02*
X12724107Y-14542952D01*
X12724107Y-14542952D02*
X12714584Y-14523905D01*
X12714584Y-14523905D02*
X12714584Y-14352476D01*
X12895536Y-14542952D02*
X12876488Y-14552476D01*
X12876488Y-14552476D02*
X12838393Y-14552476D01*
X12838393Y-14552476D02*
X12819345Y-14542952D01*
X12819345Y-14542952D02*
X12809822Y-14523905D01*
X12809822Y-14523905D02*
X12809822Y-14447714D01*
X12809822Y-14447714D02*
X12819345Y-14428667D01*
X12819345Y-14428667D02*
X12838393Y-14419143D01*
X12838393Y-14419143D02*
X12876488Y-14419143D01*
X12876488Y-14419143D02*
X12895536Y-14428667D01*
X12895536Y-14428667D02*
X12905060Y-14447714D01*
X12905060Y-14447714D02*
X12905060Y-14466762D01*
X12905060Y-14466762D02*
X12809822Y-14485809D01*
X12981250Y-14542952D02*
X13000298Y-14552476D01*
X13000298Y-14552476D02*
X13038393Y-14552476D01*
X13038393Y-14552476D02*
X13057441Y-14542952D01*
X13057441Y-14542952D02*
X13066965Y-14523905D01*
X13066965Y-14523905D02*
X13066965Y-14514381D01*
X13066965Y-14514381D02*
X13057441Y-14495333D01*
X13057441Y-14495333D02*
X13038393Y-14485809D01*
X13038393Y-14485809D02*
X13009822Y-14485809D01*
X13009822Y-14485809D02*
X12990774Y-14476286D01*
X12990774Y-14476286D02*
X12981250Y-14457238D01*
X12981250Y-14457238D02*
X12981250Y-14447714D01*
X12981250Y-14447714D02*
X12990774Y-14428667D01*
X12990774Y-14428667D02*
X13009822Y-14419143D01*
X13009822Y-14419143D02*
X13038393Y-14419143D01*
X13038393Y-14419143D02*
X13057441Y-14428667D01*
X13133631Y-14628667D02*
X13143155Y-14619143D01*
X13143155Y-14619143D02*
X13162203Y-14590571D01*
X13162203Y-14590571D02*
X13171726Y-14571524D01*
X13171726Y-14571524D02*
X13181250Y-14542952D01*
X13181250Y-14542952D02*
X13190774Y-14495333D01*
X13190774Y-14495333D02*
X13190774Y-14457238D01*
X13190774Y-14457238D02*
X13181250Y-14409619D01*
X13181250Y-14409619D02*
X13171726Y-14381048D01*
X13171726Y-14381048D02*
X13162203Y-14362000D01*
X13162203Y-14362000D02*
X13143155Y-14333428D01*
X13143155Y-14333428D02*
X13133631Y-14323905D01*
X8301250Y-14643000D02*
X8501250Y-14843000D01*
X8501250Y-14643000D02*
X8301250Y-14843000D01*
X8471962Y-14813711D02*
X8471962Y-14672289D01*
X8330539Y-14672289D01*
X8330539Y-14813711D01*
X8471962Y-14813711D01*
X8729822Y-14616476D02*
X8853631Y-14616476D01*
X8853631Y-14616476D02*
X8786964Y-14692667D01*
X8786964Y-14692667D02*
X8815536Y-14692667D01*
X8815536Y-14692667D02*
X8834583Y-14702190D01*
X8834583Y-14702190D02*
X8844107Y-14711714D01*
X8844107Y-14711714D02*
X8853631Y-14730762D01*
X8853631Y-14730762D02*
X8853631Y-14778381D01*
X8853631Y-14778381D02*
X8844107Y-14797428D01*
X8844107Y-14797428D02*
X8834583Y-14806952D01*
X8834583Y-14806952D02*
X8815536Y-14816476D01*
X8815536Y-14816476D02*
X8758393Y-14816476D01*
X8758393Y-14816476D02*
X8739345Y-14806952D01*
X8739345Y-14806952D02*
X8729822Y-14797428D01*
X8939345Y-14797428D02*
X8948869Y-14806952D01*
X8948869Y-14806952D02*
X8939345Y-14816476D01*
X8939345Y-14816476D02*
X8929822Y-14806952D01*
X8929822Y-14806952D02*
X8939345Y-14797428D01*
X8939345Y-14797428D02*
X8939345Y-14816476D01*
X9025060Y-14635524D02*
X9034583Y-14626000D01*
X9034583Y-14626000D02*
X9053631Y-14616476D01*
X9053631Y-14616476D02*
X9101250Y-14616476D01*
X9101250Y-14616476D02*
X9120298Y-14626000D01*
X9120298Y-14626000D02*
X9129822Y-14635524D01*
X9129822Y-14635524D02*
X9139345Y-14654571D01*
X9139345Y-14654571D02*
X9139345Y-14673619D01*
X9139345Y-14673619D02*
X9129822Y-14702190D01*
X9129822Y-14702190D02*
X9015536Y-14816476D01*
X9015536Y-14816476D02*
X9139345Y-14816476D01*
X9263155Y-14616476D02*
X9282203Y-14616476D01*
X9282203Y-14616476D02*
X9301250Y-14626000D01*
X9301250Y-14626000D02*
X9310774Y-14635524D01*
X9310774Y-14635524D02*
X9320298Y-14654571D01*
X9320298Y-14654571D02*
X9329822Y-14692667D01*
X9329822Y-14692667D02*
X9329822Y-14740286D01*
X9329822Y-14740286D02*
X9320298Y-14778381D01*
X9320298Y-14778381D02*
X9310774Y-14797428D01*
X9310774Y-14797428D02*
X9301250Y-14806952D01*
X9301250Y-14806952D02*
X9282203Y-14816476D01*
X9282203Y-14816476D02*
X9263155Y-14816476D01*
X9263155Y-14816476D02*
X9244107Y-14806952D01*
X9244107Y-14806952D02*
X9234583Y-14797428D01*
X9234583Y-14797428D02*
X9225060Y-14778381D01*
X9225060Y-14778381D02*
X9215536Y-14740286D01*
X9215536Y-14740286D02*
X9215536Y-14692667D01*
X9215536Y-14692667D02*
X9225060Y-14654571D01*
X9225060Y-14654571D02*
X9234583Y-14635524D01*
X9234583Y-14635524D02*
X9244107Y-14626000D01*
X9244107Y-14626000D02*
X9263155Y-14616476D01*
X9453631Y-14616476D02*
X9472679Y-14616476D01*
X9472679Y-14616476D02*
X9491726Y-14626000D01*
X9491726Y-14626000D02*
X9501250Y-14635524D01*
X9501250Y-14635524D02*
X9510774Y-14654571D01*
X9510774Y-14654571D02*
X9520298Y-14692667D01*
X9520298Y-14692667D02*
X9520298Y-14740286D01*
X9520298Y-14740286D02*
X9510774Y-14778381D01*
X9510774Y-14778381D02*
X9501250Y-14797428D01*
X9501250Y-14797428D02*
X9491726Y-14806952D01*
X9491726Y-14806952D02*
X9472679Y-14816476D01*
X9472679Y-14816476D02*
X9453631Y-14816476D01*
X9453631Y-14816476D02*
X9434583Y-14806952D01*
X9434583Y-14806952D02*
X9425060Y-14797428D01*
X9425060Y-14797428D02*
X9415536Y-14778381D01*
X9415536Y-14778381D02*
X9406012Y-14740286D01*
X9406012Y-14740286D02*
X9406012Y-14692667D01*
X9406012Y-14692667D02*
X9415536Y-14654571D01*
X9415536Y-14654571D02*
X9425060Y-14635524D01*
X9425060Y-14635524D02*
X9434583Y-14626000D01*
X9434583Y-14626000D02*
X9453631Y-14616476D01*
X9606012Y-14816476D02*
X9606012Y-14683143D01*
X9606012Y-14702190D02*
X9615536Y-14692667D01*
X9615536Y-14692667D02*
X9634583Y-14683143D01*
X9634583Y-14683143D02*
X9663155Y-14683143D01*
X9663155Y-14683143D02*
X9682203Y-14692667D01*
X9682203Y-14692667D02*
X9691726Y-14711714D01*
X9691726Y-14711714D02*
X9691726Y-14816476D01*
X9691726Y-14711714D02*
X9701250Y-14692667D01*
X9701250Y-14692667D02*
X9720298Y-14683143D01*
X9720298Y-14683143D02*
X9748869Y-14683143D01*
X9748869Y-14683143D02*
X9767917Y-14692667D01*
X9767917Y-14692667D02*
X9777441Y-14711714D01*
X9777441Y-14711714D02*
X9777441Y-14816476D01*
X9872679Y-14816476D02*
X9872679Y-14683143D01*
X9872679Y-14702190D02*
X9882203Y-14692667D01*
X9882203Y-14692667D02*
X9901250Y-14683143D01*
X9901250Y-14683143D02*
X9929822Y-14683143D01*
X9929822Y-14683143D02*
X9948869Y-14692667D01*
X9948869Y-14692667D02*
X9958393Y-14711714D01*
X9958393Y-14711714D02*
X9958393Y-14816476D01*
X9958393Y-14711714D02*
X9967917Y-14692667D01*
X9967917Y-14692667D02*
X9986964Y-14683143D01*
X9986964Y-14683143D02*
X10015536Y-14683143D01*
X10015536Y-14683143D02*
X10034584Y-14692667D01*
X10034584Y-14692667D02*
X10044107Y-14711714D01*
X10044107Y-14711714D02*
X10044107Y-14816476D01*
X10402203Y-14606952D02*
X10230774Y-14864095D01*
X10626964Y-14616476D02*
X10646012Y-14616476D01*
X10646012Y-14616476D02*
X10665060Y-14626000D01*
X10665060Y-14626000D02*
X10674584Y-14635524D01*
X10674584Y-14635524D02*
X10684107Y-14654571D01*
X10684107Y-14654571D02*
X10693631Y-14692667D01*
X10693631Y-14692667D02*
X10693631Y-14740286D01*
X10693631Y-14740286D02*
X10684107Y-14778381D01*
X10684107Y-14778381D02*
X10674584Y-14797428D01*
X10674584Y-14797428D02*
X10665060Y-14806952D01*
X10665060Y-14806952D02*
X10646012Y-14816476D01*
X10646012Y-14816476D02*
X10626964Y-14816476D01*
X10626964Y-14816476D02*
X10607917Y-14806952D01*
X10607917Y-14806952D02*
X10598393Y-14797428D01*
X10598393Y-14797428D02*
X10588869Y-14778381D01*
X10588869Y-14778381D02*
X10579345Y-14740286D01*
X10579345Y-14740286D02*
X10579345Y-14692667D01*
X10579345Y-14692667D02*
X10588869Y-14654571D01*
X10588869Y-14654571D02*
X10598393Y-14635524D01*
X10598393Y-14635524D02*
X10607917Y-14626000D01*
X10607917Y-14626000D02*
X10626964Y-14616476D01*
X10779345Y-14797428D02*
X10788869Y-14806952D01*
X10788869Y-14806952D02*
X10779345Y-14816476D01*
X10779345Y-14816476D02*
X10769822Y-14806952D01*
X10769822Y-14806952D02*
X10779345Y-14797428D01*
X10779345Y-14797428D02*
X10779345Y-14816476D01*
X10979345Y-14816476D02*
X10865060Y-14816476D01*
X10922203Y-14816476D02*
X10922203Y-14616476D01*
X10922203Y-14616476D02*
X10903155Y-14645048D01*
X10903155Y-14645048D02*
X10884107Y-14664095D01*
X10884107Y-14664095D02*
X10865060Y-14673619D01*
X11055536Y-14635524D02*
X11065060Y-14626000D01*
X11065060Y-14626000D02*
X11084107Y-14616476D01*
X11084107Y-14616476D02*
X11131726Y-14616476D01*
X11131726Y-14616476D02*
X11150774Y-14626000D01*
X11150774Y-14626000D02*
X11160298Y-14635524D01*
X11160298Y-14635524D02*
X11169822Y-14654571D01*
X11169822Y-14654571D02*
X11169822Y-14673619D01*
X11169822Y-14673619D02*
X11160298Y-14702190D01*
X11160298Y-14702190D02*
X11046012Y-14816476D01*
X11046012Y-14816476D02*
X11169822Y-14816476D01*
X11341250Y-14616476D02*
X11303155Y-14616476D01*
X11303155Y-14616476D02*
X11284107Y-14626000D01*
X11284107Y-14626000D02*
X11274583Y-14635524D01*
X11274583Y-14635524D02*
X11255536Y-14664095D01*
X11255536Y-14664095D02*
X11246012Y-14702190D01*
X11246012Y-14702190D02*
X11246012Y-14778381D01*
X11246012Y-14778381D02*
X11255536Y-14797428D01*
X11255536Y-14797428D02*
X11265060Y-14806952D01*
X11265060Y-14806952D02*
X11284107Y-14816476D01*
X11284107Y-14816476D02*
X11322203Y-14816476D01*
X11322203Y-14816476D02*
X11341250Y-14806952D01*
X11341250Y-14806952D02*
X11350774Y-14797428D01*
X11350774Y-14797428D02*
X11360298Y-14778381D01*
X11360298Y-14778381D02*
X11360298Y-14730762D01*
X11360298Y-14730762D02*
X11350774Y-14711714D01*
X11350774Y-14711714D02*
X11341250Y-14702190D01*
X11341250Y-14702190D02*
X11322203Y-14692667D01*
X11322203Y-14692667D02*
X11284107Y-14692667D01*
X11284107Y-14692667D02*
X11265060Y-14702190D01*
X11265060Y-14702190D02*
X11255536Y-14711714D01*
X11255536Y-14711714D02*
X11246012Y-14730762D01*
X11484107Y-14616476D02*
X11503155Y-14616476D01*
X11503155Y-14616476D02*
X11522203Y-14626000D01*
X11522203Y-14626000D02*
X11531726Y-14635524D01*
X11531726Y-14635524D02*
X11541250Y-14654571D01*
X11541250Y-14654571D02*
X11550774Y-14692667D01*
X11550774Y-14692667D02*
X11550774Y-14740286D01*
X11550774Y-14740286D02*
X11541250Y-14778381D01*
X11541250Y-14778381D02*
X11531726Y-14797428D01*
X11531726Y-14797428D02*
X11522203Y-14806952D01*
X11522203Y-14806952D02*
X11503155Y-14816476D01*
X11503155Y-14816476D02*
X11484107Y-14816476D01*
X11484107Y-14816476D02*
X11465060Y-14806952D01*
X11465060Y-14806952D02*
X11455536Y-14797428D01*
X11455536Y-14797428D02*
X11446012Y-14778381D01*
X11446012Y-14778381D02*
X11436488Y-14740286D01*
X11436488Y-14740286D02*
X11436488Y-14692667D01*
X11436488Y-14692667D02*
X11446012Y-14654571D01*
X11446012Y-14654571D02*
X11455536Y-14635524D01*
X11455536Y-14635524D02*
X11465060Y-14626000D01*
X11465060Y-14626000D02*
X11484107Y-14616476D01*
X11626964Y-14616476D02*
X11626964Y-14654571D01*
X11703155Y-14616476D02*
X11703155Y-14654571D01*
X11966012Y-14892667D02*
X11956488Y-14883143D01*
X11956488Y-14883143D02*
X11937441Y-14854571D01*
X11937441Y-14854571D02*
X11927917Y-14835524D01*
X11927917Y-14835524D02*
X11918393Y-14806952D01*
X11918393Y-14806952D02*
X11908869Y-14759333D01*
X11908869Y-14759333D02*
X11908869Y-14721238D01*
X11908869Y-14721238D02*
X11918393Y-14673619D01*
X11918393Y-14673619D02*
X11927917Y-14645048D01*
X11927917Y-14645048D02*
X11937441Y-14626000D01*
X11937441Y-14626000D02*
X11956488Y-14597428D01*
X11956488Y-14597428D02*
X11966012Y-14587905D01*
X12127917Y-14683143D02*
X12127917Y-14816476D01*
X12080298Y-14606952D02*
X12032679Y-14749809D01*
X12032679Y-14749809D02*
X12156488Y-14749809D01*
X12352679Y-14816476D02*
X12352679Y-14616476D01*
X12438393Y-14816476D02*
X12438393Y-14711714D01*
X12438393Y-14711714D02*
X12428869Y-14692667D01*
X12428869Y-14692667D02*
X12409822Y-14683143D01*
X12409822Y-14683143D02*
X12381250Y-14683143D01*
X12381250Y-14683143D02*
X12362203Y-14692667D01*
X12362203Y-14692667D02*
X12352679Y-14702190D01*
X12562203Y-14816476D02*
X12543155Y-14806952D01*
X12543155Y-14806952D02*
X12533631Y-14797428D01*
X12533631Y-14797428D02*
X12524107Y-14778381D01*
X12524107Y-14778381D02*
X12524107Y-14721238D01*
X12524107Y-14721238D02*
X12533631Y-14702190D01*
X12533631Y-14702190D02*
X12543155Y-14692667D01*
X12543155Y-14692667D02*
X12562203Y-14683143D01*
X12562203Y-14683143D02*
X12590774Y-14683143D01*
X12590774Y-14683143D02*
X12609822Y-14692667D01*
X12609822Y-14692667D02*
X12619345Y-14702190D01*
X12619345Y-14702190D02*
X12628869Y-14721238D01*
X12628869Y-14721238D02*
X12628869Y-14778381D01*
X12628869Y-14778381D02*
X12619345Y-14797428D01*
X12619345Y-14797428D02*
X12609822Y-14806952D01*
X12609822Y-14806952D02*
X12590774Y-14816476D01*
X12590774Y-14816476D02*
X12562203Y-14816476D01*
X12743155Y-14816476D02*
X12724107Y-14806952D01*
X12724107Y-14806952D02*
X12714584Y-14787905D01*
X12714584Y-14787905D02*
X12714584Y-14616476D01*
X12895536Y-14806952D02*
X12876488Y-14816476D01*
X12876488Y-14816476D02*
X12838393Y-14816476D01*
X12838393Y-14816476D02*
X12819345Y-14806952D01*
X12819345Y-14806952D02*
X12809822Y-14787905D01*
X12809822Y-14787905D02*
X12809822Y-14711714D01*
X12809822Y-14711714D02*
X12819345Y-14692667D01*
X12819345Y-14692667D02*
X12838393Y-14683143D01*
X12838393Y-14683143D02*
X12876488Y-14683143D01*
X12876488Y-14683143D02*
X12895536Y-14692667D01*
X12895536Y-14692667D02*
X12905060Y-14711714D01*
X12905060Y-14711714D02*
X12905060Y-14730762D01*
X12905060Y-14730762D02*
X12809822Y-14749809D01*
X12981250Y-14806952D02*
X13000298Y-14816476D01*
X13000298Y-14816476D02*
X13038393Y-14816476D01*
X13038393Y-14816476D02*
X13057441Y-14806952D01*
X13057441Y-14806952D02*
X13066965Y-14787905D01*
X13066965Y-14787905D02*
X13066965Y-14778381D01*
X13066965Y-14778381D02*
X13057441Y-14759333D01*
X13057441Y-14759333D02*
X13038393Y-14749809D01*
X13038393Y-14749809D02*
X13009822Y-14749809D01*
X13009822Y-14749809D02*
X12990774Y-14740286D01*
X12990774Y-14740286D02*
X12981250Y-14721238D01*
X12981250Y-14721238D02*
X12981250Y-14711714D01*
X12981250Y-14711714D02*
X12990774Y-14692667D01*
X12990774Y-14692667D02*
X13009822Y-14683143D01*
X13009822Y-14683143D02*
X13038393Y-14683143D01*
X13038393Y-14683143D02*
X13057441Y-14692667D01*
X13133631Y-14892667D02*
X13143155Y-14883143D01*
X13143155Y-14883143D02*
X13162203Y-14854571D01*
X13162203Y-14854571D02*
X13171726Y-14835524D01*
X13171726Y-14835524D02*
X13181250Y-14806952D01*
X13181250Y-14806952D02*
X13190774Y-14759333D01*
X13190774Y-14759333D02*
X13190774Y-14721238D01*
X13190774Y-14721238D02*
X13181250Y-14673619D01*
X13181250Y-14673619D02*
X13171726Y-14645048D01*
X13171726Y-14645048D02*
X13162203Y-14626000D01*
X13162203Y-14626000D02*
X13143155Y-14597428D01*
X13143155Y-14597428D02*
X13133631Y-14587905D01*
M02*
