M48
; DRILL file {KiCad (7.0.0-0)} date Monday, 13 March 2023 at 11:18:50 AM
; FORMAT={-:-/ absolute / metric / decimal}
; #@! TF.CreationDate,2023-03-13T11:18:50+01:00
; #@! TF.GenerationSoftware,Kicad,Pcbnew,(7.0.0-0)
; #@! TF.FileFunction,Plated,1,2,PTH
FMAT,2
METRIC
; #@! TA.AperFunction,Plated,PTH,ViaDrill
T1C0.400
; #@! TA.AperFunction,Plated,PTH,ComponentDrill
T2C0.600
; #@! TA.AperFunction,Plated,PTH,ComponentDrill
T3C0.650
; #@! TA.AperFunction,Plated,PTH,ComponentDrill
T4C0.900
; #@! TA.AperFunction,Plated,PTH,ComponentDrill
T5C1.000
; #@! TA.AperFunction,Plated,PTH,ComponentDrill
T6C1.100
; #@! TA.AperFunction,Plated,PTH,ComponentDrill
T7C1.300
; #@! TA.AperFunction,Plated,PTH,ComponentDrill
T8C3.200
%
G90
G05
T1
X118.955Y-67.11
X136.175Y-78.0
X138.675Y-77.275
X140.525Y-78.975
X140.525Y-81.15
X140.875Y-77.275
X141.3Y-72.225
X142.06Y-95.65
X142.06Y-102.01
X144.473Y-100.197
X145.025Y-75.2
X145.3Y-71.3
X145.949Y-67.999
X146.1Y-66.7
X146.33Y-87.5
X147.0Y-69.625
X147.9Y-76.2
X148.044Y-98.791
X148.25Y-80.83
X149.6Y-101.5
X151.075Y-70.35
X151.18Y-72.79
X151.27Y-94.12
X151.44Y-68.9
X153.0Y-102.8
X153.09Y-81.72
X153.242Y-103.77
X153.65Y-78.34
X154.289Y-67.992
X154.354Y-68.989
X154.36Y-115.695
X154.36Y-117.7
X154.393Y-70.037
X154.41Y-65.34
X154.63Y-97.01
X154.82Y-87.23
X155.27Y-69.387
X155.55Y-81.45
X156.6Y-82.175
X157.025Y-96.525
X157.025Y-99.95
X157.23Y-76.23
X157.52Y-71.36
X157.57Y-64.78
X157.76Y-87.92
X158.2Y-87.02
X158.363Y-83.25
X158.421Y-75.479
X159.175Y-82.5
X159.199Y-71.958
X159.47Y-75.49
X160.28Y-116.36
X160.34Y-84.22
X162.65Y-75.575
X162.8Y-76.7
X163.14Y-110.2
X163.173Y-72.531
X163.401Y-112.771
X164.0Y-73.575
X164.773Y-71.9
X164.9Y-82.05
X165.01Y-106.79
X165.06Y-114.95
X165.8Y-92.775
X165.99Y-65.07
X166.025Y-114.09
X166.55Y-88.79
X166.56Y-81.66
X166.576Y-108.901
X166.74Y-69.21
X167.08Y-97.56
X167.479Y-76.771
X167.975Y-82.62
X168.1Y-89.925
X168.175Y-85.875
X168.29Y-109.63
X168.43Y-74.41
X170.04Y-81.47
X170.17Y-97.95
X171.17Y-114.11
X171.3Y-64.4
X171.61Y-113.04
X172.188Y-90.087
X172.5Y-109.6
X172.55Y-83.23
X173.3Y-72.2
X176.21Y-82.96
X181.81Y-81.64
T2
X92.063Y-95.966
X93.363Y-90.966
T3
X159.832Y-78.933
X159.832Y-80.203
X161.102Y-78.933
X161.102Y-80.203
X162.372Y-78.933
X162.372Y-80.203
X163.642Y-78.933
X163.642Y-80.203
X164.912Y-78.933
X164.912Y-80.203
T4
X105.4Y-74.47
X105.4Y-79.55
T5
X100.86Y-88.8
X100.86Y-98.8
X108.373Y-93.807
X108.373Y-98.807
X137.773Y-88.607
X137.773Y-104.007
X137.773Y-110.437
X137.773Y-115.437
X143.2Y-64.18
X143.2Y-66.72
X143.2Y-69.26
X143.2Y-71.8
X143.2Y-74.34
X143.2Y-76.88
X143.2Y-80.8
X143.2Y-83.34
X143.2Y-85.88
X143.2Y-88.42
X145.25Y-94.43
X152.453Y-90.037
X164.61Y-102.46
X164.694Y-97.307
X176.2Y-64.38
X176.2Y-66.92
X176.2Y-69.46
X176.2Y-72.0
X176.2Y-76.035
X176.2Y-78.575
T6
X185.98Y-87.235
X185.98Y-93.735
X186.105Y-72.46
X186.105Y-78.96
X190.48Y-87.235
X190.48Y-93.735
X190.605Y-72.46
X190.605Y-78.96
T7
X92.29Y-104.415
X92.29Y-109.495
X92.408Y-77.032
X92.408Y-82.112
T8
X90.5Y-61.5
X90.5Y-117.0
X187.0Y-61.5
X187.0Y-117.0
T2
X163.955Y-115.807G85X163.955Y-116.907
G05
X163.955Y-120.237G85X163.955Y-120.837
G05
X172.595Y-115.807G85X172.595Y-116.907
G05
X172.595Y-120.237G85X172.595Y-120.837
G05
T0
M30
