G04 #@! TF.GenerationSoftware,KiCad,Pcbnew,(7.0.0-0)*
G04 #@! TF.CreationDate,2023-03-13T11:18:44+01:00*
G04 #@! TF.ProjectId,ESPMeter,4553504d-6574-4657-922e-6b696361645f,rev?*
G04 #@! TF.SameCoordinates,Original*
G04 #@! TF.FileFunction,Paste,Top*
G04 #@! TF.FilePolarity,Positive*
%FSLAX46Y46*%
G04 Gerber Fmt 4.6, Leading zero omitted, Abs format (unit mm)*
G04 Created by KiCad (PCBNEW (7.0.0-0)) date 2023-03-13 11:18:44*
%MOMM*%
%LPD*%
G01*
G04 APERTURE LIST*
G04 Aperture macros list*
%AMRoundRect*
0 Rectangle with rounded corners*
0 $1 Rounding radius*
0 $2 $3 $4 $5 $6 $7 $8 $9 X,Y pos of 4 corners*
0 Add a 4 corners polygon primitive as box body*
4,1,4,$2,$3,$4,$5,$6,$7,$8,$9,$2,$3,0*
0 Add four circle primitives for the rounded corners*
1,1,$1+$1,$2,$3*
1,1,$1+$1,$4,$5*
1,1,$1+$1,$6,$7*
1,1,$1+$1,$8,$9*
0 Add four rect primitives between the rounded corners*
20,1,$1+$1,$2,$3,$4,$5,0*
20,1,$1+$1,$4,$5,$6,$7,0*
20,1,$1+$1,$6,$7,$8,$9,0*
20,1,$1+$1,$8,$9,$2,$3,0*%
%AMFreePoly0*
4,1,6,0.725000,-0.725000,-0.725000,-0.725000,-0.725000,0.125000,-0.125000,0.725000,0.725000,0.725000,0.725000,-0.725000,0.725000,-0.725000,$1*%
G04 Aperture macros list end*
%ADD10C,0.010000*%
%ADD11RoundRect,0.250000X0.475000X-0.337500X0.475000X0.337500X-0.475000X0.337500X-0.475000X-0.337500X0*%
%ADD12RoundRect,0.250000X-0.325000X-0.450000X0.325000X-0.450000X0.325000X0.450000X-0.325000X0.450000X0*%
%ADD13RoundRect,0.250000X-0.475000X0.337500X-0.475000X-0.337500X0.475000X-0.337500X0.475000X0.337500X0*%
%ADD14RoundRect,0.250000X0.450000X-0.325000X0.450000X0.325000X-0.450000X0.325000X-0.450000X-0.325000X0*%
%ADD15RoundRect,0.250000X0.337500X0.475000X-0.337500X0.475000X-0.337500X-0.475000X0.337500X-0.475000X0*%
%ADD16RoundRect,0.250000X-0.450000X0.350000X-0.450000X-0.350000X0.450000X-0.350000X0.450000X0.350000X0*%
%ADD17RoundRect,0.250000X0.350000X0.450000X-0.350000X0.450000X-0.350000X-0.450000X0.350000X-0.450000X0*%
%ADD18RoundRect,0.250000X-0.400000X-0.625000X0.400000X-0.625000X0.400000X0.625000X-0.400000X0.625000X0*%
%ADD19R,1.950000X0.650000*%
%ADD20RoundRect,0.250000X0.450000X-0.350000X0.450000X0.350000X-0.450000X0.350000X-0.450000X-0.350000X0*%
%ADD21RoundRect,0.150000X-0.512500X-0.150000X0.512500X-0.150000X0.512500X0.150000X-0.512500X0.150000X0*%
%ADD22RoundRect,0.250000X-0.350000X-0.450000X0.350000X-0.450000X0.350000X0.450000X-0.350000X0.450000X0*%
%ADD23R,0.800000X0.400000*%
%ADD24R,0.400000X0.800000*%
%ADD25FreePoly0,0.000000*%
%ADD26R,1.450000X1.450000*%
%ADD27R,0.700000X0.700000*%
%ADD28RoundRect,0.250000X-0.450000X0.325000X-0.450000X-0.325000X0.450000X-0.325000X0.450000X0.325000X0*%
%ADD29R,0.300000X1.150000*%
%ADD30RoundRect,0.250000X-0.337500X-0.475000X0.337500X-0.475000X0.337500X0.475000X-0.337500X0.475000X0*%
%ADD31RoundRect,0.012800X-0.417200X-0.147200X0.417200X-0.147200X0.417200X0.147200X-0.417200X0.147200X0*%
%ADD32R,0.650000X1.560000*%
G04 APERTURE END LIST*
G36*
X151090000Y-99920000D02*
G01*
X150050000Y-99920000D01*
X150050000Y-98400000D01*
X151090000Y-98400000D01*
X151090000Y-99920000D01*
G37*
D10*
X151090000Y-99920000D02*
X150050000Y-99920000D01*
X150050000Y-98400000D01*
X151090000Y-98400000D01*
X151090000Y-99920000D01*
D11*
X146662558Y-100197104D03*
X146662558Y-98122104D03*
D12*
X167799800Y-79705200D03*
X169849800Y-79705200D03*
D13*
X164363400Y-90707300D03*
X164363400Y-92782300D03*
X166560000Y-83912500D03*
X166560000Y-85987500D03*
D14*
X165060000Y-112685000D03*
X165060000Y-110635000D03*
D15*
X161670058Y-95117104D03*
X159595058Y-95117104D03*
D13*
X155552558Y-78204604D03*
X155552558Y-80279604D03*
D16*
X155202558Y-83047104D03*
X155202558Y-85047104D03*
D17*
X152090000Y-104500000D03*
X150090000Y-104500000D03*
D18*
X125427558Y-72892104D03*
X128527558Y-72892104D03*
D19*
X119077557Y-75432103D03*
X119077557Y-76702103D03*
X119077557Y-77972103D03*
X119077557Y-79242103D03*
X119077557Y-80512103D03*
X119077557Y-81782103D03*
X119077557Y-83052103D03*
X119077557Y-84322103D03*
X128527557Y-84322103D03*
X128527557Y-83052103D03*
X128527557Y-81782103D03*
X128527557Y-80512103D03*
X128527557Y-79242103D03*
X128527557Y-77972103D03*
X128527557Y-76702103D03*
X128527557Y-75432103D03*
D17*
X164442558Y-85592104D03*
X162442558Y-85592104D03*
D20*
X161560000Y-110370000D03*
X161560000Y-108370000D03*
D11*
X157200000Y-116545000D03*
X157200000Y-114470000D03*
D13*
X153012558Y-68919604D03*
X153012558Y-70994604D03*
X154480000Y-99302500D03*
X154480000Y-101377500D03*
D21*
X159627558Y-90677104D03*
X159627558Y-91627104D03*
X159627558Y-92577104D03*
X161902558Y-92577104D03*
X161902558Y-90677104D03*
D22*
X158362558Y-85592104D03*
X160362558Y-85592104D03*
D13*
X157022800Y-92459900D03*
X157022800Y-94534900D03*
D11*
X149202558Y-67184604D03*
X149202558Y-65109604D03*
D16*
X175641000Y-94437200D03*
X175641000Y-96437200D03*
D23*
X156472557Y-63631303D03*
X156472557Y-64431303D03*
X156472557Y-65231303D03*
X156472557Y-66031303D03*
X156472557Y-66831303D03*
X156472557Y-67631303D03*
X156472557Y-68431303D03*
X156472557Y-69231303D03*
X156472557Y-70031303D03*
X156472557Y-70831303D03*
X156472557Y-71631303D03*
D24*
X157572557Y-72531303D03*
X158372557Y-72531303D03*
X159172557Y-72531303D03*
X159972557Y-72531303D03*
X160772557Y-72531303D03*
X161572557Y-72531303D03*
X162372557Y-72531303D03*
X163172557Y-72531303D03*
X163972557Y-72531303D03*
X164772557Y-72531303D03*
X165572557Y-72531303D03*
X166372557Y-72531303D03*
X167172557Y-72531303D03*
D23*
X168272557Y-71631303D03*
X168272557Y-70831303D03*
X168272557Y-70031303D03*
X168272557Y-69231303D03*
X168272557Y-68431303D03*
X168272557Y-67631303D03*
X168272557Y-66831303D03*
X168272557Y-66031303D03*
X168272557Y-65231303D03*
X168272557Y-64431303D03*
X168272557Y-63631303D03*
D24*
X167172557Y-62731303D03*
X166372557Y-62731303D03*
X165572557Y-62731303D03*
X164772557Y-62731303D03*
X163972557Y-62731303D03*
X163172557Y-62731303D03*
X162372557Y-62731303D03*
X161572557Y-62731303D03*
X160772557Y-62731303D03*
X159972557Y-62731303D03*
X159172557Y-62731303D03*
X158372557Y-62731303D03*
X157572557Y-62731303D03*
D25*
X160397558Y-65656304D03*
D26*
X160397557Y-67631303D03*
X160397557Y-69606303D03*
X162372557Y-65656303D03*
X162372557Y-67631303D03*
X162372557Y-69606303D03*
X164347557Y-65656303D03*
X164347557Y-67631303D03*
X164347557Y-69606303D03*
D27*
X168322557Y-62681303D03*
X168322557Y-72581303D03*
X156422557Y-72581303D03*
X156422557Y-62681303D03*
D28*
X150472558Y-82662104D03*
X150472558Y-84712104D03*
D18*
X119077558Y-72892104D03*
X122177558Y-72892104D03*
D20*
X159362558Y-103969604D03*
X159362558Y-101969604D03*
D18*
X119077558Y-70352104D03*
X122177558Y-70352104D03*
D14*
X150472558Y-79632104D03*
X150472558Y-77582104D03*
D17*
X172610000Y-111120000D03*
X170610000Y-111120000D03*
D11*
X157970000Y-110427500D03*
X157970000Y-108352500D03*
D29*
X164924999Y-115791799D03*
X165724999Y-115791799D03*
X167024999Y-115791799D03*
X168024999Y-115791799D03*
X168524999Y-115791799D03*
X169524999Y-115791799D03*
X170824999Y-115791799D03*
X171624999Y-115791799D03*
X171324999Y-115791799D03*
X170524999Y-115791799D03*
X170024999Y-115791799D03*
X169024999Y-115791799D03*
X167524999Y-115791799D03*
X166524999Y-115791799D03*
X166024999Y-115791799D03*
X165224999Y-115791799D03*
D30*
X174975058Y-102297104D03*
X177050058Y-102297104D03*
D11*
X153012558Y-67184604D03*
X153012558Y-65109604D03*
D31*
X149135000Y-98185000D03*
X149135000Y-98835000D03*
X149135000Y-99485000D03*
X149135000Y-100135000D03*
X152005000Y-100135000D03*
X152005000Y-99485000D03*
X152005000Y-98835000D03*
X152005000Y-98185000D03*
D17*
X156552558Y-104239604D03*
X154552558Y-104239604D03*
D20*
X149202558Y-74767104D03*
X149202558Y-72767104D03*
D32*
X167299999Y-107587499D03*
X168249999Y-107587499D03*
X169199999Y-107587499D03*
X169199999Y-104887499D03*
X168249999Y-104887499D03*
X167299999Y-104887499D03*
D22*
X171202558Y-102297104D03*
X173202558Y-102297104D03*
D14*
X175564800Y-91617800D03*
X175564800Y-89567800D03*
D16*
X149205000Y-68960000D03*
X149205000Y-70960000D03*
D20*
X153767558Y-112292104D03*
X153767558Y-110292104D03*
D11*
X134350000Y-80037500D03*
X134350000Y-77962500D03*
D16*
X132337558Y-70622104D03*
X132337558Y-72622104D03*
D18*
X125427558Y-70352104D03*
X128527558Y-70352104D03*
D20*
X175666400Y-86547200D03*
X175666400Y-84547200D03*
M02*
