G04 #@! TF.GenerationSoftware,KiCad,Pcbnew,(7.0.0-0)*
G04 #@! TF.CreationDate,2023-03-13T11:18:44+01:00*
G04 #@! TF.ProjectId,ESPMeter,4553504d-6574-4657-922e-6b696361645f,rev?*
G04 #@! TF.SameCoordinates,Original*
G04 #@! TF.FileFunction,Copper,L2,Bot*
G04 #@! TF.FilePolarity,Positive*
%FSLAX46Y46*%
G04 Gerber Fmt 4.6, Leading zero omitted, Abs format (unit mm)*
G04 Created by KiCad (PCBNEW (7.0.0-0)) date 2023-03-13 11:18:44*
%MOMM*%
%LPD*%
G01*
G04 APERTURE LIST*
G04 #@! TA.AperFunction,ComponentPad*
%ADD10R,1.700000X1.700000*%
G04 #@! TD*
G04 #@! TA.AperFunction,ComponentPad*
%ADD11O,1.700000X1.700000*%
G04 #@! TD*
G04 #@! TA.AperFunction,ComponentPad*
%ADD12R,2.000000X2.000000*%
G04 #@! TD*
G04 #@! TA.AperFunction,ComponentPad*
%ADD13C,1.600000*%
G04 #@! TD*
G04 #@! TA.AperFunction,ComponentPad*
%ADD14C,3.600000*%
G04 #@! TD*
G04 #@! TA.AperFunction,ConnectorPad*
%ADD15C,6.400000*%
G04 #@! TD*
G04 #@! TA.AperFunction,ComponentPad*
%ADD16C,2.000000*%
G04 #@! TD*
G04 #@! TA.AperFunction,ComponentPad*
%ADD17C,1.408000*%
G04 #@! TD*
G04 #@! TA.AperFunction,ComponentPad*
%ADD18R,1.000000X1.000000*%
G04 #@! TD*
G04 #@! TA.AperFunction,ComponentPad*
%ADD19O,1.000000X1.000000*%
G04 #@! TD*
G04 #@! TA.AperFunction,ComponentPad*
%ADD20R,2.300000X2.000000*%
G04 #@! TD*
G04 #@! TA.AperFunction,ComponentPad*
%ADD21C,2.300000*%
G04 #@! TD*
G04 #@! TA.AperFunction,ComponentPad*
%ADD22R,2.600000X2.600000*%
G04 #@! TD*
G04 #@! TA.AperFunction,ComponentPad*
%ADD23C,2.600000*%
G04 #@! TD*
G04 #@! TA.AperFunction,ComponentPad*
%ADD24O,1.000000X2.100000*%
G04 #@! TD*
G04 #@! TA.AperFunction,ComponentPad*
%ADD25O,1.000000X1.600000*%
G04 #@! TD*
G04 #@! TA.AperFunction,ViaPad*
%ADD26C,0.800000*%
G04 #@! TD*
G04 #@! TA.AperFunction,Conductor*
%ADD27C,0.500000*%
G04 #@! TD*
G04 #@! TA.AperFunction,Conductor*
%ADD28C,0.300000*%
G04 #@! TD*
G04 #@! TA.AperFunction,Conductor*
%ADD29C,0.700000*%
G04 #@! TD*
G04 APERTURE END LIST*
D10*
X176199999Y-64379999D03*
D11*
X176199999Y-66919999D03*
X176199999Y-69459999D03*
X176199999Y-71999999D03*
D12*
X164693599Y-97307399D03*
D10*
X143199999Y-76879999D03*
D11*
X143199999Y-74339999D03*
X143199999Y-71799999D03*
X143199999Y-69259999D03*
X143199999Y-66719999D03*
X143199999Y-64179999D03*
D13*
X93362958Y-90966104D03*
X92062958Y-95966104D03*
D14*
X187000000Y-117000000D03*
D15*
X187000000Y-117000000D03*
D16*
X100860000Y-98800000D03*
X100860000Y-88800000D03*
D14*
X187000000Y-61500000D03*
D15*
X187000000Y-61500000D03*
D17*
X105400000Y-74470000D03*
X105400000Y-79550000D03*
D16*
X185980000Y-93735000D03*
X185980000Y-87235000D03*
X190480000Y-93735000D03*
X190480000Y-87235000D03*
D18*
X159832199Y-80203199D03*
D19*
X159832199Y-78933199D03*
X161102199Y-80203199D03*
X161102199Y-78933199D03*
X162372199Y-80203199D03*
X162372199Y-78933199D03*
X163642199Y-80203199D03*
X163642199Y-78933199D03*
X164912199Y-80203199D03*
X164912199Y-78933199D03*
D20*
X108372557Y-93807103D03*
D21*
X108372558Y-98807104D03*
X137772558Y-88607104D03*
X137772558Y-104007104D03*
D16*
X186105000Y-78960000D03*
X186105000Y-72460000D03*
X190605000Y-78960000D03*
X190605000Y-72460000D03*
D12*
X164609999Y-102459999D03*
D14*
X90500000Y-61500000D03*
D15*
X90500000Y-61500000D03*
D22*
X92289999Y-109494999D03*
D23*
X92290000Y-104415000D03*
D24*
X163954999Y-116356799D03*
D25*
X163954999Y-120536799D03*
D24*
X172594999Y-116356799D03*
D25*
X172594999Y-120536799D03*
D10*
X143199999Y-88419999D03*
D11*
X143199999Y-85879999D03*
X143199999Y-83339999D03*
X143199999Y-80799999D03*
D22*
X92408157Y-82112303D03*
D23*
X92408158Y-77032304D03*
D14*
X90500000Y-117000000D03*
D15*
X90500000Y-117000000D03*
D12*
X145249999Y-94429999D03*
D10*
X176199999Y-78574999D03*
D11*
X176199999Y-76034999D03*
D12*
X152452557Y-90037103D03*
X137772557Y-110437103D03*
D16*
X137772558Y-115437104D03*
D26*
X166550000Y-88790000D03*
X157520000Y-71360000D03*
X157025000Y-96525000D03*
X166575500Y-108900902D03*
X168290000Y-109630000D03*
X154410000Y-65340000D03*
X153649977Y-78340023D03*
X155270478Y-69387294D03*
X172500000Y-109600000D03*
X165060000Y-114950000D03*
X157025000Y-99950000D03*
X153090000Y-81720000D03*
X154360000Y-115695500D03*
X164900000Y-82050000D03*
X159198509Y-71958476D03*
X165800000Y-92775000D03*
X168175000Y-85875000D03*
X140525000Y-81150000D03*
X136175000Y-78000000D03*
X171610000Y-113040000D03*
X154360000Y-117700000D03*
X166025500Y-114090000D03*
X165010000Y-106790000D03*
X163400688Y-112770688D03*
X171170000Y-114110000D03*
X160280000Y-116360000D03*
X144472896Y-100197104D03*
X163140000Y-110200000D03*
X168100000Y-89925000D03*
X140875000Y-77275000D03*
X167080000Y-97560000D03*
X160340000Y-84220000D03*
X170170000Y-97950000D03*
X155550000Y-81450000D03*
X171300000Y-64400000D03*
X146330000Y-87500000D03*
X148250000Y-80830000D03*
X138675000Y-77275000D03*
X157570402Y-64780402D03*
X172187500Y-90087500D03*
X172550000Y-83230000D03*
X166560000Y-81660000D03*
X167478686Y-76771314D03*
X167975300Y-82620000D03*
X159175000Y-82500000D03*
X145025000Y-75200000D03*
X158420587Y-75479459D03*
X154393264Y-70036691D03*
X145300500Y-71300000D03*
X151075000Y-70350000D03*
X163172558Y-72531304D03*
X164000000Y-73575000D03*
X141300000Y-72225000D03*
X162650000Y-75575000D03*
X164772558Y-71900000D03*
X146100000Y-66700000D03*
X162800000Y-76700000D03*
X158200000Y-87020000D03*
X159470000Y-75490000D03*
X154820000Y-87230000D03*
X158362558Y-83250000D03*
X176210000Y-82960000D03*
X157760000Y-87920500D03*
X157230000Y-76230000D03*
X156600000Y-82175000D03*
X166740000Y-69210000D03*
X173300000Y-72200000D03*
X118955000Y-67110000D03*
X151270000Y-94120000D03*
X142060000Y-102010000D03*
X154630000Y-97010000D03*
X142060000Y-95650000D03*
X147900000Y-76200000D03*
X151179662Y-72790000D03*
X154353762Y-68989000D03*
X140525000Y-78975000D03*
X147000000Y-69625000D03*
X154289434Y-67991570D03*
X151440000Y-68900000D03*
X145949312Y-67999312D03*
X168430000Y-74410000D03*
X181810000Y-81640000D03*
X170040000Y-81470000D03*
X165990000Y-65070000D03*
X153241951Y-103769776D03*
X148043633Y-98790601D03*
X153000000Y-102800000D03*
X149600000Y-101500000D03*
D27*
X166550000Y-92025000D02*
X166550000Y-88790000D01*
X164900000Y-82050000D02*
X168175000Y-85325000D01*
X165000000Y-114949500D02*
X165000000Y-113715000D01*
X155231548Y-66161548D02*
X154410000Y-65340000D01*
X157025000Y-96525000D02*
X157025000Y-99950000D01*
X155270478Y-69387294D02*
X155231548Y-69348364D01*
X168175000Y-85325000D02*
X168175000Y-85875000D01*
X157520000Y-71360000D02*
X158600033Y-71360000D01*
X172470000Y-109630000D02*
X168290000Y-109630000D01*
X172500000Y-109600000D02*
X172470000Y-109630000D01*
X153090000Y-78900000D02*
X153649977Y-78340023D01*
X165000000Y-113715000D02*
X165675000Y-113040000D01*
X165800000Y-92775000D02*
X166550000Y-92025000D01*
X167560902Y-108900902D02*
X168290000Y-109630000D01*
X165675000Y-113040000D02*
X171610000Y-113040000D01*
X158600033Y-71360000D02*
X159198509Y-71958476D01*
X166575500Y-108900902D02*
X167560902Y-108900902D01*
X155231548Y-69348364D02*
X155231548Y-66161548D01*
X153090000Y-81720000D02*
X153090000Y-78900000D01*
X139325000Y-81150000D02*
X140525000Y-81150000D01*
X154360000Y-115695500D02*
X154360000Y-117700000D01*
X136175000Y-78000000D02*
X139325000Y-81150000D01*
X164180000Y-111991376D02*
X164180000Y-107620000D01*
X170995000Y-113935000D02*
X166180500Y-113935000D01*
X163400688Y-112770688D02*
X164180000Y-111991376D01*
X164180000Y-107620000D02*
X165010000Y-106790000D01*
X166180500Y-113935000D02*
X166025500Y-114090000D01*
X171170000Y-114110000D02*
X170995000Y-113935000D01*
X144472896Y-100197104D02*
X144360000Y-100084208D01*
X144360000Y-96740000D02*
X145250000Y-95850000D01*
X163140000Y-111830000D02*
X160280000Y-114690000D01*
X160280000Y-114690000D02*
X160280000Y-116360000D01*
X145250000Y-95850000D02*
X145250000Y-94430000D01*
X144360000Y-100084208D02*
X144360000Y-96740000D01*
X163140000Y-110200000D02*
X163140000Y-111830000D01*
X138675000Y-77275000D02*
X140875000Y-77275000D01*
X157570402Y-64780402D02*
X158540804Y-63810000D01*
X170170000Y-97950000D02*
X167470000Y-97950000D01*
X160340000Y-84220000D02*
X157395000Y-84220000D01*
X169175000Y-91000000D02*
X168100000Y-89925000D01*
X171275000Y-91000000D02*
X169175000Y-91000000D01*
X157395000Y-84220000D02*
X155550000Y-82375000D01*
X146330000Y-87500000D02*
X146330000Y-82750000D01*
X158540804Y-63810000D02*
X170710000Y-63810000D01*
X146330000Y-82750000D02*
X148250000Y-80830000D01*
X155550000Y-82375000D02*
X155550000Y-81450000D01*
X167470000Y-97950000D02*
X167080000Y-97560000D01*
X172187500Y-90087500D02*
X171275000Y-91000000D01*
X170710000Y-63810000D02*
X171300000Y-64400000D01*
D28*
X170805000Y-83230000D02*
X169950000Y-82375000D01*
X167478686Y-76771314D02*
X166560000Y-77690000D01*
X172550000Y-83230000D02*
X170805000Y-83230000D01*
X166560000Y-77690000D02*
X166560000Y-81660000D01*
X169950000Y-82375000D02*
X168220300Y-82375000D01*
X168220300Y-82375000D02*
X167975300Y-82620000D01*
X159832200Y-80203200D02*
X159832200Y-81842800D01*
X159832200Y-81842800D02*
X159175000Y-82500000D01*
X158391128Y-75450000D02*
X145275000Y-75450000D01*
X145275000Y-75450000D02*
X145025000Y-75200000D01*
X158420587Y-75479459D02*
X158391128Y-75450000D01*
X163175000Y-71750000D02*
X163175000Y-72528862D01*
X145300500Y-71300000D02*
X150125000Y-71300000D01*
X150125000Y-71300000D02*
X151075000Y-70350000D01*
X162725000Y-71300000D02*
X163175000Y-71750000D01*
X154820754Y-70464181D02*
X158754181Y-70464181D01*
X158754181Y-70464181D02*
X159590000Y-71300000D01*
X163175000Y-72528862D02*
X163172558Y-72531304D01*
X154393264Y-70036691D02*
X154820754Y-70464181D01*
X159590000Y-71300000D02*
X162725000Y-71300000D01*
X164000000Y-74450000D02*
X162875000Y-75575000D01*
X146400000Y-74300000D02*
X161375000Y-74300000D01*
X142150000Y-73075000D02*
X145175000Y-73075000D01*
X161375000Y-74300000D02*
X162650000Y-75575000D01*
X145175000Y-73075000D02*
X146400000Y-74300000D01*
X141300000Y-72225000D02*
X142150000Y-73075000D01*
X164000000Y-73575000D02*
X164000000Y-74450000D01*
X162875000Y-75575000D02*
X162650000Y-75575000D01*
X164772558Y-71900000D02*
X163675000Y-71900000D01*
X160375000Y-70325000D02*
X158680000Y-68630000D01*
X163675000Y-71542893D02*
X162457106Y-70325000D01*
X155159339Y-63430000D02*
X149370000Y-63430000D01*
X158680000Y-66950661D02*
X155159339Y-63430000D01*
X158680000Y-68630000D02*
X158680000Y-66950661D01*
X163675000Y-71900000D02*
X163675000Y-71542893D01*
X164772558Y-74727442D02*
X164772558Y-71900000D01*
X162457106Y-70325000D02*
X160375000Y-70325000D01*
X162800000Y-76700000D02*
X164772558Y-74727442D01*
X149370000Y-63430000D02*
X146100000Y-66700000D01*
X158200000Y-87020000D02*
X158050000Y-87170000D01*
X158000000Y-82887442D02*
X158000000Y-76960000D01*
X158050000Y-87170000D02*
X154880000Y-87170000D01*
X158362558Y-83250000D02*
X158000000Y-82887442D01*
X158000000Y-76960000D02*
X159470000Y-75490000D01*
X154880000Y-87170000D02*
X154820000Y-87230000D01*
X176210000Y-82960000D02*
X174190661Y-82960000D01*
X156600000Y-82175000D02*
X156600000Y-82150000D01*
X157230000Y-81520000D02*
X157230000Y-76230000D01*
X159205661Y-87075000D02*
X158360161Y-87920500D01*
X174190661Y-82960000D02*
X170075661Y-87075000D01*
X170075661Y-87075000D02*
X159205661Y-87075000D01*
X156600000Y-82150000D02*
X157230000Y-81520000D01*
X158360161Y-87920500D02*
X157760000Y-87920500D01*
X171040000Y-68820000D02*
X173300000Y-71080000D01*
X173300000Y-71080000D02*
X173300000Y-72200000D01*
X166740000Y-69210000D02*
X167130000Y-68820000D01*
X167130000Y-68820000D02*
X171040000Y-68820000D01*
D29*
X110222558Y-98807104D02*
X108372558Y-98807104D01*
X115905000Y-67110000D02*
X112020000Y-70995000D01*
X118955000Y-67110000D02*
X115905000Y-67110000D01*
X112020000Y-97009662D02*
X110222558Y-98807104D01*
X112020000Y-70995000D02*
X112020000Y-97009662D01*
D27*
X151740000Y-94120000D02*
X154630000Y-97010000D01*
X151270000Y-94120000D02*
X151740000Y-94120000D01*
X142060000Y-102010000D02*
X142060000Y-95650000D01*
D28*
X140550000Y-78950000D02*
X145150000Y-78950000D01*
X154353762Y-68989000D02*
X154353762Y-69016238D01*
X154353762Y-69016238D02*
X151179662Y-72190338D01*
X151179662Y-72190338D02*
X151179662Y-72790000D01*
X145150000Y-78950000D02*
X147900000Y-76200000D01*
X140525000Y-78975000D02*
X140550000Y-78950000D01*
X151440000Y-68900000D02*
X151790000Y-68550000D01*
X147000000Y-69050000D02*
X147000000Y-69625000D01*
X145949312Y-67999312D02*
X147000000Y-69050000D01*
X153731004Y-68550000D02*
X154289434Y-67991570D01*
X151790000Y-68550000D02*
X153731004Y-68550000D01*
X165990000Y-71970000D02*
X168430000Y-74410000D01*
X181810000Y-81640000D02*
X170210000Y-81640000D01*
X170210000Y-81640000D02*
X170040000Y-81470000D01*
X165990000Y-65070000D02*
X165990000Y-71970000D01*
D27*
X172595000Y-116356800D02*
X172595000Y-120536800D01*
X163955000Y-120536800D02*
X172595000Y-120536800D01*
X163955000Y-116356800D02*
X163955000Y-120536800D01*
D28*
X148043633Y-101004294D02*
X150809115Y-103769776D01*
X150809115Y-103769776D02*
X153241951Y-103769776D01*
X148043633Y-98790601D02*
X148043633Y-101004294D01*
X153000000Y-102800000D02*
X150900000Y-102800000D01*
X150900000Y-102800000D02*
X149600000Y-101500000D01*
D29*
X100860000Y-84090000D02*
X105400000Y-79550000D01*
X100860000Y-88800000D02*
X100860000Y-84090000D01*
M02*
