G04 #@! TF.GenerationSoftware,KiCad,Pcbnew,(7.0.0-0)*
G04 #@! TF.CreationDate,2023-03-13T11:18:45+01:00*
G04 #@! TF.ProjectId,ESPMeter,4553504d-6574-4657-922e-6b696361645f,rev?*
G04 #@! TF.SameCoordinates,Original*
G04 #@! TF.FileFunction,Legend,Bot*
G04 #@! TF.FilePolarity,Positive*
%FSLAX46Y46*%
G04 Gerber Fmt 4.6, Leading zero omitted, Abs format (unit mm)*
G04 Created by KiCad (PCBNEW (7.0.0-0)) date 2023-03-13 11:18:45*
%MOMM*%
%LPD*%
G01*
G04 APERTURE LIST*
%ADD10R,1.700000X1.700000*%
%ADD11O,1.700000X1.700000*%
%ADD12R,2.000000X2.000000*%
%ADD13C,1.600000*%
%ADD14C,3.600000*%
%ADD15C,6.400000*%
%ADD16C,2.000000*%
%ADD17C,1.408000*%
%ADD18R,1.000000X1.000000*%
%ADD19O,1.000000X1.000000*%
%ADD20R,2.300000X2.000000*%
%ADD21C,2.300000*%
%ADD22R,2.600000X2.600000*%
%ADD23C,2.600000*%
%ADD24C,0.650000*%
%ADD25O,1.000000X2.100000*%
%ADD26O,1.000000X1.600000*%
G04 APERTURE END LIST*
%LPC*%
D10*
X176199999Y-64379999D03*
D11*
X176199999Y-66919999D03*
X176199999Y-69459999D03*
X176199999Y-71999999D03*
D12*
X164693599Y-97307399D03*
D10*
X143199999Y-76879999D03*
D11*
X143199999Y-74339999D03*
X143199999Y-71799999D03*
X143199999Y-69259999D03*
X143199999Y-66719999D03*
X143199999Y-64179999D03*
D13*
X93362958Y-90966104D03*
X92062958Y-95966104D03*
D14*
X187000000Y-117000000D03*
D15*
X187000000Y-117000000D03*
D16*
X100860000Y-98800000D03*
X100860000Y-88800000D03*
D14*
X187000000Y-61500000D03*
D15*
X187000000Y-61500000D03*
D17*
X105400000Y-74470000D03*
X105400000Y-79550000D03*
D16*
X185980000Y-93735000D03*
X185980000Y-87235000D03*
X190480000Y-93735000D03*
X190480000Y-87235000D03*
D18*
X159832199Y-80203199D03*
D19*
X159832199Y-78933199D03*
X161102199Y-80203199D03*
X161102199Y-78933199D03*
X162372199Y-80203199D03*
X162372199Y-78933199D03*
X163642199Y-80203199D03*
X163642199Y-78933199D03*
X164912199Y-80203199D03*
X164912199Y-78933199D03*
D20*
X108372557Y-93807103D03*
D21*
X108372558Y-98807104D03*
X137772558Y-88607104D03*
X137772558Y-104007104D03*
D16*
X186105000Y-78960000D03*
X186105000Y-72460000D03*
X190605000Y-78960000D03*
X190605000Y-72460000D03*
D12*
X164609999Y-102459999D03*
D14*
X90500000Y-61500000D03*
D15*
X90500000Y-61500000D03*
D22*
X92289999Y-109494999D03*
D23*
X92290000Y-104415000D03*
D24*
X165385000Y-116856800D03*
X171165000Y-116856800D03*
D25*
X163954999Y-116356799D03*
D26*
X163954999Y-120536799D03*
D25*
X172594999Y-116356799D03*
D26*
X172594999Y-120536799D03*
D10*
X143199999Y-88419999D03*
D11*
X143199999Y-85879999D03*
X143199999Y-83339999D03*
X143199999Y-80799999D03*
D22*
X92408157Y-82112303D03*
D23*
X92408158Y-77032304D03*
D14*
X90500000Y-117000000D03*
D15*
X90500000Y-117000000D03*
D12*
X145249999Y-94429999D03*
D10*
X176199999Y-78574999D03*
D11*
X176199999Y-76034999D03*
D12*
X152452557Y-90037103D03*
X137772557Y-110437103D03*
D16*
X137772558Y-115437104D03*
M02*
